<svg width="68" height="68" viewBox="0 0 68 68" fill="none" xmlns="http://www.w3.org/2000/svg">
<g clip-path="url(#clip0_1_499)">
<path d="M59.0591 36.2791C60.4517 35.3326 61.5042 33.9647 62.0621 32.376C62.62 30.7874 62.6539 29.0617 62.1588 27.4523C61.6637 25.843 60.6657 24.4348 59.3113 23.4344C57.957 22.434 56.3175 21.8942 54.6337 21.8942C52.95 21.8942 51.3105 22.434 49.9562 23.4344C48.6018 24.4348 47.6038 25.843 47.1087 27.4523C46.6136 29.0617 46.6475 30.7874 47.2054 32.376C47.7633 33.9647 48.8158 35.3326 50.2084 36.2791C48.7749 36.7808 47.438 37.5247 46.2559 38.4784C44.2265 36.7079 41.8378 35.3976 39.2541 34.6375C41.3491 33.474 42.9984 31.6477 43.9431 29.4453C44.8878 27.2429 45.0742 24.7891 44.4733 22.4692C43.8723 20.1494 42.518 18.0947 40.6228 16.628C38.7277 15.1612 36.3991 14.3654 34.0027 14.3654C31.6062 14.3654 29.2776 15.1612 27.3825 16.628C25.4873 18.0947 24.133 20.1494 23.532 22.4692C22.9311 24.7891 23.1176 27.2429 24.0622 29.4453C25.0069 31.6477 26.6562 33.474 28.7512 34.6375C26.1675 35.3976 23.7788 36.7079 21.7494 38.4784C20.5673 37.5247 19.2304 36.7808 17.7969 36.2791C19.1911 35.3325 20.2451 33.9638 20.8041 32.3739C21.363 30.7841 21.3974 29.0569 20.9023 27.4461C20.4071 25.8352 19.4085 24.4256 18.053 23.4242C16.6976 22.4228 15.0568 21.8825 13.3716 21.8825C11.6863 21.8825 10.0455 22.4228 8.69008 23.4242C7.33464 24.4256 6.33602 25.8352 5.84087 27.4461C5.34572 29.0569 5.38014 30.7841 5.93907 32.3739C6.498 33.9638 7.55199 35.3325 8.94625 36.2791C6.33674 37.1975 4.07569 38.9016 2.47377 41.157C0.871854 43.4124 0.00768246 46.1086 0 48.875C0 49.1568 0.111942 49.427 0.311199 49.6263C0.510456 49.8256 0.780707 49.9375 1.0625 49.9375C1.34429 49.9375 1.61454 49.8256 1.8138 49.6263C2.01306 49.427 2.125 49.1568 2.125 48.875C2.12906 46.7782 2.71924 44.7242 3.82891 42.945C4.93858 41.1659 6.52354 39.7323 8.40485 38.8063C10.2862 37.8803 12.3889 37.4987 14.4756 37.7045C16.5623 37.9104 18.5499 38.6955 20.2141 39.9713C17.0593 43.4069 15.311 47.9028 15.3159 52.5672C15.3159 52.849 15.4279 53.1192 15.6271 53.3185C15.8264 53.5177 16.0966 53.6297 16.3784 53.6297C16.6602 53.6297 16.9305 53.5177 17.1297 53.3185C17.329 53.1192 17.4409 52.849 17.4409 52.5672C17.5187 48.2275 19.2972 44.0919 22.3937 41.0504C25.4901 38.0089 29.657 36.3047 33.9973 36.3047C38.3377 36.3047 42.5046 38.0089 45.601 41.0504C48.6975 44.0919 50.476 48.2275 50.5538 52.5672C50.5538 52.849 50.6657 53.1192 50.865 53.3185C51.0642 53.5177 51.3345 53.6297 51.6163 53.6297C51.898 53.6297 52.1683 53.5177 52.3675 53.3185C52.5668 53.1192 52.6788 52.849 52.6788 52.5672C52.6837 47.9028 50.9354 43.4069 47.7806 39.9713C49.4447 38.694 51.4329 37.9075 53.5204 37.7009C55.608 37.4942 57.7117 37.8755 59.594 38.8017C61.4762 39.7279 63.0619 41.1621 64.1718 42.9421C65.2817 44.7222 65.8717 46.7772 65.875 48.875C65.875 49.1568 65.9869 49.427 66.1862 49.6263C66.3855 49.8256 66.6557 49.9375 66.9375 49.9375C67.2193 49.9375 67.4895 49.8256 67.6888 49.6263C67.8881 49.427 68 49.1568 68 48.875C67.9927 46.1092 67.1293 43.4135 65.5284 41.1582C63.9275 38.9028 61.6676 37.1984 59.0591 36.2791ZM7.61812 29.75C7.62128 28.6128 7.96138 27.502 8.59549 26.5579C9.2296 25.6139 10.1293 24.8789 11.1808 24.4459C12.2324 24.0129 13.3887 23.9012 14.5037 24.125C15.6187 24.3488 16.6424 24.898 17.4455 25.7033C18.2485 26.5085 18.7949 27.5337 19.0156 28.6494C19.2363 29.765 19.1214 30.921 18.6855 31.9714C18.2496 33.0217 17.5121 33.9194 16.5663 34.5508C15.6205 35.1823 14.5088 35.5194 13.3716 35.5194C12.6149 35.5187 11.8657 35.3689 11.167 35.0785C10.4682 34.7881 9.83351 34.3629 9.29918 33.827C8.76486 33.2912 8.34137 32.6554 8.05292 31.9558C7.76448 31.2563 7.61673 30.5067 7.61812 29.75ZM25.3088 25.1706C25.313 23.4526 25.8263 21.7743 26.7838 20.3478C27.7414 18.9214 29.1002 17.8107 30.6887 17.1561C32.2772 16.5016 34.024 16.3325 35.7086 16.6702C37.3931 17.008 38.9397 17.8374 40.1531 19.0537C41.3665 20.2701 42.1921 21.8187 42.5258 23.5041C42.8594 25.1895 42.6861 26.9359 42.0276 28.5228C41.3692 30.1096 40.2552 31.4658 38.8264 32.4199C37.3976 33.3739 35.7181 33.8831 34 33.8831C31.6958 33.8803 29.4868 32.9637 27.8575 31.3344C26.2281 29.7051 25.3116 27.4961 25.3088 25.1919V25.1706ZM48.875 29.75C48.875 28.6121 49.2124 27.4997 49.8446 26.5536C50.4768 25.6074 51.3754 24.87 52.4267 24.4345C53.478 23.9991 54.6348 23.8851 55.7509 24.1071C56.8669 24.3291 57.8921 24.8771 58.6967 25.6817C59.5014 26.4863 60.0493 27.5115 60.2713 28.6276C60.4933 29.7436 60.3794 30.9004 59.9439 31.9517C59.5085 33.0031 58.771 33.9016 57.8249 34.5338C56.8787 35.166 55.7664 35.5034 54.6284 35.5034C53.103 35.502 51.6404 34.8954 50.5617 33.8167C49.483 32.7381 48.8764 31.2755 48.875 29.75Z" fill="#0C78ED"/>
</g>
<defs>
<clipPath id="clip0_1_499">
<rect width="68" height="68" fill="white"/>
</clipPath>
</defs>
</svg>
