<svg width="64" height="64" viewBox="0 0 64 64" fill="none" xmlns="http://www.w3.org/2000/svg">
<path d="M61.5024 3.64233H10.9268C9.57398 3.64233 8.42927 4.73502 8.42927 6.13989V12.0716H2.49756C1.09268 12.0716 0 13.1643 0 14.5692V57.8602C0 59.2131 1.09268 60.3578 2.49756 60.3578H53.0732C54.426 60.3578 55.5707 59.2651 55.5707 57.8602V51.9285H61.5024C62.8553 51.9285 64 50.8358 64 49.431V6.13989C64 4.73502 62.9073 3.64233 61.5024 3.64233ZM10.9268 5.72363H61.5024C61.7106 5.72363 61.9187 5.87973 61.9187 6.13989V13.3204H10.5106V6.13989C10.5106 5.87973 10.7187 5.72363 10.9268 5.72363ZM2.49756 14.1529H8.42927V21.7496H2.0813V14.5692C2.0813 14.361 2.2374 14.1529 2.49756 14.1529ZM53.4894 57.8602C53.4894 58.0683 53.3333 58.2765 53.0732 58.2765H2.49756C2.28943 58.2765 2.0813 58.1204 2.0813 57.8602V23.8309H8.42927V49.431C8.42927 50.7838 9.52195 51.9285 10.9268 51.9285H53.4894V57.8602ZM61.5024 49.8472H10.9268C10.7187 49.8472 10.5106 49.6911 10.5106 49.431V15.4017H61.9187V49.431C61.9187 49.6391 61.7626 49.8472 61.5024 49.8472Z" fill="#0C78ED"/>
<path d="M19.3051 10.3545H15.4547C14.8824 10.3545 14.4141 9.8862 14.4141 9.31384C14.4141 8.74149 14.8824 8.27319 15.4547 8.27319H19.3051C19.8775 8.27319 20.3458 8.74149 20.3458 9.31384C20.3458 9.8862 19.8775 10.3545 19.3051 10.3545Z" fill="#0C78ED"/>
<path d="M28.0981 10.3545H24.2477C23.6753 10.3545 23.207 9.8862 23.207 9.31384C23.207 8.74149 23.6753 8.27319 24.2477 8.27319H28.0981C28.6704 8.27319 29.1387 8.74149 29.1387 9.31384C29.1387 9.8862 28.6704 10.3545 28.0981 10.3545Z" fill="#0C78ED"/>
<path d="M20.2401 32.7284L30.1263 37.8276V35.8504L22.5295 32.052L30.1263 28.2536V26.2764L20.2401 31.3235V32.7284Z" fill="#0C78ED"/>
<path d="M32.3125 38.452H34.1857L40.0133 23.3625H38.0881L32.3125 38.452Z" fill="#0C78ED"/>
<path d="M42.1465 26.2764V28.2536L49.7953 32.052L42.1465 35.8504V37.8276L52.0327 32.7284V31.3235L42.1465 26.2764Z" fill="#0C78ED"/>
</svg>
