<svg width="64" height="64" viewBox="0 0 64 64" fill="none" xmlns="http://www.w3.org/2000/svg">
<path d="M42.26 8H41.585C39.324 8 37.486 9.769 37.336 11.993C35.412 12.958 27.401 16.628 16.782 16.628C11.65 16.628 7.54598 18.259 4.58298 21.476C1.12598 25.228 1.12598 30.887 4.58298 34.64C5.00098 35.093 5.44698 35.507 5.90898 35.897V46.177C5.90898 51.594 10.316 56.001 15.733 56.001C16.285 56.001 16.733 55.553 16.733 55.001V45.336H18.12C21.086 45.336 23.5 42.937 23.529 39.977C30.69 40.998 35.777 43.334 37.336 44.121C37.485 46.345 39.323 48.115 41.585 48.115H42.26C44.618 48.115 46.537 46.197 46.537 43.838V12.277C46.537 9.919 44.618 8 42.26 8ZM20.13 37.614V18.5C28.289 17.933 34.61 15.459 37.308 14.223V41.889C34.579 40.63 28.31 38.175 20.13 37.614ZM6.05398 22.831C8.62298 20.042 12.233 18.628 16.783 18.628C17.24 18.628 17.683 18.61 18.13 18.597V37.519C17.683 37.507 17.24 37.488 16.783 37.488C12.233 37.488 8.62398 36.074 6.05398 33.284C3.30898 30.305 3.30898 25.811 6.05398 22.831ZM14.734 53.936C10.89 53.443 7.90998 50.151 7.90998 46.175V37.293C9.88098 38.443 12.156 39.15 14.734 39.388V53.936ZM21.533 39.923C21.533 41.804 20.002 43.335 18.121 43.335H16.734V39.485C16.751 39.485 20.02 39.582 21.533 39.734V39.923ZM44.538 43.838C44.538 45.093 43.517 46.115 42.261 46.115H41.586C40.33 46.115 39.309 45.094 39.309 43.838V12.277C39.309 11.021 40.33 10 41.586 10H42.261C43.517 10 44.538 11.021 44.538 12.277V43.838Z" fill="#0C78ED"/>
<path d="M61.0001 27.0581H54.7031C54.1501 27.0581 53.7031 27.5061 53.7031 28.0581C53.7031 28.6101 54.1501 29.0581 54.7031 29.0581H61.0001C61.5531 29.0581 62.0001 28.6101 62.0001 28.0581C62.0001 27.5061 61.5531 27.0581 61.0001 27.0581Z" fill="#0C78ED"/>
<path d="M56.3323 38.667C55.9413 38.276 55.3093 38.276 54.9183 38.667C54.5272 39.058 54.5272 39.69 54.9183 40.081L59.3712 44.534C59.5662 44.729 59.8223 44.827 60.0783 44.827C60.3343 44.827 60.5903 44.729 60.7853 44.534C61.1763 44.143 61.1763 43.511 60.7853 43.12L56.3323 38.667Z" fill="#0C78ED"/>
<path d="M55.6253 17.7411C55.8813 17.7411 56.1373 17.6431 56.3323 17.4481L60.7853 12.9951C61.1763 12.6041 61.1763 11.9721 60.7853 11.5811C60.3943 11.1901 59.7622 11.1901 59.3712 11.5811L54.9183 16.0341C54.5272 16.4251 54.5272 17.0571 54.9183 17.4481C55.1133 17.6431 55.3693 17.7411 55.6253 17.7411Z" fill="#0C78ED"/>
</svg>
