<svg width="64" height="64" viewBox="0 0 64 64" fill="none" xmlns="http://www.w3.org/2000/svg">
<path d="M61 16H3C2.448 16 2 15.552 2 15V9C2 7.346 3.346 6 5 6H59C60.654 6 62 7.346 62 9V15C62 15.552 61.552 16 61 16ZM4 14H60V9C60 8.45 59.55 8 59 8H5C4.45 8 4 8.45 4 9V14Z" fill="#0C78ED"/>
<path d="M59 56H53C52.448 56 52 55.552 52 55C52 54.448 52.448 54 53 54H59C59.55 54 60 53.552 60 53V9C60 8.448 59.55 8 59 8H5C4.45 8 4 8.448 4 9V53C4 53.552 4.45 54 5 54H27C27.552 54 28 54.448 28 55C28 55.552 27.552 56 27 56H5C3.346 56 2 54.654 2 53V9C2 7.346 3.346 6 5 6H59C60.654 6 62 7.346 62 9V53C62 54.654 60.654 56 59 56Z" fill="#0C78ED"/>
<path d="M48.042 56.0041C47.772 56.0041 47.504 55.8961 47.308 55.6821L44.848 53.0141C44.572 52.7161 44.504 52.2801 44.676 51.9141C45.168 50.8581 45.526 49.7661 45.738 48.6681C45.816 48.2681 46.126 47.9561 46.526 47.8761L50 47.1801V44.8201L46.526 44.1241C46.128 44.0441 45.818 43.7321 45.738 43.3321C45.528 42.2341 45.168 41.1421 44.676 40.0841C44.504 39.7161 44.572 39.2821 44.848 38.9841L47.256 36.3721L45.87 34.4621L42.64 35.9481C42.27 36.1161 41.836 36.0501 41.54 35.7721C40.686 34.9761 39.758 34.2961 38.78 33.7541C38.426 33.5581 38.226 33.1661 38.272 32.7641L38.686 29.2461L36.44 28.5161L34.702 31.6121C34.502 31.9661 34.1 32.1581 33.708 32.1141C32.586 31.9761 31.416 31.9761 30.294 32.1141C29.896 32.1661 29.5 31.9661 29.298 31.6121L27.562 28.5161L25.316 29.2461L25.73 32.7641C25.776 33.1661 25.576 33.5581 25.222 33.7541C24.244 34.2961 23.316 34.9761 22.462 35.7721C22.168 36.0501 21.732 36.1161 21.362 35.9481L18.132 34.4621L16.746 36.3741L19.154 38.9861C19.43 39.2841 19.498 39.7201 19.326 40.0861C18.834 41.1421 18.476 42.2341 18.264 43.3321C18.186 43.7321 17.876 44.0441 17.476 44.1241L14 44.8201V47.1801L17.474 47.8761C17.872 47.9561 18.182 48.2681 18.262 48.6681C18.384 49.2941 18.554 49.9341 18.776 50.5661C18.956 51.0881 18.68 51.6561 18.158 51.8381C17.636 52.0201 17.068 51.7441 16.884 51.2221C16.71 50.7221 16.562 50.2141 16.44 49.7101L12.804 48.9801C12.336 48.8861 12 48.4761 12 48.0001V44.0001C12 43.5241 12.336 43.1141 12.804 43.0201L16.44 42.2921C16.638 41.4721 16.902 40.6581 17.236 39.8601L14.716 37.1281C14.392 36.7781 14.36 36.2481 14.642 35.8621L16.994 32.6241C17.276 32.2401 17.786 32.1021 18.22 32.3041L21.598 33.8581C22.252 33.2941 22.944 32.7881 23.662 32.3461L23.228 28.6641C23.174 28.1921 23.46 27.7441 23.914 27.5961L27.718 26.3581C28.166 26.2121 28.666 26.4021 28.9 26.8201L30.714 30.0561C31.562 29.9821 32.428 29.9821 33.276 30.0561L35.092 26.8201C35.324 26.4041 35.826 26.2121 36.272 26.3581L40.076 27.5941C40.53 27.7421 40.816 28.1881 40.762 28.6621L40.328 32.3461C41.046 32.7881 41.738 33.2941 42.392 33.8581L45.77 32.3041C46.204 32.1021 46.718 32.2401 46.996 32.6241L49.348 35.8601C49.63 36.2461 49.598 36.7761 49.274 37.1261L46.754 39.8581C47.088 40.6541 47.354 41.4701 47.55 42.2901L51.186 43.0181C51.664 43.1141 52 43.5241 52 44.0001V48.0001C52 48.4761 51.664 48.8861 51.196 48.9801L47.56 49.7081C47.362 50.5281 47.098 51.3421 46.764 52.1401L48.78 54.3261C49.156 54.7321 49.13 55.3641 48.724 55.7401C48.53 55.9161 48.286 56.0041 48.042 56.0041ZM32 56.0001C31.448 56.0001 31 55.5521 31 55.0001C31 54.4481 31.448 54.0001 32 54.0001C36.412 54.0001 40 50.4121 40 46.0001C40 41.5881 36.412 38.0001 32 38.0001C27.588 38.0001 24 41.5881 24 46.0001C24 47.6121 24.476 49.1661 25.378 50.4921C25.688 50.9481 25.572 51.5701 25.114 51.8821C24.662 52.1921 24.04 52.0781 23.726 51.6181C22.598 49.9581 22 48.0161 22 46.0001C22 40.4861 26.486 36.0001 32 36.0001C37.514 36.0001 42 40.4861 42 46.0001C42 51.5141 37.514 56.0001 32 56.0001Z" fill="#0C78ED"/>
</svg>
