<svg width="64" height="64" viewBox="0 0 64 64" fill="none" xmlns="http://www.w3.org/2000/svg">
<g clip-path="url(#clip0_1_140)">
<path d="M11.081 45.8482L7.59395 42.3612C7.06645 41.8325 7.11145 40.9575 7.7002 40.4987C10.1602 38.5787 13.2327 37.8237 16.1752 38.2337" stroke="#0C78ED" stroke-width="3" stroke-miterlimit="10" stroke-linecap="round" stroke-linejoin="round"/>
<path d="M25.7649 47.825C26.1749 50.7675 25.4199 53.8399 23.4999 56.2999C23.0411 56.8887 22.1661 56.9337 21.6374 56.4062L18.1504 52.9192" stroke="#0C78ED" stroke-width="3" stroke-miterlimit="10" stroke-linecap="round" stroke-linejoin="round"/>
<path d="M11.2391 33.2984C10.751 32.8102 10.751 32.0187 11.2391 31.5306L32.9116 9.85798C43.3014 -0.531766 57.6339 1.11373 61.2485 1.73198C61.7701 1.82123 62.178 2.22911 62.2673 2.75073C62.8855 6.36536 64.531 20.6979 54.1413 31.0876L32.4686 52.7602C31.9805 53.2484 31.189 53.2484 30.7009 52.7602L11.2391 33.2984Z" stroke="#0C78ED" stroke-width="3" stroke-miterlimit="10" stroke-linejoin="round"/>
<path d="M36.8937 48.3366L15.6641 27.1069" stroke="#0C78ED" stroke-width="3" stroke-miterlimit="10" stroke-linejoin="round"/>
<path d="M61.1395 19.5095L44.4901 2.86011" stroke="#0C78ED" stroke-width="3" stroke-miterlimit="10" stroke-linejoin="round"/>
<path d="M39.5469 32.5784C44.0342 32.5784 47.6719 28.9407 47.6719 24.4534C47.6719 19.9661 44.0342 16.3284 39.5469 16.3284C35.0596 16.3284 31.4219 19.9661 31.4219 24.4534C31.4219 28.9407 35.0596 32.5784 39.5469 32.5784Z" stroke="#0C78ED" stroke-width="3" stroke-miterlimit="10" stroke-linejoin="round"/>
<path d="M34.2383 50.9904L41.0559 57.808C41.5727 58.3248 42.4213 58.2914 42.8929 57.7332C44.7902 55.4878 47.2663 51.9604 48.9614 47.1278C50.8167 41.8389 50.9542 37.2168 50.8239 34.4048" stroke="#0C78ED" stroke-width="3" stroke-miterlimit="10" stroke-linejoin="round"/>
<path d="M13.0105 29.7606L6.19288 22.943C5.67613 22.4263 5.70951 21.5776 6.26776 21.106C8.51313 19.2086 12.0404 16.7326 16.8731 15.0375C22.1621 13.1823 26.7841 13.0448 29.5961 13.175" stroke="#0C78ED" stroke-width="3" stroke-miterlimit="10" stroke-linejoin="round"/>
<path d="M1.25 62.75L10.1971 53.8029" stroke="#0C78ED" stroke-width="3" stroke-miterlimit="10" stroke-linecap="round" stroke-linejoin="round"/>
<path d="M1.25 53.9112L5.77775 49.3834" stroke="#0C78ED" stroke-width="3" stroke-miterlimit="10" stroke-linecap="round" stroke-linejoin="round"/>
<path d="M10.0898 62.7499L14.6176 58.2222" stroke="#0C78ED" stroke-width="3" stroke-miterlimit="10" stroke-linecap="round" stroke-linejoin="round"/>
</g>
<defs>
<clipPath id="clip0_1_140">
<rect width="64" height="64" fill="white"/>
</clipPath>
</defs>
</svg>
