<svg width="1920" height="430" viewBox="0 0 1920 430" fill="none" xmlns="http://www.w3.org/2000/svg">
<g opacity="0.4" clip-path="url(#clip0_1_87)">
<path d="M338.67 525.058C483.067 519.401 608.085 514.508 641.116 361.293C661.257 267.825 759.661 261.438 853.406 255.323C933.039 250.139 1009.33 245.192 1031.86 187.369C1087.91 43.4771 1134.1 22.6073 1192.69 -3.82667C1248.13 -28.8597 1314.68 -58.905 1411.04 -202.464C1419.23 -214.649 1420.3 -214.514 1421.71 -214.382C1423.12 -214.251 1424.82 -214.051 1432.1 -222.707L1431.7 -223.061C1424.59 -214.623 1423.05 -214.791 1421.76 -214.916C1420.16 -215.073 1418.93 -215.209 1410.59 -202.777C1314.29 -59.3537 1247.82 -29.3551 1192.44 -4.33341C1133.71 22.1883 1087.43 43.0751 1031.32 187.162C1008.95 244.648 932.813 249.597 853.364 254.777C759.405 260.902 660.816 267.292 640.571 361.181C607.621 514.011 482.786 518.9 338.633 524.542C169.534 531.145 -26.1246 538.801 -131.74 786.938L-131.237 787.15C-25.7496 539.315 169.725 531.663 338.67 525.058Z" fill="#4F40AF"/>
<path d="M348.47 549.035C498.309 543.173 628.004 538.097 662.299 379.067C683.183 282.223 785.173 275.585 882.391 269.27C965.034 263.883 1044.22 258.754 1067.58 198.708C1125.67 49.5004 1173.57 27.9046 1234.34 0.470202C1291.85 -25.4812 1360.89 -56.6784 1460.89 -205.581C1469.34 -218.154 1470.41 -218.02 1471.85 -217.893C1473.36 -217.749 1475.15 -217.536 1482.76 -226.563L1482.14 -227.091C1474.83 -218.4 1473.26 -218.563 1471.94 -218.712C1470.25 -218.882 1468.92 -219.03 1460.22 -206.038C1360.37 -57.3182 1291.43 -26.2031 1234.01 -0.268671C1173.07 27.2294 1125.04 48.9129 1066.82 198.422C1043.64 257.972 964.703 263.114 882.327 268.451C784.807 274.792 682.513 281.457 661.499 378.911C627.335 537.331 497.943 542.38 348.442 548.239C173.016 555.092 -29.9789 563.036 -139.548 820.489L-138.78 820.805C-29.4284 563.825 173.288 555.872 348.47 549.035Z" fill="#4F40AF"/>
<path d="M358.265 572.981C513.517 566.921 647.949 561.652 683.477 396.811C705.075 296.597 810.686 289.731 911.335 283.164C996.965 277.609 1079.03 272.269 1103.29 209.988C1163.46 55.4885 1213.06 33.1074 1275.95 4.71353C1335.56 -22.1917 1407.07 -54.4756 1510.67 -208.774C1519.35 -221.731 1520.45 -221.603 1521.89 -221.447C1523.46 -221.284 1525.38 -221.094 1533.32 -230.491L1532.47 -231.223C1524.94 -222.273 1523.34 -222.43 1522.02 -222.579C1520.2 -222.756 1518.81 -222.923 1509.75 -209.4C1406.32 -55.349 1334.94 -23.1528 1275.48 3.69437C1212.33 32.1986 1162.56 54.6732 1102.24 209.605C1078.25 271.218 996.542 276.519 911.25 282.071C810.204 288.653 704.165 295.538 682.388 396.588C647.039 560.593 513.029 565.812 358.24 571.877C176.487 578.98 -33.8136 587.207 -147.366 853.981L-146.326 854.43C-33.082 588.3 176.851 580.081 358.265 572.981Z" fill="#4F40AF"/>
<path d="M368.066 596.958C528.755 590.663 667.869 585.241 704.661 414.585C727.001 310.995 836.199 303.878 940.291 297.117C1028.93 291.358 1113.88 285.809 1138.99 221.334C1201.22 61.5419 1252.52 38.3754 1317.57 9.01643C1379.25 -18.8369 1453.26 -52.243 1560.48 -211.914C1569.42 -225.261 1570.53 -225.132 1571.97 -224.976C1573.64 -224.8 1575.65 -224.598 1583.89 -234.36L1582.82 -235.266C1575.06 -226.057 1573.45 -226.244 1572.14 -226.363C1570.22 -226.553 1568.75 -226.703 1559.32 -212.679C1452.35 -53.3315 1378.53 -20.0245 1317 7.77083C1251.63 37.2812 1200.11 60.5524 1137.67 220.876C1112.87 284.523 1028.37 290.048 940.191 295.781C835.582 302.579 725.838 309.738 703.263 414.359C666.695 583.925 528.108 589.369 367.995 595.616C179.916 602.969 -37.721 611.484 -155.233 887.544L-153.927 888.096C-36.7659 612.78 180.384 604.297 368.066 596.958Z" fill="#4F40AF"/>
<path d="M377.866 620.935C543.968 614.44 687.783 608.801 725.845 432.359C748.898 325.399 861.717 318.055 969.241 311.041C1060.89 305.078 1148.7 299.353 1174.71 232.643C1239.02 67.5596 1291.98 43.6134 1359.22 13.2836C1422.97 -15.488 1499.47 -50.0461 1610.29 -215.084C1619.5 -228.79 1620.6 -228.691 1622.04 -228.535C1623.8 -228.347 1625.91 -228.131 1634.47 -238.294L1633.18 -239.404C1625.22 -229.942 1623.59 -230.123 1622.24 -230.266C1620.23 -230.469 1618.66 -230.632 1608.89 -216.082C1498.34 -51.4333 1422.09 -17.0153 1358.52 11.6927C1290.94 42.2092 1237.69 66.2417 1173.14 231.988C1147.53 297.698 1060.26 303.381 969.156 309.301C861.021 316.339 747.531 323.719 724.199 431.964C686.446 607.115 543.242 612.73 377.841 619.184C183.434 626.786 -41.5382 635.589 -163.004 920.965L-161.432 921.621C-40.4443 637.29 183.947 628.506 377.866 620.935Z" fill="#4F40AF"/>
<path d="M387.661 644.881C559.205 638.182 707.697 632.361 746.993 450.109C770.784 339.744 887.224 332.172 998.16 324.97C1092.82 318.804 1183.52 312.898 1210.36 243.935C1276.74 73.5591 1331.44 48.8515 1400.8 17.5327C1466.65 -12.1928 1545.64 -47.873 1660.06 -218.278C1669.54 -232.373 1670.63 -232.274 1672.08 -232.118C1673.91 -231.911 1676.13 -231.689 1685 -242.217L1683.46 -243.495C1675.27 -233.774 1673.61 -233.949 1672.26 -234.092C1670.12 -234.302 1668.52 -234.489 1658.37 -219.374C1544.3 -49.4344 1465.58 -13.8999 1399.96 15.7208C1330.17 47.2138 1275.17 72.0727 1208.53 243.206C1182.14 310.974 1092.05 316.856 998.054 322.957C886.358 330.211 769.163 337.865 745.063 449.676C706.095 630.418 558.304 636.198 387.585 642.863C186.857 650.745 -45.4517 659.836 -170.872 954.528L-169.028 955.317C-44.0988 661.765 187.509 652.716 387.661 644.881Z" fill="#4F40AF"/>
<path d="M397.461 668.858C574.412 661.93 727.647 655.945 768.176 467.883C792.68 354.148 912.741 346.348 1027.11 338.893C1124.78 332.524 1218.35 326.442 1246.08 255.245C1314.5 79.5529 1370.87 54.0953 1442.42 21.8057C1510.33 -8.83816 1591.83 -45.6405 1709.84 -221.412C1719.55 -235.891 1720.68 -235.797 1722.13 -235.642C1724.04 -235.452 1726.37 -235.187 1735.56 -246.116L1733.8 -247.598C1725.38 -237.617 1723.72 -237.793 1722.34 -237.93C1720.11 -238.153 1718.41 -238.352 1707.9 -222.706C1590.22 -47.4595 1509.07 -10.8142 1441.4 19.7193C1369.4 52.2183 1312.66 77.8386 1243.89 254.399C1216.69 324.231 1123.83 330.272 1026.89 336.595C911.665 344.089 790.754 351.958 765.861 467.369C725.68 653.702 573.3 659.647 397.299 666.548C190.238 674.65 -49.3765 684.023 -178.756 988.002L-176.646 988.893C-47.7774 686.276 191.072 676.925 397.461 668.858Z" fill="#4F40AF"/>
<path d="M407.256 692.805C589.65 685.672 747.555 679.476 789.354 485.627C814.601 368.516 938.249 360.465 1056.09 352.811C1156.74 346.273 1253.23 339.976 1281.8 266.554C1352.28 85.5407 1410.36 59.3275 1484.03 26.0784C1554.02 -5.51352 1638.01 -43.438 1759.64 -224.612C1769.62 -239.48 1770.75 -239.357 1772.23 -239.207C1774.24 -239.004 1776.66 -238.756 1786.15 -250.02L1784.17 -251.676C1775.56 -241.442 1773.86 -241.613 1772.48 -241.75C1770.13 -241.979 1768.37 -242.168 1757.49 -226.021C1636.3 -45.4538 1552.65 -7.68631 1482.97 23.7543C1408.77 57.2594 1350.27 83.6764 1279.41 265.654C1251.41 337.549 1155.75 343.783 1055.91 350.257C937.132 357.998 812.506 366.081 786.85 485.088C745.478 676.976 588.487 683.121 407.167 690.234C193.78 698.586 -53.1706 708.248 -186.504 1021.54L-184.128 1022.54C-51.4315 710.75 194.635 701.134 407.256 692.805Z" fill="#4F40AF"/>
<path d="M417.058 716.781C604.895 709.444 767.477 703.066 810.54 503.401C836.5 382.92 963.768 374.641 1085.05 366.764C1188.71 360.023 1288.05 353.55 1317.53 277.894C1390.08 91.5885 1449.86 64.6196 1525.69 30.3758C1597.74 -2.16435 1684.23 -41.2111 1809.49 -227.728C1819.74 -242.985 1820.87 -242.862 1822.34 -242.711C1824.42 -242.49 1826.96 -242.235 1836.79 -253.871L1834.58 -255.731C1825.74 -245.238 1824.05 -245.408 1822.63 -245.569C1820.18 -245.811 1818.33 -246.013 1807.09 -229.335C1682.32 -43.466 1596.23 -4.61737 1524.48 27.7713C1448.06 62.2826 1387.83 89.4609 1314.84 276.866C1286.06 350.82 1187.59 357.217 1084.84 363.908C962.53 371.859 834.169 380.222 807.721 502.829C765.135 700.308 603.562 706.649 416.948 713.938C197.234 722.54 -57.0227 732.483 -194.34 1055.1L-191.692 1056.23C-55.1081 735.261 198.169 725.35 417.058 716.781Z" fill="#4F40AF"/>
<path d="M426.858 740.758C620.101 733.192 787.425 726.649 831.693 521.181C858.396 397.324 989.25 388.794 1113.97 380.693C1220.64 373.748 1322.87 367.095 1353.19 289.215C1427.81 97.6175 1489.26 69.8689 1567.24 34.6599C1641.4 1.19581 1730.38 -39.0028 1859.21 -230.881C1869.72 -246.527 1870.85 -246.404 1872.32 -246.254C1874.49 -246.02 1877.13 -245.752 1887.28 -257.788L1884.86 -259.822C1875.79 -249.07 1874.07 -249.234 1872.65 -249.396C1870.11 -249.651 1868.16 -249.865 1856.6 -232.632C1728.25 -41.4616 1639.71 -1.50212 1565.93 31.7993C1487.29 67.287 1425.31 95.2917 1350.23 288.084C1320.64 364.101 1219.38 370.692 1113.74 377.564C987.872 385.76 855.795 394.339 828.584 520.541C784.813 723.605 618.622 730.116 426.691 737.617C200.704 746.428 -60.8889 756.659 -202.16 1088.59L-199.246 1089.82C-58.7931 759.741 201.731 749.559 426.858 740.758Z" fill="#4F40AF"/>
<path d="M436.653 764.705C635.338 756.934 807.339 750.21 852.87 538.925C880.317 411.693 1014.76 402.94 1142.92 394.616C1252.6 387.468 1357.7 380.639 1388.91 300.525C1465.6 103.606 1528.75 75.1014 1608.89 38.9273C1685.11 4.51506 1776.59 -36.776 1909.04 -234.056C1919.82 -250.092 1920.95 -249.968 1922.43 -249.818C1924.69 -249.572 1927.42 -249.291 1937.87 -261.692L1935.23 -263.93C1925.96 -252.925 1924.21 -253.083 1922.76 -253.239C1920.09 -253.501 1918.08 -253.734 1906.16 -235.97C1774.26 -39.5037 1683.26 1.57228 1607.43 35.8161C1526.59 72.31 1462.87 101.076 1385.66 299.296C1355.25 377.347 1251.22 384.126 1142.66 391.184C1013.23 399.597 877.451 408.45 849.471 538.217C804.487 746.872 633.708 753.548 436.488 761.255C204.12 770.357 -64.808 780.877 -210.039 1122.09L-206.883 1123.46C-62.442 784.246 205.294 773.768 436.653 764.705Z" fill="#4F40AF"/>
<path d="M446.453 788.681C650.552 780.712 827.254 773.77 874.054 556.699C902.213 426.097 1040.28 417.117 1171.87 408.54C1284.57 401.218 1392.55 394.178 1424.6 311.84C1503.36 109.629 1568.21 80.3396 1650.48 43.2061C1728.77 7.8457 1822.74 -34.5675 1958.79 -237.215C1969.8 -253.634 1970.96 -253.516 1972.44 -253.336C1974.8 -253.107 1977.63 -252.784 1988.4 -265.585L1985.54 -267.997C1976.05 -256.733 1974.29 -256.921 1972.85 -257.047C1970.08 -257.322 1967.97 -257.567 1955.69 -239.273C1820.21 -37.5047 1726.78 4.68207 1648.91 39.8387C1565.85 77.3387 1500.38 106.901 1421.08 310.508C1389.87 390.623 1283.04 397.596 1171.56 404.84C1038.61 413.493 899.107 422.561 870.335 555.929C824.131 770.144 648.8 777.01 446.232 784.935C207.537 794.287 -68.6972 805.088 -217.912 1155.63L-214.49 1157.1C-66.126 808.726 208.856 797.978 446.453 788.681Z" fill="#4F40AF"/>
<path d="M456.254 812.658C665.79 804.454 847.174 797.359 895.244 574.503C924.147 440.524 1065.8 431.293 1200.83 422.523C1316.51 415.003 1427.38 407.782 1460.33 323.209C1541.13 115.712 1607.69 85.6666 1692.13 47.5327C1772.53 11.2482 1868.97 -32.3112 2008.64 -240.331C2019.91 -257.139 2021.08 -257.021 2022.56 -256.842C2024.98 -256.594 2027.93 -256.293 2039.01 -269.43L2035.92 -272.046C2026.2 -260.523 2024.44 -260.711 2022.96 -260.861C2020.11 -261.149 2017.91 -261.377 2005.26 -242.582C1866.23 -35.5173 1770.33 7.78597 1690.42 43.8553C1605.15 82.3614 1537.94 112.685 1456.54 321.714C1424.51 403.893 1314.92 411.024 1200.52 418.484C1064 427.354 920.8 436.695 891.265 573.659C843.876 793.459 663.927 800.496 456.078 808.656C211.05 818.228 -72.5148 829.348 -225.689 1189.17L-222.001 1190.75C-69.7738 833.231 212.42 822.187 456.254 812.658Z" fill="#4F40AF"/>
<path d="M466.049 836.604C680.998 828.201 867.119 820.914 916.422 592.247C946.038 454.899 1091.31 445.44 1229.8 436.411C1348.49 428.687 1462.25 421.286 1496.04 334.49C1578.91 121.67 1647.17 90.8695 1733.74 51.7761C1816.21 14.5435 1915.17 -30.1437 2058.44 -243.53C2069.99 -260.698 2071.12 -260.575 2072.65 -260.436C2075.17 -260.175 2078.21 -259.862 2089.62 -273.399L2086.31 -276.189C2076.39 -264.413 2074.57 -264.59 2073.1 -264.74C2070.12 -265.035 2067.85 -265.281 2054.88 -245.931C1912.3 -33.5707 1813.93 10.8491 1731.98 47.8311C1644.49 87.3137 1575.53 118.464 1492.02 332.915C1459.22 417.151 1346.8 424.482 1229.5 432.094C1089.46 441.203 942.51 450.765 912.213 591.324C863.609 816.715 679.079 823.946 465.905 832.289C214.551 842.111 -76.3499 853.518 -233.478 1222.66L-229.518 1224.37C-73.4575 857.711 215.953 846.403 466.049 836.604Z" fill="#4F40AF"/>
<path d="M475.851 860.581C696.235 851.943 887.039 844.503 937.577 610.026C967.93 469.273 1116.83 459.587 1258.73 450.369C1380.43 442.443 1497.05 434.866 1531.74 345.835C1616.68 127.724 1686.61 96.143 1775.37 56.0788C1859.9 17.8981 1961.36 -27.9113 2108.23 -246.665C2120.03 -264.222 2121.17 -264.098 2122.7 -263.959C2125.31 -263.686 2128.45 -263.36 2140.18 -277.268L2136.66 -280.262C2126.51 -268.227 2124.69 -268.404 2123.18 -268.548C2120.11 -268.856 2117.75 -269.115 2104.41 -249.234C1958.26 -31.5718 1857.45 13.9588 1773.46 51.8834C1683.77 92.3721 1613.07 124.284 1527.45 344.157C1493.84 430.457 1378.65 437.946 1258.44 445.774C1114.84 455.129 964.173 464.906 933.112 609.059C883.324 840.036 694.177 847.438 475.715 855.987C218.034 866.058 -80.1734 877.748 -241.255 1256.2L-237.03 1258.02C-77.1352 882.221 219.516 870.612 475.851 860.581Z" fill="#4F40AF"/>
<path d="M485.651 884.558C711.478 875.715 906.983 868.058 958.79 627.795C989.856 483.671 1142.37 473.757 1287.71 464.287C1412.42 456.186 1531.93 448.4 1567.45 357.115C1654.47 133.712 1726.1 101.375 1816.98 60.3221C1903.58 21.223 2007.54 -25.7086 2158.03 -249.835C2170.08 -267.775 2171.24 -267.657 2172.77 -267.519C2175.45 -267.227 2178.71 -266.894 2190.74 -281.197L2187 -284.365C2176.62 -272.07 2174.8 -272.247 2173.29 -272.421C2170.08 -272.766 2167.66 -273.014 2153.97 -252.602C2004.27 -29.614 1900.99 17.0035 1814.95 55.8408C1723.05 97.3355 1650.6 130.044 1562.86 355.31C1528.45 443.673 1410.46 451.356 1287.35 459.364C1140.22 468.931 985.823 478.987 953.97 626.741C902.968 863.309 709.233 870.876 485.453 879.636C221.445 889.958 -84.1038 901.906 -249.139 1289.68L-244.648 1291.6C-80.7897 906.696 223.079 894.822 485.651 884.558Z" fill="#4F40AF"/>
<path d="M2237.34 -288.437C2226.74 -275.854 2224.88 -276.055 2223.37 -276.23C2220.07 -276.587 2217.56 -276.818 2203.5 -255.905C2050.22 -27.6151 1944.54 20.1075 1856.43 59.8631C1762.32 102.364 1688.13 135.834 1598.28 366.522C1563.09 456.943 1442.3 464.789 1316.28 472.985C1165.59 482.797 1007.47 493.068 974.857 644.417C922.665 886.54 724.318 894.308 495.25 903.274C224.926 913.906 -87.9287 926.136 -256.954 1323.2L-252.191 1325.25C-84.4689 931.206 226.641 919.031 495.445 908.504C726.685 899.463 926.896 891.618 979.937 645.545C1011.75 498.045 1167.85 487.88 1316.63 478.216C1444.35 469.912 1566.72 461.95 1603.14 368.43C1692.22 139.705 1765.56 106.613 1858.59 64.5951C1947.29 24.5422 2053.72 -23.5059 2207.81 -252.999C2220.12 -271.328 2221.28 -271.211 2222.82 -271.042C2225.58 -270.767 2228.95 -270.392 2241.31 -285.066L2237.34 -288.437Z" fill="#4F40AF"/>
</g>
<defs>
<clipPath id="clip0_1_87">
<rect width="2755" height="1206" fill="white" transform="translate(-482 141.341) rotate(-10.7811)"/>
</clipPath>
</defs>
</svg>
