<svg width="289" height="66" viewBox="0 0 289 66" fill="none" xmlns="http://www.w3.org/2000/svg">
<path d="M37.5622 0.98416L23.6842 27.0387L11.6816 4.48857L13.3695 0.781006L37.5622 0.98416Z" fill="#37AEE2"/>
<path d="M9.56456 5.95532L27.9904 40.2376H15.2845L0 21.0395L9.56456 5.95532Z" fill="#259EE2"/>
<path d="M41.8387 66.0002L60.3422 41.8458L54.4508 30.9053L48.0744 41.8756L37.6659 61.6323L41.8387 66.0002Z" fill="#5B93FF"/>
<path d="M77.6469 21.3884L61.3309 40.7896L48.625 17.3253L49.047 16.5635L73.8961 16.6143L77.6469 21.3884Z" fill="#3282C9"/>
<path d="M33.0426 62.9679L43.4511 43.2112H17.5237L33.0426 62.9679Z" fill="#003E9C"/>
<path d="M72.4165 14.1192L33.7832 14.0176L41.0035 0H63.7897L72.4165 14.1192Z" fill="#086E9F"/>
<path d="M100.821 33.6437C100.531 34.2932 100.293 35.0212 100.106 35.8277C99.9405 36.6342 99.7744 37.3622 99.6088 38.0117C99.5257 38.3257 99.3601 38.5606 99.1114 38.7176C98.8836 38.852 98.6244 38.9418 98.3345 38.9864C98.044 39.0537 97.754 39.0983 97.464 39.1209C97.1736 39.1434 96.9353 39.1881 96.7488 39.2553C96.5623 39.3225 96.3549 39.4236 96.1271 39.558C95.9198 39.7144 95.7126 39.8489 95.5053 39.9612C95.2981 40.0956 95.1012 40.1962 94.9147 40.2634C94.7489 40.3306 94.6246 40.3193 94.5416 40.2301C94.4587 40.1403 94.4484 39.9274 94.5106 39.5913C94.5727 39.2779 94.6763 38.9079 94.8214 38.4827C94.9665 38.0568 95.1323 37.6197 95.3188 37.1718C95.5261 36.7014 95.7229 36.2755 95.9095 35.8949C96.0338 35.626 96.1167 35.2674 96.1579 34.8195C96.1997 34.3491 96.2305 33.9571 96.2514 33.6437C96.2514 33.5313 96.2305 33.4308 96.1892 33.341C96.148 33.2291 96.1375 33.1168 96.1579 33.0049C96.1788 32.8931 96.241 32.7474 96.3449 32.5683C96.4693 32.3888 96.5727 32.2097 96.6553 32.0307C96.8005 31.6274 96.8836 31.1677 96.904 30.6526C96.9458 30.115 97.0283 29.6671 97.1527 29.3085C97.1945 29.1967 97.2462 29.0956 97.3084 29.0058C97.3914 28.8939 97.4536 28.7821 97.4949 28.6703C97.5362 28.5359 97.5466 28.3676 97.5257 28.166C97.5053 27.9643 97.4949 27.774 97.4949 27.595C97.4949 27.3035 97.5466 26.9788 97.6501 26.6202C97.7744 26.2395 97.8888 25.8809 97.9923 25.5448C98.0957 25.1862 98.1683 24.8502 98.2101 24.5367C98.2718 24.2007 98.2618 23.9093 98.1788 23.663C98.1166 23.327 98.0858 23.1028 98.0858 22.9909C98.0858 22.8791 98.0649 22.8006 98.0231 22.756C97.9196 22.6436 97.8784 22.5764 97.8988 22.5538C97.9405 22.5092 97.8988 22.442 97.7744 22.3527C97.6709 22.2404 97.5675 22.1506 97.464 22.0839C97.381 21.9941 97.2671 21.893 97.1218 21.7812C96.9975 21.6914 96.8627 21.6129 96.718 21.5462C96.5936 21.4564 96.521 21.3107 96.5001 21.1091C96.6866 20.9301 96.8423 20.8064 96.9667 20.7397C97.1114 20.672 97.2462 20.6387 97.3705 20.6387C97.4949 20.6161 97.6297 20.6274 97.7744 20.672C97.9196 20.6946 98.0957 20.7172 98.3031 20.7397C98.6553 20.7844 98.9661 20.7957 99.2357 20.7731C99.5257 20.7505 99.8784 20.7397 100.293 20.7397C100.562 20.7397 100.863 20.7731 101.194 20.8403C101.547 20.8849 101.857 20.9301 102.127 20.9747C102.396 21.0193 102.666 21.0306 102.935 21.0086C103.225 20.9634 103.484 20.9634 103.712 21.0086C103.899 21.0532 104.064 21.1091 104.21 21.1763C104.355 21.2209 104.531 21.2435 104.738 21.2435C105.318 21.2435 105.867 21.1763 106.386 21.0419C106.924 20.9075 107.432 20.8849 107.909 20.9747C108.075 21.0193 108.251 21.0752 108.437 21.143C108.645 21.2097 108.841 21.2774 109.028 21.3441C109.214 21.4118 109.349 21.4677 109.432 21.5124C109.536 21.5349 109.67 21.5796 109.836 21.6468C110.002 21.714 110.168 21.8258 110.333 21.9828C110.52 22.1172 110.706 22.2742 110.893 22.4533C111.183 22.6775 111.473 22.9124 111.764 23.1592C112.074 23.4055 112.282 23.7076 112.386 24.0663C112.427 24.1781 112.479 24.3577 112.541 24.6039C112.624 24.8502 112.665 25.0298 112.665 25.1416C112.686 25.433 112.613 25.7239 112.447 26.0153C112.613 26.2841 112.676 26.5863 112.634 26.9229C112.593 27.2363 112.489 27.5611 112.323 27.8971C112.178 28.2106 111.992 28.5133 111.764 28.8047C111.536 29.0956 111.328 29.3424 111.142 29.5434C110.831 29.8574 110.489 30.1376 110.116 30.3838C109.764 30.608 109.38 30.8317 108.966 31.0559C108.738 31.1677 108.52 31.3134 108.313 31.493C108.106 31.6495 107.909 31.7726 107.722 31.8624C107.619 31.907 107.557 31.9183 107.536 31.8963C107.536 31.8737 107.473 31.8737 107.349 31.8963C106.935 31.9855 106.531 32.1425 106.137 32.3662C105.743 32.5904 105.329 32.7587 104.894 32.8705C104.79 32.9151 104.676 32.9377 104.552 32.9377C104.427 32.9151 104.313 32.9151 104.21 32.9377C103.899 32.9823 103.588 33.0721 103.277 33.2066C102.987 33.3184 102.687 33.3969 102.375 33.4415C102.085 33.4867 101.816 33.5093 101.567 33.5093C101.339 33.5093 101.09 33.5539 100.821 33.6437ZM102.344 26.2841C102.261 26.5976 102.189 26.9116 102.127 27.225C102.085 27.5385 102.034 27.8525 101.971 28.166C101.93 28.3676 101.857 28.6025 101.753 28.8714C101.671 29.1402 101.598 29.409 101.536 29.6779C101.474 29.9247 101.453 30.1489 101.474 30.3499C101.495 30.5521 101.598 30.6865 101.785 30.7532C101.888 30.7758 101.982 30.7645 102.065 30.7199C102.168 30.6752 102.282 30.6414 102.407 30.6188C102.49 30.6188 102.572 30.6414 102.655 30.6865C102.759 30.7086 102.863 30.7086 102.966 30.6865C103.733 30.6188 104.437 30.4736 105.08 30.2494C105.743 30.0252 106.158 29.566 106.323 28.8714C106.407 28.8267 106.479 28.7934 106.541 28.7708C106.624 28.7262 106.717 28.681 106.821 28.6364C107.132 28.2778 107.391 27.7853 107.598 27.1578C107.826 26.5304 107.961 25.9594 108.002 25.4443C108.002 25.2647 107.93 25.0744 107.785 24.8728C107.66 24.6486 107.577 24.4808 107.536 24.369C107.494 24.2792 107.401 24.1894 107.256 24.1001C107.111 23.9878 106.945 23.8872 106.759 23.7974C106.572 23.6856 106.375 23.5958 106.168 23.5286C105.981 23.4614 105.837 23.4168 105.733 23.3942C105.505 23.3496 105.318 23.3603 105.174 23.4281C105.028 23.4727 104.852 23.506 104.645 23.5286C104.355 23.5512 104.085 23.5512 103.837 23.5286C103.588 23.506 103.37 23.5958 103.184 23.7974C103.121 24.2007 102.987 24.6152 102.78 25.0411C102.593 25.4443 102.448 25.8583 102.344 26.2841ZM125.349 21.2435C125.514 21.2882 125.68 21.3107 125.846 21.3107C126.012 21.3107 126.178 21.3333 126.343 21.3779C126.405 21.3779 126.468 21.4005 126.53 21.4452C126.592 21.4898 126.654 21.5237 126.716 21.5462C126.779 21.5683 126.841 21.5683 126.903 21.5462C126.965 21.5237 127.027 21.5237 127.089 21.5462C127.566 21.6806 127.949 21.893 128.239 22.1844C128.53 22.4533 128.82 22.7893 129.11 23.1926C129.234 23.4168 129.39 23.6856 129.576 23.9991C129.763 24.2905 129.919 24.6265 130.043 25.0072C130.167 25.3658 130.239 25.7465 130.26 26.1497C130.281 26.553 130.208 26.9562 130.043 27.3595C130.001 27.4713 129.939 27.617 129.856 27.796C129.773 27.953 129.69 28.1213 129.607 28.3004C129.483 28.5466 129.328 28.8047 129.141 29.0735C128.955 29.3424 128.758 29.5327 128.551 29.6445C128.385 29.7564 128.239 29.8574 128.115 29.9467C128.012 30.0365 127.877 30.1263 127.711 30.2155C127.421 30.3279 127.131 30.4957 126.841 30.7199C126.571 30.9215 126.292 31.0898 126.001 31.2242C125.898 31.2688 125.784 31.3021 125.659 31.3247C125.556 31.3247 125.452 31.3473 125.349 31.3919C125.203 31.4817 125.089 31.6049 125.006 31.7619C124.924 31.9183 124.768 32.0307 124.54 32.0974C125.059 32.2318 125.535 32.5458 125.97 33.0383C126.405 33.5093 126.737 34.0018 126.965 34.5168C127.068 34.8308 127.214 35.111 127.4 35.3572C127.587 35.6035 127.67 35.8836 127.649 36.1976C127.794 36.332 127.908 36.511 127.991 36.7352C128.095 36.9363 128.178 37.1605 128.239 37.4073C128.302 37.6536 128.354 37.9111 128.395 38.1799C128.457 38.4262 128.53 38.6504 128.612 38.852C128.737 39.1434 128.872 39.3784 129.017 39.558C129.162 39.7591 129.317 39.9386 129.483 40.0956C129.649 40.2747 129.815 40.4537 129.98 40.6333C130.146 40.8344 130.292 41.0812 130.416 41.3721C130.498 41.35 130.561 41.3161 130.602 41.2715C130.665 41.2489 130.747 41.2489 130.851 41.2715C131.162 41.5178 131.504 41.7086 131.877 41.8431C132.271 41.9775 132.747 42.0893 133.307 42.1786C133.783 42.2683 134.229 42.2909 134.644 42.2463C135.078 42.2237 135.524 42.1678 135.98 42.078C136.125 42.0554 136.301 41.9882 136.509 41.8764C136.737 41.7866 136.954 41.7086 137.161 41.6409C137.389 41.5742 137.586 41.5403 137.752 41.5403C137.918 41.5629 138.001 41.6861 138.001 41.9097C138.001 42.0667 137.908 42.2571 137.721 42.4813C137.535 42.7055 137.369 42.8732 137.224 42.9851C136.871 43.2539 136.467 43.4668 136.012 43.6238C135.555 43.7808 135.078 43.9039 134.581 43.9937C134.084 44.1055 133.576 44.184 133.058 44.2287C132.54 44.2733 132.053 44.3072 131.597 44.3292C131.307 44.3292 131.038 44.2733 130.789 44.1615C130.561 44.0717 130.353 44.0045 130.167 43.9598C129.752 43.8926 129.379 43.8141 129.048 43.7249C128.737 43.6351 128.436 43.5007 128.146 43.3216C127.898 43.1646 127.68 42.9404 127.493 42.6496C127.307 42.3807 127.048 42.2124 126.716 42.1452C126.178 41.6301 125.639 41.1032 125.1 40.5656C124.561 40.0505 124.136 39.401 123.826 38.6171C123.722 38.4149 123.608 38.2246 123.483 38.0455C123.359 37.8439 123.265 37.631 123.204 37.4073C123.141 37.2503 123.1 37.082 123.079 36.903C123.079 36.724 123.059 36.5223 123.017 36.2981C122.975 36.0519 122.913 35.7943 122.831 35.5255C122.748 35.2341 122.665 34.9653 122.582 34.719C122.561 34.6513 122.53 34.5846 122.489 34.5168C122.447 34.4502 122.416 34.3824 122.395 34.3158C122.354 34.1813 122.312 34.0243 122.271 33.8448C122.229 33.6437 122.157 33.4867 122.053 33.3748C121.95 33.2851 121.773 33.184 121.525 33.0721C121.297 32.9603 121.1 32.8818 120.934 32.8372C120.706 32.792 120.478 32.8033 120.25 32.8705C120.043 32.9377 119.846 32.9823 119.659 33.0049C119.39 33.0496 119.131 33.0608 118.883 33.0383C118.634 32.9936 118.426 33.0049 118.261 33.0721C117.971 33.184 117.733 33.4754 117.546 33.9458C117.36 34.4163 117.245 34.9093 117.204 35.4244C117.121 35.9395 116.996 36.4438 116.831 36.9363C116.665 37.4073 116.53 37.8665 116.426 38.3144C116.344 38.6058 116.209 38.8407 116.023 39.0203C115.836 39.2214 115.577 39.2999 115.246 39.2553C115.079 39.2327 114.945 39.2106 114.841 39.1881C114.758 39.1881 114.644 39.1434 114.5 39.0537C114.396 39.0983 114.209 39.1994 113.939 39.3558C113.691 39.5354 113.515 39.6585 113.411 39.7257C112.727 39.9499 112.333 39.8935 112.23 39.558C112.147 39.2214 112.189 38.6837 112.354 37.945C112.458 37.474 112.613 37.0148 112.82 36.567C113.049 36.1191 113.204 35.7379 113.287 35.4244C113.328 35.2228 113.339 35.0438 113.318 34.8868C113.318 34.7077 113.308 34.5394 113.287 34.3824C113.266 34.226 113.256 34.0915 113.256 33.9792C113.256 33.8448 113.297 33.7216 113.38 33.6098C113.401 33.3636 113.463 33.1727 113.566 33.0383C113.67 32.8818 113.743 32.6802 113.784 32.4339C113.826 32.2097 113.878 31.9742 113.939 31.728C114.002 31.4817 114.043 31.2462 114.064 31.022C114.085 30.7532 114.095 30.5069 114.095 30.2833C114.116 30.0365 114.188 29.7564 114.313 29.4429C114.416 29.1515 114.52 28.8606 114.624 28.5692C114.748 28.2557 114.831 27.953 114.873 27.6616C114.914 27.438 114.934 27.2137 114.934 26.9895C114.955 26.7433 115.007 26.5083 115.09 26.2841C115.131 26.1051 115.214 25.9594 115.339 25.8475C115.484 25.7352 115.577 25.5895 115.619 25.4104C115.639 25.276 115.629 25.1529 115.587 25.0411C115.546 24.9287 115.546 24.8168 115.587 24.7045C115.712 24.2566 115.753 23.9093 115.712 23.663C115.67 23.3942 115.598 23.1813 115.494 23.0248C115.411 22.8452 115.328 22.6775 115.246 22.5205C115.183 22.3635 115.183 22.1506 115.246 21.8817C115.349 21.8597 115.442 21.7699 115.525 21.6129C115.608 21.4339 115.722 21.322 115.867 21.2774C115.95 21.2548 116.106 21.2435 116.333 21.2435C116.561 21.2209 116.81 21.2097 117.079 21.2097C117.349 21.1876 117.608 21.1876 117.857 21.2097C118.106 21.2097 118.302 21.2097 118.447 21.2097C118.613 21.2322 118.82 21.2322 119.069 21.2097C119.318 21.165 119.577 21.143 119.846 21.143C120.116 21.1204 120.364 21.1091 120.593 21.1091C120.841 21.1091 121.048 21.1537 121.214 21.2435H125.349ZM120.623 29.8123C120.789 29.8123 120.945 29.7677 121.09 29.6779C121.256 29.5886 121.411 29.566 121.556 29.6112C121.763 29.6558 121.97 29.6892 122.178 29.7117C122.385 29.7343 122.613 29.7677 122.862 29.8123C122.965 29.8349 123.069 29.8236 123.172 29.7789C123.276 29.7343 123.411 29.723 123.577 29.7456C123.908 29.4768 124.199 29.2746 124.447 29.1402C124.716 29.0058 124.965 28.737 125.193 28.3337C125.297 28.1326 125.411 27.9417 125.535 27.7627C125.659 27.5611 125.742 27.3928 125.784 27.2584C125.929 26.7433 125.908 26.3067 125.722 25.9481C125.535 25.5674 125.359 25.2314 125.193 24.94C124.986 24.6039 124.789 24.369 124.602 24.2346C124.416 24.0776 124.105 24.0216 123.67 24.0663C123.318 24.0888 122.955 24.0888 122.582 24.0663C122.209 24.0216 121.846 24.0103 121.494 24.0324C121.162 24.055 120.862 24.1222 120.593 24.2346C120.323 24.3464 120.126 24.548 120.002 24.8389C119.898 25.1755 119.774 25.5448 119.629 25.9481C119.483 26.3513 119.349 26.7659 119.225 27.1917C119.1 27.595 118.996 28.009 118.913 28.4348C118.831 28.8606 118.789 29.2746 118.789 29.6779C119.1 29.6332 119.411 29.6558 119.722 29.7456C120.032 29.8123 120.333 29.8349 120.623 29.8123ZM148.353 24.1335C148.56 24.5813 148.715 24.9959 148.819 25.3765C148.923 25.7578 149.005 26.2728 149.068 26.9229C149.109 27.3707 149.15 27.774 149.192 28.1326C149.254 28.4681 149.264 28.8939 149.223 29.409C149.202 29.7677 149.15 30.1489 149.068 30.5521C148.985 30.9328 148.881 31.2909 148.757 31.6274C148.571 32.2318 148.394 32.7587 148.228 33.2066C148.063 33.6544 147.866 34.1362 147.637 34.6513C147.493 34.9427 147.347 35.1782 147.203 35.3572C147.057 35.5363 146.902 35.7266 146.736 35.9288C146.695 35.9954 146.653 36.0739 146.612 36.1637C146.591 36.2535 146.55 36.332 146.487 36.3987C146.218 36.7352 145.845 37.082 145.368 37.4407C144.912 37.7993 144.487 38.0568 144.094 38.2138C143.949 38.2584 143.793 38.2918 143.627 38.3144C143.482 38.3144 143.327 38.3369 143.161 38.3816C142.954 38.4714 142.778 38.6058 142.633 38.7848C142.487 38.9418 142.301 39.0537 142.073 39.1209C141.949 39.1655 141.793 39.1994 141.607 39.2214C141.441 39.2666 141.275 39.3112 141.11 39.3558C140.695 39.4682 140.177 39.58 139.555 39.6924C138.954 39.8042 138.394 39.7929 137.877 39.6585C137.794 39.6359 137.711 39.5913 137.628 39.5241C137.545 39.4569 137.451 39.401 137.348 39.3558C137.245 39.3112 137.141 39.2779 137.037 39.2553C136.934 39.2327 136.84 39.1994 136.758 39.1547C136.488 39.0424 136.229 38.8859 135.98 38.6837C135.731 38.4827 135.472 38.3257 135.203 38.2138C134.913 38.0342 134.623 37.8772 134.332 37.7428C134.042 37.5864 133.845 37.3175 133.742 36.9363C133.39 36.8245 133.141 36.567 132.996 36.1637C132.851 35.7605 132.675 35.4018 132.467 35.0884C132.405 34.9765 132.312 34.8868 132.188 34.8195C132.084 34.7298 132.012 34.6292 131.97 34.5168C131.825 34.2706 131.711 33.8786 131.628 33.341C131.545 32.7807 131.493 32.3103 131.472 31.9296C131.452 31.5264 131.472 31.1457 131.535 30.7871C131.618 30.4064 131.701 30.0365 131.784 29.6779C131.887 29.3198 131.991 28.9724 132.094 28.6364C132.218 28.3004 132.322 27.9756 132.405 27.6616C132.488 27.281 132.644 26.9788 132.872 26.7546C133.099 26.5304 133.317 26.2841 133.525 26.0153C133.607 25.9255 133.669 25.825 133.711 25.7131C133.752 25.6008 133.815 25.4889 133.898 25.3765C134.063 25.1529 134.25 24.9625 134.457 24.8056C134.664 24.6265 134.861 24.4469 135.048 24.2679C135.255 24.0888 135.472 23.9206 135.7 23.7636C135.928 23.5845 136.115 23.4055 136.26 23.2259C136.426 22.9796 136.55 22.7334 136.633 22.4871C136.737 22.2404 136.892 22.0274 137.099 21.8484C137.327 21.6468 137.576 21.5011 137.845 21.4118C138.135 21.322 138.467 21.2209 138.84 21.1091C139.192 21.0193 139.535 20.8962 139.866 20.7397C140.218 20.5602 140.591 20.4483 140.985 20.4032C141.358 20.3585 141.762 20.3365 142.198 20.3365C142.633 20.3139 143.057 20.3252 143.472 20.3698C143.907 20.4144 144.311 20.4929 144.684 20.6053C145.078 20.7172 145.42 20.8741 145.711 21.0752C145.855 21.165 146.001 21.2994 146.145 21.4785C146.311 21.6581 146.467 21.8258 146.612 21.9828C146.944 22.3414 147.223 22.7108 147.451 23.0915C147.7 23.4501 148.001 23.7974 148.353 24.1335ZM141.576 22.6216C141.493 22.6216 141.368 22.6549 141.203 22.7221C141.057 22.7893 140.902 22.8678 140.737 22.9571C140.591 23.0248 140.457 23.1028 140.332 23.1926C140.208 23.2823 140.115 23.3496 140.052 23.3942C139.804 23.6404 139.576 23.9544 139.369 24.3351C139.182 24.6937 138.964 25.0185 138.716 25.3099C138.612 25.4217 138.498 25.511 138.374 25.5787C138.27 25.6233 138.187 25.6905 138.125 25.7798C137.773 26.2056 137.514 26.6987 137.348 27.2584C137.203 27.8186 137.048 28.3563 136.882 28.8714C136.695 29.409 136.519 30.0144 136.353 30.6865C136.188 31.3586 136.136 31.9968 136.198 32.6017C136.218 32.7361 136.26 32.9151 136.322 33.1393C136.405 33.341 136.478 33.5313 136.54 33.7103C136.623 33.9125 136.695 34.1136 136.758 34.3158C136.84 34.4948 136.923 34.6625 137.006 34.8195C137.131 35.0884 137.286 35.3798 137.472 35.6933C137.68 35.9847 137.908 36.2422 138.156 36.4664C138.426 36.6675 138.716 36.8245 139.027 36.9363C139.358 37.0261 139.711 37.0148 140.084 36.903C140.311 36.8132 140.591 36.6788 140.923 36.4997C141.254 36.2981 141.555 36.1078 141.824 35.9288C142.218 35.6599 142.498 35.3911 142.664 35.1223C142.83 34.8308 142.995 34.4609 143.161 34.0131C143.203 33.9012 143.254 33.8001 143.317 33.7103C143.4 33.5985 143.472 33.4867 143.534 33.3748C143.658 33.1281 143.762 32.8592 143.845 32.5683C143.928 32.2769 144.031 31.9968 144.156 31.728C144.404 31.1231 144.56 30.5408 144.622 29.9806C144.684 29.4203 144.736 28.7482 144.777 27.9643C144.798 27.5385 144.768 27.225 144.684 27.0234C144.622 26.8218 144.571 26.5417 144.529 26.183C144.508 25.9368 144.498 25.7131 144.498 25.511C144.498 25.2873 144.457 25.097 144.374 24.94C144.27 24.7383 144.073 24.6039 143.783 24.5367C143.514 24.4695 143.296 24.3464 143.13 24.1668C142.964 23.8759 142.788 23.5958 142.602 23.327C142.415 23.0581 142.187 22.8339 141.917 22.6549C141.814 22.6775 141.741 22.6775 141.7 22.6549C141.659 22.6323 141.617 22.6216 141.576 22.6216ZM163.368 25.6793C163.658 26.0825 163.73 26.497 163.585 26.9229C163.44 27.3261 163.202 27.6283 162.87 27.8299C162.787 27.8745 162.704 27.9084 162.622 27.9305C162.539 27.9305 162.445 27.953 162.342 27.9982C162.134 28.11 161.958 28.2557 161.813 28.4348C161.689 28.5918 161.544 28.6923 161.378 28.737C161.212 28.7595 161.015 28.7482 160.787 28.7036C160.58 28.6364 160.363 28.5805 160.135 28.5359C159.658 28.4907 159.14 28.4794 158.58 28.502C158.041 28.5246 157.533 28.5359 157.057 28.5359C156.643 28.5359 156.27 28.5133 155.938 28.4681C155.606 28.4014 155.327 28.2778 155.098 28.0987C154.601 28.2557 154.073 28.3902 153.513 28.502C152.953 28.6138 152.394 28.6364 151.834 28.5692C151.482 28.5246 151.14 28.4348 150.809 28.3004C150.497 28.166 150.187 28.0987 149.876 28.0987C149.834 27.8299 149.845 27.595 149.907 27.3928C149.99 27.1691 150.094 26.9675 150.218 26.7885C150.342 26.5863 150.467 26.4073 150.591 26.2508C150.715 26.0938 150.829 25.9255 150.933 25.7465C151.14 25.6567 151.347 25.612 151.555 25.612C151.783 25.5895 152 25.6008 152.207 25.6454C152.435 25.668 152.664 25.7018 152.891 25.7465C153.119 25.7911 153.357 25.8024 153.606 25.7798C153.73 25.7798 153.845 25.7578 153.948 25.7131C154.073 25.6454 154.197 25.612 154.321 25.612C154.529 25.5895 154.736 25.5895 154.943 25.612C155.15 25.612 155.368 25.612 155.596 25.612C155.803 25.612 156.021 25.6008 156.249 25.5787C156.497 25.5561 156.673 25.5674 156.777 25.612C156.922 25.6346 157.046 25.7018 157.15 25.8137C157.275 25.9255 157.409 25.982 157.554 25.982C157.658 25.982 157.751 25.9481 157.834 25.8809C157.938 25.7911 158.062 25.7239 158.207 25.6793C158.373 25.6346 158.57 25.612 158.798 25.612C159.046 25.5895 159.285 25.5787 159.513 25.5787C159.741 25.5787 159.958 25.5787 160.166 25.5787C160.373 25.5787 160.539 25.5674 160.663 25.5448C161.119 25.5002 161.564 25.5002 162 25.5448C162.435 25.5895 162.891 25.6346 163.368 25.6793ZM164.984 36.7686C165.129 36.41 165.253 36.0739 165.357 35.7605C165.461 35.4244 165.596 35.0545 165.761 34.6513C165.844 34.4276 165.906 34.1921 165.948 33.9458C165.989 33.6996 166.062 33.4528 166.165 33.2066C166.269 33.0049 166.393 32.8033 166.538 32.6017C166.704 32.4001 166.829 32.1759 166.911 31.9296C167.036 31.5489 167.046 31.1231 166.942 30.6526C166.839 30.1596 166.849 29.6671 166.974 29.1741C167.077 28.7036 167.191 28.2444 167.316 27.796C167.461 27.3261 167.554 26.9116 167.596 26.553C167.637 26.3067 167.657 26.0599 167.657 25.8137C167.657 25.5448 167.678 25.276 167.72 25.0072C167.761 24.7158 167.844 24.4356 167.969 24.1668C168.093 23.8759 168.165 23.6071 168.186 23.3603C168.227 22.8452 168.113 22.3861 167.844 21.9828C167.596 21.557 167.336 21.1989 167.067 20.9075C167.088 20.7731 167.15 20.672 167.253 20.6053C167.378 20.5155 167.471 20.4817 167.533 20.5042C167.782 20.5489 168.062 20.6387 168.372 20.7731C168.683 20.9075 168.984 20.9973 169.274 21.0419C169.522 21.0865 169.792 21.0865 170.083 21.0419C170.393 20.9973 170.714 20.9973 171.046 21.0419C171.398 21.0865 171.823 21.1317 172.321 21.1763C172.818 21.2209 173.305 21.2435 173.782 21.2435C174.32 21.2661 174.839 21.2548 175.336 21.2097C175.833 21.165 176.32 21.1763 176.797 21.2435C177.149 21.2882 177.471 21.3892 177.761 21.5462C178.051 21.7027 178.372 21.7586 178.724 21.714C179.015 22.0726 179.346 22.3527 179.719 22.5538C180.113 22.7334 180.465 22.9684 180.776 23.2598C181.211 23.6404 181.584 24.1001 181.895 24.6378C182.206 25.1529 182.579 25.6008 183.015 25.982C183.015 26.161 183.056 26.3288 183.139 26.4858C183.221 26.6428 183.273 26.8218 183.294 27.0234C183.294 27.1353 183.273 27.2697 183.232 27.4267C183.191 27.5611 183.17 27.6955 183.17 27.8299C183.191 28.0315 183.253 28.1993 183.356 28.3337C183.46 28.4461 183.501 28.6251 183.481 28.8714C183.46 29.6558 183.273 30.4284 182.921 31.1903C182.569 31.9522 182.216 32.6243 181.864 33.2066C181.636 33.2291 181.47 33.3297 181.367 33.5093C181.284 33.6883 181.17 33.8899 181.025 34.1136C180.818 34.4276 180.569 34.6964 180.279 34.9201C180.009 35.1223 179.761 35.3798 179.533 35.6933C179.077 35.8723 178.652 36.1078 178.258 36.3987C177.885 36.6901 177.46 36.9589 176.983 37.2052C176.818 37.295 176.642 37.3847 176.455 37.474C176.289 37.5417 176.123 37.6197 175.958 37.7095C175.75 37.7767 175.554 37.8552 175.367 37.945C175.181 38.0342 175.004 38.1014 174.839 38.1461C174.714 38.1912 174.579 38.2025 174.435 38.1799C174.31 38.1574 174.186 38.1687 174.062 38.2138C173.792 38.2805 173.533 38.4042 173.284 38.5832C173.035 38.7402 172.787 38.8407 172.538 38.8859C172.248 38.9305 171.958 38.9079 171.668 38.8182C171.378 38.7289 171.098 38.6504 170.829 38.5832C170.476 38.6278 170.124 38.6504 169.771 38.6504C169.419 38.6278 169.056 38.6058 168.683 38.5832C168.31 38.5606 167.916 38.5606 167.502 38.5832C167.088 38.6058 166.642 38.6617 166.165 38.7515C166.041 38.7735 165.906 38.8182 165.761 38.8859C165.637 38.9526 165.513 38.9977 165.388 39.0203C165.16 39.0649 164.901 39.087 164.611 39.087C164.342 39.087 164.083 39.087 163.834 39.087C163.73 39.087 163.606 39.0762 163.461 39.0537C163.316 39.0537 163.181 39.0424 163.056 39.0203C162.912 38.9977 162.787 38.9526 162.683 38.8859C162.58 38.8407 162.518 38.7735 162.497 38.6837C162.476 38.5493 162.518 38.4375 162.622 38.3482C162.704 38.2359 162.818 38.1461 162.963 38.0794C163.088 37.9896 163.223 37.9224 163.368 37.8772C163.513 37.8106 163.626 37.7541 163.709 37.7095C163.958 37.5525 164.176 37.3847 164.363 37.2052C164.528 37.0041 164.736 36.8584 164.984 36.7686ZM173.253 23.7636C173.087 23.9431 172.963 24.1561 172.88 24.4023C172.818 24.6486 172.755 24.9174 172.694 25.2088C172.652 25.4776 172.611 25.7578 172.569 26.0486C172.528 26.34 172.465 26.6202 172.382 26.889C172.3 27.068 172.217 27.2476 172.134 27.4267C172.051 27.5837 171.989 27.7514 171.948 27.9305C171.844 28.3563 171.782 28.7708 171.761 29.1741C171.74 29.5773 171.678 30.0032 171.575 30.451C171.533 30.6973 171.45 30.9441 171.326 31.1903C171.222 31.4145 171.149 31.6495 171.108 31.8963C171.067 32.1425 171.067 32.3775 171.108 32.6017C171.149 32.8259 171.149 33.0608 171.108 33.3071C171.067 33.4867 171.005 33.6544 170.922 33.8114C170.859 33.9684 170.808 34.1362 170.766 34.3158C170.662 34.9201 170.766 35.3685 171.077 35.6599C171.388 35.9288 171.761 36.1191 172.196 36.2309C172.942 36.41 173.626 36.3653 174.248 36.0965C174.89 35.8051 175.398 35.4803 175.771 35.1223C176.041 34.7857 176.32 34.4276 176.61 34.0469C176.901 33.6437 177.128 33.2066 177.295 32.7361C177.356 32.5571 177.419 32.3216 177.481 32.0307C177.543 31.7167 177.615 31.4145 177.698 31.1231C177.761 30.8769 177.833 30.6526 177.916 30.451C178.02 30.2268 178.102 30.0032 178.165 29.7789C178.393 29.1967 178.475 28.5805 178.414 27.9305C178.372 27.2584 178.268 26.732 178.102 26.3513C178.041 26.2169 177.937 26.0712 177.792 25.9142C177.668 25.7578 177.543 25.6008 177.419 25.4443C177.274 25.2647 177.139 25.0857 177.015 24.9066C176.911 24.7271 176.818 24.5926 176.735 24.5034C176.445 24.212 176.092 24.0103 175.678 23.898C175.284 23.7636 174.922 23.5512 174.59 23.2598C174.238 23.2823 173.979 23.3496 173.813 23.4614C173.647 23.5732 173.46 23.6743 173.253 23.7636ZM199.863 23.0915C199.304 23.3829 198.744 23.5286 198.185 23.5286C197.625 23.5286 197.003 23.506 196.32 23.4614C196.133 23.4614 195.926 23.4727 195.698 23.4947C195.491 23.5173 195.294 23.5399 195.107 23.5625C194.133 23.6743 193.314 24.0776 192.651 24.7722C191.988 25.4443 191.501 26.2954 191.19 27.3261C191.087 27.7068 191.004 28.0541 190.941 28.3676C190.879 28.681 191.014 28.8606 191.346 28.9052C191.553 28.9499 191.76 28.9499 191.968 28.9052C192.174 28.8606 192.382 28.8047 192.589 28.737C192.817 28.6477 193.034 28.5692 193.242 28.502C193.449 28.4348 193.656 28.4015 193.864 28.4015C193.947 28.4015 194.019 28.4235 194.081 28.4681C194.164 28.5133 194.247 28.5359 194.33 28.5359C194.682 28.5805 195.055 28.5579 195.449 28.4681C195.843 28.3563 196.205 28.345 196.537 28.4348C196.599 28.4574 196.651 28.502 196.693 28.5692C196.754 28.6138 196.837 28.659 196.941 28.7036C197.21 28.8155 197.532 28.894 197.905 28.9391C198.278 28.9612 198.578 29.0284 198.807 29.1402C198.91 29.1854 199.014 29.2746 199.117 29.409C199.221 29.5214 199.273 29.5999 199.273 29.6445C199.273 29.8908 199.138 30.0478 198.868 30.115C198.599 30.1822 198.371 30.2268 198.185 30.2494C198.019 30.272 197.853 30.272 197.687 30.2494C197.521 30.2268 197.356 30.2381 197.19 30.2833C196.9 30.3279 196.62 30.3951 196.35 30.4844C196.081 30.5521 195.791 30.6414 195.48 30.7532C195.128 30.8876 194.796 31.0559 194.485 31.2575C194.174 31.4366 193.833 31.5489 193.46 31.5936C193.19 31.6382 192.931 31.6382 192.682 31.5936C192.434 31.5489 192.164 31.5489 191.874 31.5936C191.771 31.6161 191.667 31.6495 191.563 31.6941C191.48 31.7393 191.387 31.7726 191.283 31.7952C191.097 31.8398 190.952 31.8737 190.848 31.8963C190.765 31.8963 190.693 31.9183 190.631 31.9629C190.589 32.0081 190.537 32.0753 190.475 32.1651C190.434 32.2544 190.361 32.3888 190.257 32.5683C190.092 32.9716 189.988 33.4082 189.947 33.8786C189.905 34.3265 189.864 34.8083 189.822 35.3233C190.05 35.5701 190.268 35.7718 190.475 35.9288C190.682 36.0632 191.004 36.1298 191.439 36.1298C191.667 36.1298 191.843 36.1078 191.968 36.0632C192.112 35.9954 192.299 35.9508 192.527 35.9288C192.755 35.9288 192.983 35.9508 193.211 35.9954C193.439 36.018 193.698 36.018 193.988 35.9954C194.589 35.9508 195.097 35.8723 195.511 35.7605C195.926 35.626 196.434 35.5814 197.034 35.626C197.159 35.626 197.376 35.6373 197.687 35.6599C198.019 35.682 198.35 35.7158 198.682 35.7605C199.013 35.783 199.304 35.8277 199.553 35.8949C199.822 35.9621 199.957 36.0519 199.957 36.1637C199.957 36.2981 199.873 36.4438 199.708 36.6008C199.563 36.7352 199.387 36.8697 199.18 37.0041C198.993 37.1159 198.796 37.2165 198.589 37.3062C198.402 37.3735 198.278 37.4181 198.216 37.4407C197.864 37.5525 197.521 37.5864 197.19 37.5417C196.858 37.474 196.496 37.4632 196.102 37.5079C195.812 37.5525 195.553 37.6197 195.325 37.7095C195.097 37.7993 194.869 37.8998 194.64 38.0117C194.413 38.1014 194.174 38.2025 193.926 38.3144C193.698 38.4042 193.428 38.4601 193.117 38.4827C192.703 38.5273 192.351 38.5832 192.061 38.6504C191.771 38.695 191.428 38.7622 191.034 38.852C190.869 38.8967 190.714 38.9418 190.568 38.9864C190.423 39.0537 190.268 39.1096 190.102 39.1547C189.501 39.2892 188.848 39.3112 188.144 39.2214C187.46 39.1547 186.714 39.1655 185.905 39.2553C185.387 39.3225 184.921 39.401 184.507 39.4902C184.113 39.6026 183.708 39.6359 183.294 39.5913C183.149 39.5687 183.015 39.5467 182.89 39.5241C182.745 39.5241 182.621 39.4682 182.517 39.3558C182.558 39.1768 182.651 39.0203 182.797 38.8859C182.942 38.7515 183.087 38.6278 183.232 38.516C183.377 38.3816 183.512 38.2472 183.636 38.1127C183.781 37.9557 183.916 37.8106 184.04 37.6762C184.165 37.4966 184.268 37.2837 184.351 37.0374C184.434 36.7686 184.507 36.4997 184.568 36.2309C184.651 35.9621 184.735 35.7158 184.817 35.4916C184.921 35.2454 185.045 35.0325 185.19 34.8534C185.024 34.4502 185.024 33.9905 185.19 33.4754C185.377 32.9603 185.543 32.4226 185.688 31.8624C185.729 31.728 185.75 31.5936 185.75 31.4591C185.75 31.3247 185.771 31.2016 185.812 31.0898C185.854 30.8656 185.947 30.6752 186.092 30.5182C186.237 30.3392 186.33 30.1596 186.372 29.9806C186.392 29.8687 186.392 29.7564 186.372 29.6445C186.372 29.5327 186.382 29.4203 186.403 29.3085C186.444 28.9724 186.517 28.659 186.621 28.3676C186.745 28.0541 186.828 27.774 186.869 27.5272C186.911 27.3482 186.911 27.1691 186.869 26.9895C186.848 26.7885 186.848 26.5976 186.869 26.4185C186.911 25.9707 186.994 25.5448 187.118 25.1416C187.263 24.7383 187.346 24.3797 187.367 24.0663C187.387 23.82 187.356 23.5512 187.273 23.2598C187.19 22.9684 187.108 22.7447 187.024 22.5877C186.962 22.4759 186.869 22.3635 186.745 22.2516C186.621 22.1172 186.496 21.9941 186.372 21.8817C186.248 21.7699 186.133 21.6694 186.03 21.5796C185.947 21.4677 185.905 21.3667 185.905 21.2774C185.926 21.0306 186.019 20.9075 186.185 20.9075C186.351 20.8849 186.506 20.8064 186.651 20.672C187.398 20.6946 188.102 20.7844 188.765 20.9408C189.449 21.0978 190.154 21.1989 190.879 21.2435C191.149 21.2882 191.428 21.2882 191.719 21.2435C192.009 21.1763 192.288 21.1317 192.558 21.1091C192.993 21.0865 193.48 21.1537 194.019 21.3107C194.579 21.4677 195.128 21.5236 195.667 21.4785C196.392 21.4339 197.076 21.4118 197.718 21.4118C198.361 21.4118 199.034 21.3892 199.739 21.3441C199.863 21.4564 200.05 21.5124 200.299 21.5124C200.547 21.4898 200.796 21.4677 201.045 21.4452C201.314 21.4005 201.552 21.3892 201.76 21.4118C201.987 21.4339 202.143 21.5349 202.226 21.714C202.35 22.0274 202.33 22.2963 202.164 22.5205C201.998 22.7447 201.77 22.8904 201.48 22.9571C201.397 22.9571 201.283 22.9684 201.138 22.9909C200.993 23.0135 200.837 23.0356 200.672 23.0581C200.506 23.0807 200.34 23.0915 200.174 23.0915C200.029 23.0915 199.926 23.0915 199.863 23.0915ZM209.625 34.0469C209.935 33.8448 210.174 33.5759 210.339 33.2404C210.526 32.8818 210.723 32.5458 210.93 32.2318C211.158 31.9409 211.386 31.6608 211.614 31.3919C211.842 31.1231 212.059 30.8317 212.267 30.5182C212.288 30.3838 212.298 30.3053 212.298 30.2833C212.319 30.2607 212.329 30.2494 212.329 30.2494C212.35 30.2268 212.36 30.2048 212.36 30.1822C212.381 30.1596 212.412 30.0924 212.453 29.9806C212.723 29.8015 212.982 29.5999 213.231 29.3757C213.5 29.1294 213.573 28.737 213.448 28.1993C213.593 27.8858 213.728 27.6283 213.853 27.4267C213.977 27.2025 214.101 27.0008 214.226 26.8218C214.37 26.6202 214.505 26.4185 214.629 26.2169C214.775 25.9927 214.93 25.7352 215.096 25.4443C215.386 25.3991 215.562 25.2421 215.624 24.9733C215.686 24.6824 215.769 24.391 215.873 24.1001C215.976 23.8534 216.091 23.6184 216.215 23.3942C216.339 23.17 216.453 22.9571 216.557 22.756C216.702 22.5318 216.837 22.3189 216.961 22.1172C217.086 21.9156 217.22 21.7366 217.365 21.5796C217.427 21.3333 217.541 21.0645 217.707 20.7731C217.873 20.4817 218.07 20.2241 218.298 19.9999C218.546 19.7762 218.816 19.6305 219.106 19.5633C219.417 19.4735 219.738 19.5074 220.07 19.6644C220.256 19.7537 220.422 19.9332 220.567 20.2021C220.733 20.4709 220.826 20.7284 220.847 20.9747C220.847 21.3779 220.722 21.7699 220.474 22.1506C220.225 22.5318 220.049 22.8565 219.946 23.1254C219.966 23.327 219.935 23.506 219.852 23.663C219.769 23.82 219.665 23.9657 219.541 24.1001C219.417 24.2346 219.292 24.3577 219.168 24.4695C219.044 24.5813 218.951 24.7045 218.888 24.8389C218.639 25.0631 218.443 25.2534 218.298 25.4104C218.173 25.5448 217.966 25.7239 217.676 25.9481C217.489 26.1271 217.344 26.3175 217.241 26.5196C217.137 26.7207 217.054 26.9449 216.992 27.1917C216.93 27.4154 216.868 27.6616 216.806 27.9305C216.743 28.1993 216.65 28.4794 216.525 28.7708C216.339 29.2187 216.091 29.6219 215.779 29.9806C215.469 30.3166 215.199 30.6973 214.972 31.1231C214.702 31.571 214.526 32.0081 214.443 32.4339C214.381 32.8372 214.215 33.2625 213.946 33.7103C213.862 33.8673 213.759 34.0243 213.635 34.1813C213.51 34.3158 213.396 34.4609 213.292 34.6179C212.899 35.1782 212.495 35.7379 212.08 36.2981C211.686 36.8584 211.345 37.474 211.054 38.1461C210.93 38.1687 210.816 38.2472 210.713 38.3816C210.629 38.516 210.536 38.6391 210.433 38.7515C210.371 38.7961 210.288 38.8294 210.184 38.852C210.08 38.8967 209.987 38.9418 209.904 38.9864C209.78 39.0983 209.666 39.2106 209.562 39.3225C209.459 39.4343 209.293 39.5354 209.065 39.6246C208.899 39.6698 208.702 39.7031 208.474 39.7257C208.267 39.7704 208.101 39.7816 207.977 39.7591C207.645 39.6924 207.345 39.4569 207.075 39.0537C206.806 38.673 206.62 38.2918 206.516 37.9111C206.184 37.5977 205.946 37.239 205.801 36.8358C205.656 36.41 205.542 35.9175 205.459 35.3572C205.438 35.2454 205.428 35.1443 205.428 35.0545C205.449 34.9653 205.459 34.8642 205.459 34.7523C205.438 34.5281 205.376 34.3045 205.273 34.0803C205.169 33.834 205.055 33.5872 204.93 33.341C204.806 33.0947 204.692 32.8479 204.588 32.6017C204.485 32.3329 204.433 32.0753 204.433 31.8285C204.433 31.6049 204.443 31.3806 204.464 31.1564C204.485 30.9328 204.474 30.6973 204.433 30.451C204.392 30.2268 204.309 30.0365 204.184 29.88C204.081 29.7004 204.019 29.4542 203.998 29.1402C203.977 28.9612 203.946 28.7262 203.905 28.4348C203.884 28.1213 203.853 27.8073 203.811 27.4939C203.79 27.1578 203.77 26.8444 203.749 26.553C203.728 26.2395 203.708 26.004 203.687 25.8475C203.646 25.3991 203.542 24.9066 203.376 24.369C203.21 23.8087 203.086 23.3383 203.003 22.9571C202.962 22.7334 202.941 22.442 202.941 22.0839C202.941 21.7253 202.951 21.5124 202.972 21.4452C203.013 21.2661 203.138 21.0978 203.345 20.9408C203.573 20.7618 203.78 20.672 203.966 20.672C204.153 20.672 204.309 20.7397 204.433 20.8742C204.557 21.0086 204.723 21.1091 204.93 21.1763C205.096 21.2209 205.231 21.2548 205.334 21.2774C205.438 21.2994 205.604 21.3107 205.832 21.3107C206.039 21.2882 206.246 21.3107 206.453 21.3779C206.682 21.4452 206.879 21.5011 207.044 21.5462C207.396 21.6581 207.656 21.9269 207.821 22.3527C207.987 22.778 208.039 23.2485 207.977 23.7636C207.936 23.9657 207.915 24.1894 207.915 24.4356C207.915 24.6824 207.884 24.9066 207.821 25.1077C207.78 25.2647 207.79 25.4104 207.853 25.5448C207.936 25.6567 207.966 25.7798 207.946 25.9142C207.946 26.0486 207.966 26.2615 208.008 26.553C208.05 26.8218 208.101 27.124 208.163 27.4605C208.226 27.774 208.288 28.0762 208.35 28.3676C208.412 28.659 208.464 28.8714 208.506 29.0058C208.588 29.2972 208.702 29.5773 208.847 29.8462C208.993 30.0924 209.065 30.3392 209.065 30.5854C209.065 30.7199 209.044 30.8543 209.003 30.9887C208.961 31.1005 208.94 31.2129 208.94 31.3247C208.899 31.885 208.94 32.3888 209.065 32.8372C209.21 33.2625 209.396 33.6657 209.625 34.0469ZM234.836 23.0915C234.276 23.3829 233.717 23.5286 233.157 23.5286C232.598 23.5286 231.976 23.506 231.292 23.4614C231.105 23.4614 230.898 23.4727 230.67 23.4947C230.463 23.5173 230.266 23.5399 230.079 23.5625C229.105 23.6743 228.287 24.0776 227.624 24.7722C226.961 25.4443 226.473 26.2954 226.163 27.3261C226.059 27.7068 225.976 28.0541 225.914 28.3676C225.851 28.681 225.986 28.8606 226.318 28.9052C226.525 28.9499 226.732 28.9499 226.94 28.9052C227.147 28.8606 227.354 28.8047 227.561 28.737C227.789 28.6477 228.007 28.5692 228.214 28.502C228.421 28.4348 228.629 28.4015 228.836 28.4015C228.919 28.4015 228.991 28.4235 229.054 28.4681C229.137 28.5133 229.219 28.5359 229.302 28.5359C229.654 28.5805 230.028 28.5579 230.421 28.4681C230.815 28.3563 231.178 28.345 231.51 28.4348C231.571 28.4574 231.624 28.502 231.665 28.5692C231.727 28.6138 231.81 28.659 231.914 28.7036C232.183 28.8155 232.505 28.894 232.878 28.9391C233.251 28.9612 233.551 29.0284 233.779 29.1402C233.882 29.1854 233.986 29.2746 234.09 29.409C234.193 29.5214 234.245 29.5999 234.245 29.6445C234.245 29.8908 234.111 30.0478 233.841 30.115C233.571 30.1822 233.344 30.2268 233.157 30.2494C232.991 30.272 232.825 30.272 232.66 30.2494C232.494 30.2268 232.328 30.2381 232.162 30.2833C231.872 30.3279 231.592 30.3951 231.323 30.4844C231.054 30.5521 230.764 30.6414 230.452 30.7532C230.1 30.8876 229.769 31.0559 229.458 31.2575C229.147 31.4366 228.805 31.5489 228.432 31.5936C228.162 31.6382 227.904 31.6382 227.655 31.5936C227.406 31.5489 227.137 31.5489 226.846 31.5936C226.743 31.6161 226.639 31.6495 226.536 31.6941C226.453 31.7393 226.359 31.7726 226.256 31.7952C226.069 31.8398 225.924 31.8737 225.821 31.8963C225.738 31.8963 225.665 31.9183 225.603 31.9629C225.562 32.0081 225.51 32.0753 225.448 32.1651C225.406 32.2544 225.334 32.3888 225.23 32.5683C225.064 32.9716 224.961 33.4082 224.919 33.8786C224.878 34.3265 224.836 34.8083 224.795 35.3233C225.023 35.5701 225.24 35.7718 225.448 35.9288C225.655 36.0632 225.976 36.1298 226.412 36.1298C226.639 36.1298 226.815 36.1078 226.94 36.0632C227.085 35.9954 227.272 35.9508 227.499 35.9288C227.727 35.9288 227.955 35.9508 228.183 35.9954C228.411 36.018 228.67 36.018 228.96 35.9954C229.561 35.9508 230.069 35.8723 230.484 35.7605C230.898 35.626 231.406 35.5814 232.007 35.626C232.131 35.626 232.349 35.6373 232.66 35.6599C232.991 35.682 233.323 35.7158 233.654 35.7605C233.986 35.783 234.276 35.8277 234.525 35.8949C234.794 35.9621 234.929 36.0519 234.929 36.1637C234.929 36.2981 234.846 36.4438 234.68 36.6008C234.535 36.7352 234.359 36.8697 234.152 37.0041C233.965 37.1159 233.768 37.2165 233.561 37.3062C233.375 37.3735 233.251 37.4181 233.188 37.4407C232.836 37.5525 232.494 37.5864 232.162 37.5417C231.831 37.474 231.468 37.4632 231.074 37.5079C230.784 37.5525 230.525 37.6197 230.297 37.7095C230.069 37.7993 229.841 37.8998 229.613 38.0117C229.385 38.1014 229.147 38.2025 228.898 38.3144C228.67 38.4042 228.401 38.4601 228.09 38.4827C227.675 38.5273 227.323 38.5832 227.033 38.6504C226.743 38.695 226.401 38.7622 226.007 38.852C225.842 38.8967 225.686 38.9418 225.541 38.9864C225.396 39.0537 225.24 39.1096 225.075 39.1547C224.474 39.2892 223.821 39.3112 223.116 39.2214C222.432 39.1547 221.686 39.1655 220.878 39.2553C220.36 39.3225 219.893 39.401 219.479 39.4902C219.085 39.6026 218.681 39.6359 218.266 39.5913C218.122 39.5687 217.987 39.5467 217.862 39.5241C217.717 39.5241 217.593 39.4682 217.489 39.3558C217.531 39.1768 217.624 39.0203 217.769 38.8859C217.914 38.7515 218.059 38.6278 218.205 38.516C218.349 38.3816 218.484 38.2472 218.609 38.1127C218.754 37.9557 218.888 37.8106 219.012 37.6762C219.137 37.4966 219.241 37.2837 219.324 37.0374C219.406 36.7686 219.479 36.4997 219.541 36.2309C219.624 35.9621 219.707 35.7158 219.79 35.4916C219.893 35.2454 220.018 35.0325 220.163 34.8534C219.997 34.4502 219.997 33.9905 220.163 33.4754C220.349 32.9603 220.515 32.4226 220.66 31.8624C220.702 31.728 220.722 31.5936 220.722 31.4591C220.722 31.3247 220.743 31.2016 220.785 31.0898C220.826 30.8656 220.919 30.6752 221.065 30.5182C221.209 30.3392 221.303 30.1596 221.344 29.9806C221.365 29.8687 221.365 29.7564 221.344 29.6445C221.344 29.5327 221.355 29.4203 221.375 29.3085C221.417 28.9724 221.489 28.659 221.593 28.3676C221.717 28.0541 221.8 27.774 221.842 27.5272C221.883 27.3482 221.883 27.1691 221.842 26.9895C221.821 26.7885 221.821 26.5976 221.842 26.4185C221.883 25.9707 221.966 25.5448 222.09 25.1416C222.235 24.7383 222.318 24.3797 222.339 24.0663C222.36 23.82 222.328 23.5512 222.245 23.2598C222.163 22.9684 222.08 22.7447 221.997 22.5877C221.935 22.4759 221.842 22.3635 221.717 22.2516C221.593 22.1172 221.469 21.9941 221.344 21.8817C221.22 21.7699 221.106 21.6694 221.002 21.5796C220.919 21.4677 220.878 21.3667 220.878 21.2774C220.899 21.0306 220.992 20.9075 221.158 20.9075C221.323 20.8849 221.479 20.8064 221.624 20.672C222.37 20.6946 223.075 20.7844 223.738 20.9408C224.422 21.0978 225.126 21.1989 225.851 21.2435C226.121 21.2882 226.401 21.2882 226.691 21.2435C226.981 21.1763 227.261 21.1317 227.531 21.1091C227.965 21.0865 228.453 21.1537 228.991 21.3107C229.551 21.4677 230.1 21.5236 230.639 21.4785C231.365 21.4339 232.048 21.4118 232.691 21.4118C233.333 21.4118 234.007 21.3892 234.711 21.3441C234.836 21.4564 235.022 21.5124 235.271 21.5124C235.52 21.4898 235.768 21.4677 236.017 21.4452C236.287 21.4005 236.525 21.3892 236.732 21.4118C236.96 21.4339 237.115 21.5349 237.198 21.714C237.323 22.0274 237.302 22.2963 237.136 22.5205C236.971 22.7447 236.742 22.8904 236.452 22.9571C236.369 22.9571 236.255 22.9684 236.111 22.9909C235.965 23.0135 235.81 23.0356 235.644 23.0581C235.478 23.0807 235.312 23.0915 235.147 23.0915C235.001 23.0915 234.898 23.0915 234.836 23.0915ZM243.323 38.4827C243.177 38.4601 242.96 38.516 242.67 38.6504C242.4 38.7848 242.151 38.8967 241.924 38.9864C241.696 39.0537 241.447 39.1321 241.177 39.2214C240.908 39.3112 240.649 39.3451 240.4 39.3225C240.234 39.2999 240.079 39.244 239.934 39.1547C239.789 39.087 239.654 39.0649 239.53 39.087C239.426 39.087 239.333 39.1321 239.25 39.2214C239.167 39.3112 239.064 39.3784 238.939 39.4236C238.711 39.5128 238.442 39.58 238.131 39.6246C237.82 39.6924 237.52 39.7144 237.23 39.6924C236.939 39.6698 236.701 39.58 236.514 39.4236C236.349 39.2892 236.297 39.0649 236.359 38.7515C236.401 38.5493 236.473 38.3482 236.577 38.1461C236.701 37.9224 236.815 37.6762 236.918 37.4073C237.084 36.9363 237.209 36.4438 237.291 35.9288C237.374 35.3911 237.488 34.9653 237.634 34.6513C237.717 34.4722 237.841 34.3045 238.007 34.1475C238.172 33.9905 238.266 33.8227 238.286 33.6437C238.307 33.5093 238.286 33.3969 238.224 33.3071C238.162 33.2178 238.131 33.0947 238.131 32.9377C238.131 32.8259 238.152 32.7135 238.193 32.6017C238.255 32.4673 238.297 32.3103 238.317 32.1312C238.338 31.9522 238.338 31.7952 238.317 31.6608C238.297 31.5038 238.307 31.3694 238.349 31.2575C238.39 31.1231 238.452 31 238.535 30.8876C238.618 30.7532 238.701 30.6301 238.784 30.5182C238.887 30.3838 238.971 30.2381 239.032 30.0811C239.095 29.9247 239.126 29.7456 239.126 29.5434C239.126 29.4316 239.157 29.2526 239.219 29.0058C239.281 28.737 239.302 28.5359 239.281 28.4015C239.219 27.9305 239.219 27.5385 239.281 27.225C239.364 26.9116 239.457 26.6315 239.561 26.3852C239.685 26.1164 239.81 25.8475 239.934 25.5787C240.079 25.3099 240.183 24.9846 240.245 24.6039C240.328 24.1335 240.39 23.6404 240.431 23.1254C240.473 22.6103 240.545 22.1506 240.649 21.7473C240.773 21.322 240.95 20.986 241.177 20.7397C241.426 20.4929 241.799 20.4032 242.297 20.4709C242.504 20.7397 242.638 20.9973 242.701 21.2435C242.784 21.4898 242.897 21.7699 243.043 22.0839C243.105 22.2629 243.27 22.4194 243.54 22.5538C243.81 22.6882 243.996 22.8339 244.1 22.9909C244.203 23.1254 244.317 23.2711 244.442 23.4281C244.587 23.5625 244.68 23.7076 244.721 23.8646C244.784 24.1561 244.794 24.4921 244.752 24.8728C244.732 25.2534 244.711 25.6008 244.69 25.9142C244.67 26.0938 244.649 26.2841 244.628 26.4858C244.607 26.6648 244.576 26.8218 244.535 26.9562C244.494 27.1132 244.442 27.2476 244.379 27.3595C244.338 27.4713 244.307 27.5837 244.286 27.6955C244.245 27.9197 244.214 28.1213 244.193 28.3004C244.193 28.4574 244.172 28.6138 244.13 28.7708C244.027 29.1069 243.872 29.3983 243.664 29.6445C243.478 29.8908 243.333 30.1822 243.229 30.5182C243.167 30.6752 243.115 30.8543 243.074 31.0559C243.053 31.2575 243.022 31.4479 242.98 31.6274C242.856 32.1199 242.721 32.6802 242.577 33.3071C242.431 33.9346 242.38 34.5394 242.421 35.1223C242.587 35.0771 242.732 35.0438 242.856 35.0212C242.98 34.9986 243.094 34.9878 243.198 34.9878C243.302 34.9653 243.416 34.9653 243.54 34.9878C243.685 35.0099 243.861 35.0438 244.069 35.0884C244.379 35.1782 244.721 35.29 245.094 35.4244C245.467 35.5588 245.851 35.6486 246.244 35.6933C246.535 35.7158 246.825 35.7158 247.115 35.6933C247.426 35.6707 247.727 35.682 248.017 35.7266C248.307 35.7717 248.576 35.8277 248.825 35.8949C249.094 35.9395 249.343 35.9395 249.571 35.8949C249.674 35.8503 249.747 35.8164 249.789 35.7943C249.85 35.7492 249.923 35.7158 250.006 35.6933C250.338 35.626 250.721 35.6373 251.157 35.7266C251.591 35.7943 251.996 35.8503 252.369 35.8949C252.431 35.8949 252.524 35.8949 252.649 35.8949C252.773 35.8723 252.897 35.8723 253.022 35.8949C253.146 35.8949 253.25 35.9287 253.332 35.9954C253.415 36.0632 253.456 36.1637 253.456 36.2981C253.436 36.4997 253.291 36.6567 253.022 36.7686C252.773 36.8804 252.566 36.9589 252.4 37.0041C252.151 37.0707 251.913 37.1046 251.685 37.1046C251.477 37.1046 251.25 37.1385 251.001 37.2052C250.773 37.2729 250.566 37.3622 250.379 37.474C250.213 37.5638 250.037 37.631 249.85 37.6762C249.789 37.7208 249.726 37.7428 249.664 37.7428C249.602 37.7208 249.53 37.7208 249.447 37.7428C249.322 37.788 249.177 37.8665 249.011 37.9783C248.846 38.0681 248.711 38.124 248.607 38.1461C248.234 38.2359 247.83 38.2138 247.395 38.0794C246.98 37.945 246.556 37.8998 246.12 37.945C245.954 37.967 245.789 38.0117 245.623 38.0794C245.457 38.124 245.291 38.1687 245.125 38.2138C244.96 38.2584 244.794 38.2918 244.628 38.3144C244.462 38.3369 244.317 38.3703 244.193 38.4149L243.323 38.4827ZM269.031 24.1335C269.239 24.5813 269.394 24.9959 269.497 25.3765C269.601 25.7578 269.684 26.2728 269.746 26.9229C269.788 27.3707 269.829 27.774 269.87 28.1326C269.933 28.4681 269.943 28.8939 269.902 29.409C269.881 29.7677 269.829 30.1489 269.746 30.5521C269.663 30.9328 269.56 31.2909 269.435 31.6274C269.248 32.2318 269.072 32.7587 268.907 33.2066C268.741 33.6544 268.544 34.1362 268.316 34.6513C268.171 34.9427 268.026 35.1782 267.881 35.3572C267.736 35.5363 267.58 35.7266 267.415 35.9288C267.373 35.9954 267.332 36.0739 267.29 36.1637C267.269 36.2535 267.228 36.332 267.166 36.3987C266.896 36.7352 266.523 37.082 266.047 37.4407C265.591 37.7993 265.166 38.0568 264.772 38.2138C264.627 38.2584 264.472 38.2918 264.306 38.3144C264.161 38.3144 264.006 38.3369 263.84 38.3816C263.632 38.4714 263.456 38.6058 263.311 38.7848C263.166 38.9418 262.979 39.0537 262.752 39.1209C262.627 39.1655 262.472 39.1994 262.285 39.2214C262.119 39.2666 261.954 39.3112 261.788 39.3558C261.373 39.4682 260.856 39.58 260.234 39.6924C259.632 39.8042 259.073 39.7929 258.555 39.6585C258.472 39.6359 258.389 39.5913 258.306 39.5241C258.223 39.4569 258.13 39.401 258.026 39.3558C257.923 39.3112 257.819 39.2779 257.716 39.2553C257.612 39.2327 257.519 39.1994 257.436 39.1547C257.166 39.0424 256.907 38.8859 256.659 38.6837C256.41 38.4827 256.151 38.3257 255.882 38.2138C255.591 38.0342 255.301 37.8772 255.011 37.7428C254.721 37.5864 254.524 37.3175 254.42 36.9363C254.068 36.8245 253.82 36.567 253.674 36.1637C253.529 35.7605 253.353 35.4018 253.146 35.0884C253.083 34.9765 252.99 34.8868 252.866 34.8195C252.763 34.7298 252.69 34.6292 252.649 34.5168C252.503 34.2706 252.39 33.8786 252.306 33.341C252.223 32.7807 252.172 32.3103 252.151 31.9296C252.13 31.5264 252.151 31.1457 252.213 30.7871C252.296 30.4064 252.379 30.0365 252.462 29.6779C252.566 29.3198 252.669 28.9724 252.773 28.6364C252.897 28.3004 253.001 27.9756 253.083 27.6616C253.166 27.281 253.322 26.9788 253.55 26.7546C253.778 26.5304 253.996 26.2841 254.203 26.0153C254.286 25.9255 254.348 25.825 254.39 25.7131C254.431 25.6008 254.493 25.4889 254.576 25.3765C254.742 25.1529 254.928 24.9625 255.136 24.8056C255.343 24.6265 255.54 24.4469 255.726 24.2679C255.933 24.0888 256.151 23.9206 256.379 23.7636C256.607 23.5845 256.793 23.4055 256.938 23.2259C257.104 22.9796 257.229 22.7334 257.311 22.4871C257.415 22.2404 257.57 22.0274 257.778 21.8484C258.006 21.6468 258.254 21.5011 258.524 21.4118C258.814 21.322 259.146 21.2209 259.519 21.1091C259.871 21.0193 260.213 20.8962 260.544 20.7397C260.897 20.5602 261.27 20.4483 261.663 20.4032C262.036 20.3585 262.441 20.3365 262.876 20.3365C263.311 20.3139 263.736 20.3252 264.15 20.3698C264.586 20.4144 264.99 20.4929 265.363 20.6053C265.757 20.7172 266.099 20.8741 266.389 21.0752C266.534 21.165 266.679 21.2994 266.824 21.4785C266.99 21.6581 267.145 21.8258 267.29 21.9828C267.622 22.3414 267.902 22.7108 268.129 23.0915C268.378 23.4501 268.679 23.7974 269.031 24.1335ZM262.254 22.6216C262.171 22.6216 262.047 22.6549 261.881 22.7221C261.736 22.7893 261.581 22.8678 261.415 22.9571C261.27 23.0248 261.135 23.1028 261.011 23.1926C260.886 23.2823 260.793 23.3496 260.731 23.3942C260.483 23.6404 260.254 23.9544 260.047 24.3351C259.861 24.6937 259.643 25.0185 259.394 25.3099C259.291 25.4217 259.176 25.511 259.052 25.5787C258.949 25.6233 258.866 25.6905 258.803 25.7798C258.451 26.2056 258.192 26.6987 258.026 27.2584C257.881 27.8186 257.726 28.3563 257.56 28.8714C257.374 29.409 257.197 30.0144 257.032 30.6865C256.866 31.3586 256.814 31.9968 256.876 32.6017C256.897 32.7361 256.938 32.9151 257.001 33.1393C257.083 33.341 257.156 33.5313 257.218 33.7103C257.301 33.9125 257.374 34.1136 257.436 34.3158C257.519 34.4948 257.602 34.6625 257.684 34.8195C257.809 35.0884 257.964 35.3798 258.151 35.6933C258.358 35.9847 258.586 36.2422 258.835 36.4664C259.104 36.6675 259.394 36.8245 259.705 36.9363C260.037 37.0261 260.389 37.0148 260.762 36.903C260.99 36.8132 261.27 36.6788 261.602 36.4997C261.933 36.2981 262.233 36.1078 262.503 35.9288C262.897 35.6599 263.176 35.3911 263.342 35.1223C263.508 34.8308 263.674 34.4609 263.84 34.0131C263.881 33.9012 263.933 33.8001 263.995 33.7103C264.078 33.5985 264.15 33.4867 264.213 33.3748C264.337 33.1281 264.441 32.8592 264.523 32.5683C264.606 32.2769 264.71 31.9968 264.835 31.728C265.083 31.1231 265.239 30.5408 265.301 29.9806C265.363 29.4203 265.415 28.7482 265.456 27.9643C265.477 27.5385 265.446 27.225 265.363 27.0234C265.301 26.8218 265.249 26.5417 265.208 26.183C265.187 25.9368 265.176 25.7131 265.176 25.511C265.176 25.2873 265.135 25.097 265.052 24.94C264.949 24.7383 264.752 24.6039 264.462 24.5367C264.192 24.4695 263.974 24.3464 263.809 24.1668C263.643 23.8759 263.467 23.5958 263.28 23.327C263.094 23.0581 262.866 22.8339 262.596 22.6549C262.492 22.6775 262.42 22.6775 262.379 22.6549C262.337 22.6323 262.296 22.6216 262.254 22.6216ZM276.741 33.6437C276.451 34.2932 276.212 35.0212 276.026 35.8277C275.86 36.6342 275.694 37.3622 275.528 38.0117C275.445 38.3257 275.28 38.5606 275.031 38.7176C274.803 38.852 274.544 38.9418 274.254 38.9864C273.964 39.0537 273.673 39.0983 273.383 39.1209C273.093 39.1434 272.855 39.1881 272.669 39.2553C272.481 39.3225 272.275 39.4236 272.047 39.558C271.839 39.7144 271.632 39.8489 271.425 39.9612C271.218 40.0956 271.021 40.1962 270.834 40.2634C270.669 40.3306 270.544 40.3193 270.461 40.2301C270.378 40.1403 270.368 39.9274 270.43 39.5913C270.492 39.2779 270.596 38.9079 270.741 38.4827C270.886 38.0568 271.052 37.6197 271.238 37.1718C271.445 36.7014 271.642 36.2755 271.829 35.8949C271.953 35.626 272.036 35.2674 272.078 34.8195C272.119 34.3491 272.15 33.9571 272.171 33.6437C272.171 33.5313 272.15 33.4308 272.108 33.341C272.067 33.2291 272.057 33.1168 272.078 33.0049C272.098 32.8931 272.161 32.7474 272.264 32.5683C272.388 32.3888 272.492 32.2097 272.575 32.0307C272.72 31.6274 272.803 31.1677 272.824 30.6526C272.865 30.115 272.948 29.6671 273.072 29.3085C273.114 29.1967 273.166 29.0956 273.228 29.0058C273.311 28.8939 273.373 28.7821 273.415 28.6703C273.456 28.5359 273.466 28.3676 273.445 28.166C273.425 27.9643 273.415 27.774 273.415 27.595C273.415 27.3035 273.466 26.9788 273.57 26.6202C273.694 26.2395 273.808 25.8809 273.912 25.5448C274.015 25.1862 274.088 24.8502 274.129 24.5367C274.191 24.2007 274.181 23.9093 274.098 23.663C274.036 23.327 274.005 23.1028 274.005 22.9909C274.005 22.8791 273.984 22.8006 273.943 22.756C273.839 22.6436 273.798 22.5764 273.818 22.5538C273.86 22.5092 273.818 22.442 273.694 22.3527C273.591 22.2404 273.487 22.1506 273.383 22.0839C273.3 21.9941 273.186 21.893 273.042 21.7812C272.917 21.6914 272.782 21.6129 272.637 21.5462C272.513 21.4564 272.44 21.3107 272.42 21.1091C272.606 20.9301 272.762 20.8064 272.886 20.7397C273.031 20.672 273.166 20.6387 273.29 20.6387C273.415 20.6161 273.549 20.6274 273.694 20.672C273.839 20.6946 274.015 20.7172 274.222 20.7397C274.575 20.7844 274.886 20.7957 275.155 20.7731C275.445 20.7505 275.798 20.7397 276.212 20.7397C276.481 20.7397 276.782 20.7731 277.114 20.8403C277.466 20.8849 277.777 20.9301 278.046 20.9747C278.316 21.0193 278.585 21.0306 278.855 21.0086C279.144 20.9634 279.404 20.9634 279.632 21.0086C279.818 21.0532 279.984 21.1091 280.129 21.1763C280.274 21.2209 280.45 21.2435 280.658 21.2435C281.238 21.2435 281.787 21.1763 282.305 21.0419C282.844 20.9075 283.352 20.8849 283.828 20.9747C283.994 21.0193 284.17 21.0752 284.357 21.143C284.564 21.2097 284.761 21.2774 284.947 21.3441C285.134 21.4118 285.269 21.4677 285.352 21.5124C285.455 21.5349 285.59 21.5796 285.756 21.6468C285.921 21.714 286.087 21.8258 286.253 21.9828C286.44 22.1172 286.626 22.2742 286.813 22.4533C287.103 22.6775 287.393 22.9124 287.683 23.1592C287.994 23.4055 288.201 23.7076 288.305 24.0663C288.346 24.1781 288.398 24.3577 288.461 24.6039C288.543 24.8502 288.585 25.0298 288.585 25.1416C288.605 25.433 288.533 25.7239 288.367 26.0153C288.533 26.2841 288.595 26.5863 288.554 26.9229C288.512 27.2363 288.408 27.5611 288.243 27.8971C288.097 28.2106 287.911 28.5133 287.683 28.8047C287.455 29.0956 287.248 29.3424 287.061 29.5434C286.751 29.8574 286.408 30.1376 286.035 30.3838C285.683 30.608 285.3 30.8317 284.885 31.0559C284.658 31.1677 284.44 31.3134 284.233 31.493C284.025 31.6495 283.828 31.7726 283.642 31.8624C283.538 31.907 283.476 31.9183 283.455 31.8963C283.455 31.8737 283.393 31.8737 283.269 31.8963C282.854 31.9855 282.45 32.1425 282.056 32.3662C281.663 32.5904 281.248 32.7587 280.813 32.8705C280.709 32.9151 280.595 32.9377 280.471 32.9377C280.347 32.9151 280.233 32.9151 280.129 32.9377C279.818 32.9823 279.508 33.0721 279.196 33.2066C278.906 33.3184 278.606 33.3969 278.295 33.4415C278.005 33.4867 277.735 33.5093 277.487 33.5093C277.259 33.5093 277.01 33.5539 276.741 33.6437ZM278.264 26.2841C278.181 26.5976 278.108 26.9116 278.046 27.225C278.005 27.5385 277.953 27.8525 277.891 28.166C277.849 28.3676 277.777 28.6025 277.673 28.8714C277.59 29.1402 277.518 29.409 277.455 29.6779C277.394 29.9247 277.373 30.1489 277.394 30.3499C277.414 30.5521 277.518 30.6865 277.704 30.7532C277.808 30.7758 277.901 30.7645 277.984 30.7199C278.088 30.6752 278.201 30.6414 278.326 30.6188C278.409 30.6188 278.492 30.6414 278.574 30.6865C278.678 30.7086 278.782 30.7086 278.886 30.6865C279.652 30.6188 280.357 30.4736 281 30.2494C281.663 30.0252 282.077 29.566 282.243 28.8714C282.326 28.8267 282.398 28.7934 282.461 28.7708C282.544 28.7262 282.637 28.681 282.741 28.6364C283.051 28.2778 283.31 27.7853 283.518 27.1578C283.745 26.5304 283.88 25.9594 283.921 25.4443C283.921 25.2647 283.849 25.0744 283.704 24.8728C283.58 24.6486 283.497 24.4808 283.455 24.369C283.414 24.2792 283.321 24.1894 283.175 24.1001C283.031 23.9878 282.865 23.8872 282.678 23.7974C282.492 23.6856 282.295 23.5958 282.088 23.5286C281.901 23.4614 281.756 23.4168 281.652 23.3942C281.424 23.3496 281.238 23.3603 281.093 23.4281C280.948 23.4727 280.771 23.506 280.564 23.5286C280.274 23.5512 280.005 23.5512 279.756 23.5286C279.508 23.506 279.29 23.5958 279.103 23.7974C279.041 24.2007 278.906 24.6152 278.699 25.0411C278.513 25.4443 278.368 25.8583 278.264 26.2841Z" fill="url(#paint0_angular_1_380)"/>
<defs>
<radialGradient id="paint0_angular_1_380" cx="0" cy="0" r="1" gradientUnits="userSpaceOnUse" gradientTransform="translate(164.766 36.0965) rotate(168.229) scale(42.1699 206.475)">
<stop stop-color="#0A67BD"/>
</radialGradient>
</defs>
</svg>
