<svg width="66" height="66" viewBox="0 0 66 66" fill="none" xmlns="http://www.w3.org/2000/svg">
<g clip-path="url(#clip0_1_441)">
<path d="M58.5072 62.063H7.49275C3.36153 62.063 0 58.7015 0 54.5703V11.3188C0 7.18758 3.36153 3.82605 7.49275 3.82605H58.5072C62.6385 3.82605 66 7.18758 66 11.3188V54.5703C66 58.7015 62.6385 62.063 58.5072 62.063ZM7.49275 6.05793C4.59205 6.05793 2.23188 8.4181 2.23188 11.3188V54.5703C2.23188 57.471 4.59205 59.8311 7.49275 59.8311H58.5072C61.408 59.8311 63.7681 57.471 63.7681 54.5703V11.3188C63.7681 8.4181 61.408 6.05793 58.5072 6.05793H7.49275Z" fill="#0C78ED"/>
<path d="M55.9269 45.0256H38.3913C37.7748 45.0256 37.2754 44.5262 37.2754 43.9096C37.2754 43.2938 37.7748 42.7937 38.3913 42.7937H55.9269C56.5428 42.7937 57.0429 43.2938 57.0429 43.9096C57.0429 44.5262 56.5434 45.0256 55.9269 45.0256Z" fill="#0C78ED"/>
<path d="M55.9269 53.0937H38.3913C37.7748 53.0937 37.2754 52.5943 37.2754 51.9778C37.2754 51.3619 37.7748 50.8618 38.3913 50.8618H55.9269C56.5428 50.8618 57.0429 51.3619 57.0429 51.9778C57.0429 52.5943 56.5434 53.0937 55.9269 53.0937Z" fill="#0C78ED"/>
<path d="M55.9269 28.8894H38.3913C37.7748 28.8894 37.2754 28.3899 37.2754 27.7734C37.2754 27.1575 37.7748 26.6575 38.3913 26.6575H55.9269C56.5428 26.6575 57.0429 27.1575 57.0429 27.7734C57.0429 28.3899 56.5434 28.8894 55.9269 28.8894Z" fill="#0C78ED"/>
<path d="M55.9269 36.9575H38.3913C37.7748 36.9575 37.2754 36.458 37.2754 35.8415C37.2754 35.2256 37.7748 34.7256 38.3913 34.7256H55.9269C56.5428 34.7256 57.0429 35.2256 57.0429 35.8415C57.0429 36.458 56.5434 36.9575 55.9269 36.9575Z" fill="#0C78ED"/>
<path d="M64.8841 18.7686H1.11594C0.499434 18.7686 0 18.2692 0 17.6527C0 17.0362 0.499434 16.5367 1.11594 16.5367H64.8841C65.5006 16.5367 66 17.0362 66 17.6527C66 18.2692 65.5006 18.7686 64.8841 18.7686Z" fill="#0C78ED"/>
<path d="M16.0882 14.7912C14.1733 14.7912 12.6152 13.2337 12.6152 11.3188C12.6152 9.4039 14.1733 7.84644 16.0882 7.84644C18.0031 7.84644 19.5606 9.4039 19.5606 11.3188C19.5606 13.2337 18.0031 14.7912 16.0882 14.7912ZM16.0882 10.0783C15.4038 10.0783 14.8471 10.635 14.8471 11.3188C14.8471 12.0026 15.4038 12.5593 16.0882 12.5593C16.772 12.5593 17.3287 12.0026 17.3287 11.3188C17.3287 10.635 16.772 10.0783 16.0882 10.0783Z" fill="#0C78ED"/>
<path d="M8.04659 14.7912C6.1323 14.7912 4.57422 13.2337 4.57422 11.3188C4.57422 9.4039 6.1323 7.84644 8.04659 7.84644C9.9615 7.84644 11.5196 9.4039 11.5196 11.3188C11.5196 13.2337 9.9615 14.7912 8.04659 14.7912ZM8.04659 10.0783C7.36283 10.0783 6.8061 10.635 6.8061 11.3188C6.8061 12.0026 7.36283 12.5593 8.04659 12.5593C8.73098 12.5593 9.2877 12.0026 9.2877 11.3188C9.2877 10.635 8.73098 10.0783 8.04659 10.0783Z" fill="#0C78ED"/>
<path d="M24.1286 14.7912C22.2137 14.7912 20.6562 13.2337 20.6562 11.3188C20.6562 9.4039 22.2137 7.84644 24.1286 7.84644C26.0435 7.84644 27.6016 9.4039 27.6016 11.3188C27.6016 13.2337 26.0435 14.7912 24.1286 14.7912ZM24.1286 10.0783C23.4442 10.0783 22.8881 10.635 22.8881 11.3188C22.8881 12.0026 23.4449 12.5593 24.1286 12.5593C24.813 12.5593 25.3697 12.0026 25.3697 11.3188C25.3697 10.635 24.813 10.0783 24.1286 10.0783Z" fill="#0C78ED"/>
<path d="M29.9717 53.0938H9.72532C9.10881 53.0938 8.60938 52.5944 8.60938 51.9779V27.7734C8.60938 27.1575 9.10881 26.6575 9.72532 26.6575H29.9717C30.5882 26.6575 31.0876 27.1575 31.0876 27.7734V51.9779C31.0876 52.5944 30.5882 53.0938 29.9717 53.0938ZM10.8413 50.862H28.8558V28.8894H10.8413V50.862Z" fill="#0C78ED"/>
</g>
<defs>
<clipPath id="clip0_1_441">
<rect width="66" height="66" fill="white"/>
</clipPath>
</defs>
</svg>
