<svg width="64" height="64" viewBox="0 0 64 64" fill="none" xmlns="http://www.w3.org/2000/svg">
<g clip-path="url(#clip0_1_430)">
<path d="M20.4159 49.7803C16.7257 49.7803 13.7344 52.7717 13.7344 56.4618C13.7344 60.1519 16.7258 63.1432 20.4159 63.1432C24.106 63.1432 27.0973 60.1518 27.0973 56.4618C27.0975 52.7717 24.106 49.7803 20.4159 49.7803ZM20.4159 60.1738C18.3658 60.1738 16.704 58.512 16.704 56.4619C16.704 54.4118 18.3658 52.75 20.4159 52.75C22.4659 52.75 24.1278 54.4118 24.1278 56.4619C24.1279 58.512 22.4659 60.1738 20.4159 60.1738Z" fill="#0C78ED"/>
<path d="M48.6268 49.7803C44.9366 49.7803 41.9453 52.7717 41.9453 56.4618C41.9453 60.1519 44.9368 63.1432 48.6268 63.1432C52.3168 63.1432 55.3083 60.1518 55.3083 56.4618C55.3083 52.7717 52.317 49.7803 48.6268 49.7803ZM48.6268 60.1738C46.5767 60.1738 44.9149 58.512 44.9149 56.4619C44.9149 54.4118 46.5767 52.75 48.6268 52.75C50.6769 52.75 52.3387 54.4118 52.3387 56.4619C52.3388 58.512 50.6769 60.1738 48.6268 60.1738Z" fill="#0C78ED"/>
<path d="M63.6973 10.8048C63.3881 10.467 62.9651 10.2555 62.5095 10.2108L14.1798 9.54264L12.8435 5.45943C11.9021 2.72986 9.34598 0.887119 6.45881 0.856567H1.48479C0.664738 0.856567 0 1.52131 0 2.34136C0 3.16141 0.664738 3.82615 1.48479 3.82615H6.45881C8.0732 3.86181 9.49475 4.89842 10.0224 6.42457L19.4508 34.8582L18.7084 36.5657C17.8804 38.7009 18.1291 41.104 19.3766 43.0245C20.6121 44.9107 22.6908 46.0748 24.9446 46.1426H53.8237C54.6438 46.1426 55.3085 45.4778 55.3085 44.6578C55.3085 43.8377 54.6438 43.173 53.8237 43.173H24.9444C23.6717 43.1412 22.5001 42.4716 21.8264 41.3912C21.1602 40.3241 21.0234 39.0094 21.4552 37.8277L22.0492 36.4914L53.3039 33.2248C56.737 32.8467 59.5611 30.3497 60.3567 26.9887L63.9203 12.0666C64.0808 11.6369 63.9956 11.1536 63.6973 10.8048ZM57.4613 26.3207C56.9793 28.4843 55.1424 30.0802 52.9328 30.2554L22.0492 33.4476L15.1449 12.5122L60.6536 13.1804L57.4613 26.3207Z" fill="#0C78ED"/>
</g>
<defs>
<clipPath id="clip0_1_430">
<rect width="64" height="64" fill="white"/>
</clipPath>
</defs>
</svg>
