<svg width="223" height="51" viewBox="0 0 223 51" fill="none" xmlns="http://www.w3.org/2000/svg">
<path d="M29.026 0.760498L18.3021 20.8935L9.02734 3.46845L10.3316 0.603516L29.026 0.760498Z" fill="#37AEE2"/>
<path d="M7.3908 4.60181L21.6289 31.0927H11.8108L0 16.2578L7.3908 4.60181Z" fill="#259EE2"/>
<path d="M32.3299 51.0001L46.6281 32.3354L42.0756 23.8813L37.1484 32.3584L29.1055 47.625L32.3299 51.0001Z" fill="#5B93FF"/>
<path d="M60.0002 16.5274L47.3924 31.5193L37.5742 13.3878L37.9003 12.7991L57.1019 12.8383L60.0002 16.5274Z" fill="#3282C9"/>
<path d="M25.5329 48.657L33.5759 33.3904H13.541L25.5329 48.657Z" fill="#003E9C"/>
<path d="M55.9585 10.9103L26.1055 10.8318L31.6848 0H49.2923L55.9585 10.9103Z" fill="#086E9F"/>
<path d="M77.9075 25.9974C77.683 26.4993 77.4989 27.0618 77.3548 27.685C77.2268 28.3083 77.0984 28.8708 76.9704 29.3727C76.9062 29.6153 76.7782 29.7969 76.5861 29.9182C76.41 30.0221 76.2098 30.0914 75.9857 30.1259C75.7613 30.1779 75.5372 30.2123 75.3131 30.2298C75.0887 30.2472 74.9046 30.2817 74.7604 30.3337C74.6163 30.3856 74.456 30.4637 74.28 30.5676C74.1199 30.6885 73.9597 30.7923 73.7996 30.8792C73.6394 30.983 73.4873 31.0607 73.3432 31.1127C73.2151 31.1646 73.119 31.1559 73.0549 31.0869C72.9908 31.0175 72.9828 30.853 73.0309 30.5933C73.0789 30.3511 73.159 30.0653 73.2711 29.7366C73.3832 29.4076 73.5113 29.0698 73.6554 28.7237C73.8156 28.3602 73.9677 28.0311 74.1119 27.737C74.2079 27.5292 74.272 27.2521 74.3038 26.906C74.3361 26.5425 74.36 26.2396 74.3761 25.9974C74.3761 25.9106 74.36 25.8329 74.3281 25.7635C74.2962 25.6771 74.2881 25.5903 74.3038 25.5038C74.32 25.4174 74.368 25.3048 74.4484 25.1665C74.5444 25.0277 74.6244 24.8894 74.6882 24.751C74.8004 24.4394 74.8646 24.0842 74.8804 23.6862C74.9126 23.2707 74.9764 22.9246 75.0725 22.6475C75.1048 22.5611 75.1448 22.483 75.1928 22.4136C75.257 22.3272 75.3051 22.2408 75.337 22.1543C75.3689 22.0505 75.3769 21.9204 75.3608 21.7646C75.345 21.6088 75.337 21.4618 75.337 21.3234C75.337 21.0982 75.3769 20.8473 75.4569 20.5702C75.553 20.276 75.6414 19.9989 75.7213 19.7392C75.8012 19.4621 75.8574 19.2024 75.8896 18.9602C75.9373 18.7006 75.9296 18.4754 75.8654 18.2851C75.8174 18.0254 75.7936 17.8522 75.7936 17.7658C75.7936 17.6793 75.7774 17.6187 75.7451 17.5842C75.6652 17.4974 75.6333 17.4454 75.649 17.428C75.6813 17.3935 75.649 17.3416 75.553 17.2726C75.473 17.1858 75.3931 17.1164 75.3131 17.0649C75.2489 16.9955 75.1609 16.9174 75.0487 16.831C74.9526 16.7616 74.8485 16.7009 74.7366 16.6494C74.6405 16.58 74.5844 16.4674 74.5683 16.3116C74.7124 16.1733 74.8327 16.0777 74.9288 16.0262C75.0406 15.9738 75.1448 15.9481 75.2409 15.9481C75.337 15.9306 75.4411 15.9394 75.553 15.9738C75.6652 15.9913 75.8012 16.0087 75.9615 16.0262C76.2336 16.0607 76.4738 16.0694 76.6822 16.052C76.9062 16.0345 77.1787 16.0262 77.4989 16.0262C77.7072 16.0262 77.9394 16.052 78.1957 16.1039C78.4678 16.1384 78.708 16.1733 78.916 16.2078C79.1243 16.2422 79.3326 16.251 79.5409 16.2339C79.765 16.199 79.9652 16.199 80.1413 16.2339C80.2854 16.2684 80.4134 16.3116 80.5256 16.3636C80.6378 16.398 80.7739 16.4155 80.9338 16.4155C81.3823 16.4155 81.8066 16.3636 82.2071 16.2597C82.6234 16.1558 83.0158 16.1384 83.3844 16.2078C83.5123 16.2422 83.6484 16.2854 83.7925 16.3378C83.9528 16.3893 84.1046 16.4417 84.2491 16.4932C84.3929 16.5455 84.497 16.5887 84.5612 16.6232C84.6412 16.6407 84.7453 16.6752 84.8733 16.7271C85.0017 16.779 85.1297 16.8654 85.2576 16.9868C85.4022 17.0906 85.5459 17.2119 85.6904 17.3503C85.9145 17.5235 86.1386 17.7051 86.363 17.8958C86.6029 18.0861 86.7631 18.3196 86.8435 18.5967C86.8754 18.6831 86.9153 18.8219 86.9634 19.0122C87.0276 19.2024 87.0595 19.3412 87.0595 19.4276C87.0756 19.6528 87.0195 19.8776 86.8911 20.1028C87.0195 20.3105 87.0675 20.544 87.0356 20.8041C87.0033 21.0463 86.9234 21.2972 86.795 21.5569C86.6832 21.7991 86.5391 22.033 86.363 22.2582C86.1866 22.483 86.0263 22.6737 85.8826 22.8291C85.642 23.0717 85.3779 23.2882 85.0897 23.4784C84.8176 23.6517 84.5212 23.8245 84.2007 23.9978C84.0247 24.0842 83.8567 24.1968 83.6964 24.3355C83.5362 24.4565 83.3844 24.5516 83.2398 24.621C83.1599 24.6555 83.1119 24.6642 83.0961 24.6472C83.0961 24.6297 83.0477 24.6297 82.9516 24.6472C82.6314 24.7161 82.3193 24.8374 82.0149 25.0103C81.7105 25.1835 81.3904 25.3136 81.0541 25.4C80.9741 25.4345 80.8861 25.4519 80.79 25.4519C80.6939 25.4345 80.6055 25.4345 80.5256 25.4519C80.2854 25.4864 80.0452 25.5558 79.805 25.6596C79.5809 25.7461 79.3487 25.8067 79.1081 25.8412C78.8841 25.8761 78.6761 25.8936 78.484 25.8936C78.3076 25.8936 78.1154 25.928 77.9075 25.9974ZM79.0843 20.3105C79.0201 20.5527 78.9644 20.7953 78.916 21.0376C78.8841 21.2798 78.8441 21.5224 78.7961 21.7646C78.7642 21.9204 78.708 22.102 78.6277 22.3097C78.5639 22.5175 78.5078 22.7252 78.4598 22.9329C78.4117 23.1236 78.3956 23.2969 78.4117 23.4523C78.4279 23.6085 78.5078 23.7123 78.6519 23.7639C78.7319 23.7813 78.8041 23.7726 78.8683 23.7381C78.9483 23.7036 79.0363 23.6774 79.1324 23.66C79.1965 23.66 79.2603 23.6774 79.3245 23.7123C79.4045 23.7294 79.4848 23.7294 79.5647 23.7123C80.1574 23.66 80.7016 23.5478 81.1982 23.3746C81.7105 23.2013 82.0311 22.8465 82.1591 22.3097C82.2233 22.2752 82.279 22.2495 82.3274 22.232C82.3912 22.1976 82.4635 22.1627 82.5434 22.1282C82.7836 21.8511 82.9839 21.4705 83.1438 20.9856C83.3202 20.5008 83.4243 20.0596 83.4562 19.6615C83.4562 19.5228 83.4001 19.3757 83.2883 19.2199C83.1922 19.0466 83.128 18.917 83.0961 18.8306C83.0638 18.7612 82.9919 18.6918 82.8797 18.6229C82.7675 18.536 82.6395 18.4583 82.4954 18.389C82.3512 18.3025 82.199 18.2332 82.0392 18.1812C81.8946 18.1293 81.7828 18.0948 81.7025 18.0774C81.5264 18.0429 81.3823 18.0512 81.2705 18.1035C81.1582 18.138 81.0222 18.1638 80.8619 18.1812C80.6378 18.1987 80.4295 18.1987 80.2373 18.1812C80.0452 18.1638 79.8768 18.2332 79.7331 18.389C79.6847 18.7006 79.5809 19.0209 79.4206 19.3499C79.2765 19.6615 79.1643 19.9814 79.0843 20.3105ZM96.8602 16.4155C96.9882 16.45 97.1166 16.4674 97.2446 16.4674C97.3726 16.4674 97.5009 16.4849 97.6289 16.5194C97.677 16.5194 97.725 16.5368 97.7731 16.5713C97.8211 16.6058 97.8691 16.6319 97.9172 16.6494C97.9652 16.6664 98.0133 16.6664 98.0613 16.6494C98.1094 16.6319 98.1574 16.6319 98.2054 16.6494C98.5736 16.7533 98.87 16.9174 99.094 17.1426C99.3185 17.3503 99.5426 17.61 99.7666 17.9216C99.8627 18.0948 99.983 18.3025 100.127 18.5448C100.271 18.7699 100.392 19.0296 100.488 19.3238C100.584 19.6009 100.639 19.895 100.656 20.2066C100.672 20.5182 100.616 20.8298 100.488 21.1414C100.455 21.2278 100.407 21.3404 100.343 21.4788C100.279 21.6001 100.215 21.7301 100.151 21.8685C100.055 22.0588 99.935 22.2582 99.7909 22.4659C99.6467 22.6737 99.4945 22.8208 99.3346 22.9072C99.2063 22.9936 99.094 23.0717 98.998 23.1407C98.918 23.21 98.8139 23.2794 98.6859 23.3484C98.4618 23.4352 98.2373 23.5649 98.0133 23.7381C97.805 23.8939 97.5889 24.0239 97.3645 24.1278C97.2845 24.1623 97.1965 24.1881 97.1004 24.2055C97.0205 24.2055 96.9402 24.223 96.8602 24.2574C96.748 24.3268 96.66 24.422 96.5958 24.5433C96.532 24.6642 96.4117 24.751 96.2357 24.8025C96.6362 24.9064 97.0044 25.149 97.3407 25.5296C97.677 25.8936 97.9333 26.2741 98.1094 26.6721C98.1893 26.9148 98.3015 27.1312 98.4457 27.3215C98.5898 27.5118 98.654 27.7283 98.6378 27.9709C98.7501 28.0748 98.8381 28.2131 98.9019 28.3864C98.9822 28.5417 99.0464 28.715 99.094 28.9057C99.1425 29.096 99.1824 29.295 99.2143 29.5027C99.2624 29.693 99.3185 29.8663 99.3823 30.0221C99.4784 30.2472 99.5825 30.4288 99.6948 30.5676C99.807 30.7229 99.9269 30.8617 100.055 30.983C100.183 31.1214 100.311 31.2597 100.439 31.3985C100.568 31.5539 100.68 31.7446 100.776 31.9694C100.84 31.9523 100.888 31.9261 100.92 31.8917C100.968 31.8742 101.032 31.8742 101.112 31.8917C101.352 32.0819 101.616 32.2294 101.905 32.3333C102.209 32.4372 102.577 32.5236 103.01 32.5926C103.378 32.6619 103.722 32.6794 104.043 32.6449C104.379 32.6275 104.723 32.5842 105.076 32.5149C105.188 32.4974 105.324 32.4455 105.484 32.3591C105.66 32.2897 105.828 32.2294 105.988 32.1771C106.164 32.1256 106.317 32.0994 106.445 32.0994C106.573 32.1168 106.637 32.212 106.637 32.3848C106.637 32.5061 106.565 32.6532 106.421 32.8265C106.277 32.9997 106.149 33.1293 106.036 33.2158C105.764 33.4235 105.452 33.588 105.1 33.7093C104.747 33.8306 104.379 33.9258 103.994 33.9952C103.61 34.0816 103.218 34.1422 102.818 34.1767C102.417 34.2112 102.041 34.2374 101.688 34.2544C101.464 34.2544 101.256 34.2112 101.064 34.1248C100.888 34.0554 100.728 34.0035 100.584 33.969C100.263 33.9171 99.975 33.8564 99.719 33.7874C99.4784 33.7181 99.2462 33.6142 99.0222 33.4758C98.83 33.3545 98.662 33.1813 98.5175 32.9565C98.3738 32.7488 98.1735 32.6187 97.9172 32.5668C97.5009 32.1688 97.0843 31.7616 96.6681 31.3461C96.2518 30.9481 95.9232 30.4462 95.6834 29.8405C95.603 29.6843 95.515 29.5372 95.4189 29.3989C95.3229 29.2431 95.2506 29.0785 95.2029 28.9057C95.1545 28.7844 95.1226 28.6543 95.1069 28.516C95.1069 28.3776 95.0907 28.2218 95.0584 28.0486C95.0265 27.8583 94.9785 27.6593 94.9147 27.4516C94.8505 27.2264 94.7863 27.0186 94.7225 26.8284C94.7064 26.776 94.6822 26.7245 94.6503 26.6721C94.6184 26.6206 94.5941 26.5683 94.578 26.5168C94.5461 26.4129 94.5142 26.2916 94.4819 26.1528C94.45 25.9974 94.3939 25.8761 94.314 25.7897C94.234 25.7203 94.0976 25.6422 93.9054 25.5558C93.7294 25.4694 93.5772 25.4087 93.4492 25.3742C93.2731 25.3393 93.0967 25.348 92.9207 25.4C92.7604 25.4519 92.6086 25.4864 92.4641 25.5038C92.2562 25.5383 92.0559 25.5471 91.8638 25.5296C91.6716 25.4951 91.5113 25.5038 91.3833 25.5558C91.1593 25.6422 90.9752 25.8674 90.8306 26.2309C90.6869 26.5944 90.5985 26.9754 90.5666 27.3734C90.5024 27.7715 90.4063 28.1612 90.2783 28.5417C90.1504 28.9057 90.0462 29.2605 89.9659 29.6066C89.9021 29.8318 89.7979 30.0133 89.6538 30.1521C89.5096 30.3075 89.3094 30.3681 89.0534 30.3337C88.9251 30.3162 88.8209 30.2992 88.741 30.2817C88.6768 30.2817 88.5888 30.2472 88.4769 30.1779C88.3966 30.2123 88.2525 30.2904 88.0441 30.4113C87.852 30.5501 87.7159 30.6453 87.636 30.6972C87.1075 30.8704 86.8031 30.8268 86.7232 30.5676C86.659 30.3075 86.6913 29.892 86.8192 29.3212C86.8992 28.9572 87.0195 28.6024 87.1794 28.2563C87.3558 27.9102 87.4757 27.6157 87.5399 27.3734C87.5718 27.2176 87.5799 27.0793 87.5637 26.958C87.5637 26.8196 87.556 26.6896 87.5399 26.5683C87.5237 26.4474 87.5161 26.3435 87.5161 26.2567C87.5161 26.1528 87.548 26.0577 87.6121 25.9712C87.6279 25.781 87.6759 25.6335 87.7559 25.5296C87.8362 25.4087 87.8923 25.2529 87.9242 25.0626C87.9561 24.8894 87.9965 24.7074 88.0441 24.5171C88.0926 24.3268 88.1245 24.1448 88.1402 23.9716C88.1564 23.7639 88.1644 23.5736 88.1644 23.4007C88.1806 23.21 88.2363 22.9936 88.3324 22.7514C88.4127 22.5262 88.4927 22.3014 88.573 22.0762C88.6691 21.834 88.7329 21.6001 88.7652 21.3749C88.7971 21.2021 88.8128 21.0288 88.8128 20.8556C88.829 20.6653 88.8689 20.4837 88.9331 20.3105C88.965 20.1721 89.0292 20.0596 89.1253 19.9731C89.2375 19.8863 89.3094 19.7737 89.3417 19.6354C89.3575 19.5315 89.3494 19.4364 89.3175 19.3499C89.2856 19.2631 89.2856 19.1767 89.3175 19.0898C89.4136 18.7438 89.4455 18.4754 89.4136 18.2851C89.3817 18.0774 89.3256 17.9128 89.2456 17.7919C89.1814 17.6532 89.1172 17.5235 89.0534 17.4022C89.005 17.2809 89.005 17.1164 89.0534 16.9086C89.1334 16.8916 89.2052 16.8222 89.2694 16.7009C89.3336 16.5626 89.4216 16.4761 89.5339 16.4417C89.5977 16.4242 89.718 16.4155 89.894 16.4155C90.07 16.398 90.2622 16.3893 90.4705 16.3893C90.6788 16.3723 90.8791 16.3723 91.0712 16.3893C91.2634 16.3893 91.4152 16.3893 91.5275 16.3893C91.6554 16.4068 91.8157 16.4068 92.0079 16.3893C92.2001 16.3548 92.4003 16.3378 92.6086 16.3378C92.8165 16.3203 93.0087 16.3116 93.1851 16.3116C93.3773 16.3116 93.5372 16.3461 93.6656 16.4155H96.8602ZM93.209 23.0368C93.337 23.0368 93.4573 23.0023 93.5695 22.9329C93.6975 22.864 93.8174 22.8465 93.9296 22.8814C94.0899 22.9159 94.2498 22.9417 94.41 22.9591C94.5703 22.9766 94.7463 23.0023 94.9385 23.0368C95.0185 23.0542 95.0988 23.0455 95.1787 23.011C95.2587 22.9766 95.3628 22.9678 95.4912 22.9853C95.7472 22.7775 95.9716 22.6213 96.1638 22.5175C96.3717 22.4136 96.5639 22.2059 96.7403 21.8943C96.8203 21.7389 96.9083 21.5914 97.0044 21.453C97.1004 21.2972 97.1646 21.1672 97.1965 21.0633C97.3088 20.6653 97.2926 20.3279 97.1485 20.0508C97.0044 19.7567 96.8683 19.497 96.7403 19.2718C96.58 19.0122 96.4278 18.8306 96.2837 18.7267C96.1396 18.6054 95.8994 18.5622 95.5631 18.5967C95.291 18.6141 95.0108 18.6141 94.7225 18.5967C94.4343 18.5622 94.1537 18.5535 93.8816 18.5705C93.6252 18.588 93.3931 18.6399 93.1851 18.7267C92.9768 18.8132 92.8246 18.9689 92.7285 19.1937C92.6486 19.4538 92.5525 19.7392 92.4403 20.0508C92.328 20.3624 92.2243 20.6828 92.1282 21.0118C92.0321 21.3234 91.9518 21.6433 91.8876 21.9724C91.8238 22.3014 91.7915 22.6213 91.7915 22.9329C92.0321 22.8984 92.2719 22.9159 92.5125 22.9853C92.7524 23.0368 92.9849 23.0542 93.209 23.0368ZM114.636 18.6486C114.796 18.9947 114.916 19.315 114.997 19.6092C115.077 19.9038 115.14 20.3018 115.189 20.8041C115.221 21.1502 115.253 21.4618 115.285 21.7389C115.333 21.9981 115.341 22.3272 115.309 22.7252C115.293 23.0023 115.253 23.2969 115.189 23.6085C115.125 23.9026 115.044 24.1793 114.948 24.4394C114.805 24.9064 114.668 25.3136 114.54 25.6596C114.412 26.0057 114.26 26.378 114.083 26.776C113.972 27.0012 113.859 27.1832 113.748 27.3215C113.635 27.4599 113.515 27.6069 113.387 27.7632C113.355 27.8147 113.323 27.8753 113.291 27.9447C113.275 28.0141 113.243 28.0748 113.195 28.1263C112.987 28.3864 112.698 28.6543 112.33 28.9315C111.978 29.2086 111.649 29.4076 111.345 29.5289C111.233 29.5634 111.113 29.5891 110.985 29.6066C110.873 29.6066 110.753 29.624 110.624 29.6585C110.464 29.7279 110.328 29.8318 110.216 29.9701C110.104 30.0914 109.96 30.1779 109.784 30.2298C109.688 30.2643 109.567 30.2904 109.424 30.3075C109.295 30.3424 109.167 30.3769 109.039 30.4113C108.719 30.4982 108.318 30.5846 107.838 30.6714C107.374 30.7578 106.941 30.7491 106.541 30.6453C106.477 30.6278 106.413 30.5933 106.349 30.5414C106.285 30.4895 106.212 30.4462 106.133 30.4113C106.053 30.3769 105.972 30.3511 105.892 30.3337C105.812 30.3162 105.74 30.2904 105.676 30.256C105.468 30.1691 105.268 30.0482 105.076 29.892C104.883 29.7366 104.683 29.6153 104.475 29.5289C104.251 29.3901 104.027 29.2688 103.802 29.1649C103.578 29.044 103.426 28.8363 103.346 28.5417C103.074 28.4553 102.882 28.2563 102.77 27.9447C102.657 27.6331 102.521 27.356 102.361 27.1138C102.313 27.0274 102.241 26.958 102.145 26.906C102.065 26.8367 102.009 26.759 101.977 26.6721C101.865 26.4819 101.777 26.179 101.713 25.7635C101.648 25.3306 101.608 24.9671 101.592 24.6729C101.577 24.3613 101.592 24.0672 101.641 23.79C101.705 23.4959 101.769 23.21 101.833 22.9329C101.913 22.6562 101.993 22.3878 102.073 22.1282C102.169 21.8685 102.249 21.6176 102.313 21.3749C102.377 21.0808 102.497 20.8473 102.673 20.674C102.849 20.5008 103.018 20.3105 103.178 20.1028C103.242 20.0334 103.29 19.9557 103.322 19.8693C103.354 19.7824 103.402 19.696 103.466 19.6092C103.594 19.4364 103.738 19.2893 103.898 19.168C104.059 19.0296 104.211 18.8908 104.355 18.7525C104.515 18.6141 104.683 18.4841 104.859 18.3628C105.036 18.2244 105.18 18.0861 105.292 17.9473C105.42 17.757 105.516 17.5667 105.58 17.3765C105.66 17.1858 105.78 17.0212 105.94 16.8829C106.116 16.7271 106.309 16.6145 106.517 16.5455C106.741 16.4761 106.997 16.398 107.286 16.3116C107.558 16.2422 107.822 16.1471 108.078 16.0262C108.351 15.8874 108.639 15.801 108.943 15.7661C109.232 15.7316 109.544 15.7146 109.88 15.7146C110.216 15.6971 110.544 15.7059 110.865 15.7404C111.201 15.7748 111.513 15.8355 111.802 15.9223C112.106 16.0087 112.37 16.1301 112.595 16.2854C112.706 16.3548 112.819 16.4587 112.93 16.597C113.059 16.7358 113.179 16.8654 113.291 16.9868C113.547 17.2639 113.763 17.5493 113.94 17.8434C114.132 18.1206 114.364 18.389 114.636 18.6486ZM109.399 17.4803C109.335 17.4803 109.239 17.5061 109.111 17.558C108.999 17.61 108.879 17.6706 108.751 17.7396C108.639 17.7919 108.535 17.8522 108.439 17.9216C108.343 17.9909 108.271 18.0429 108.222 18.0774C108.03 18.2676 107.854 18.5103 107.694 18.8044C107.55 19.0815 107.382 19.3325 107.189 19.5577C107.11 19.6441 107.022 19.7131 106.925 19.7654C106.845 19.7999 106.781 19.8518 106.733 19.9208C106.461 20.2498 106.261 20.6308 106.133 21.0633C106.02 21.4962 105.9 21.9117 105.772 22.3097C105.628 22.7252 105.492 23.193 105.364 23.7123C105.236 24.2317 105.196 24.7248 105.244 25.1922C105.26 25.2961 105.292 25.4345 105.34 25.6077C105.404 25.7635 105.46 25.9106 105.508 26.0489C105.572 26.2052 105.628 26.3605 105.676 26.5168C105.74 26.6551 105.804 26.7847 105.868 26.906C105.965 27.1138 106.084 27.339 106.229 27.5812C106.389 27.8064 106.565 28.0054 106.757 28.1786C106.965 28.334 107.189 28.4553 107.43 28.5417C107.686 28.6111 107.958 28.6024 108.246 28.516C108.422 28.4466 108.639 28.3427 108.895 28.2044C109.151 28.0486 109.383 27.9015 109.592 27.7632C109.896 27.5554 110.112 27.3477 110.24 27.14C110.368 26.9148 110.496 26.6289 110.624 26.2828C110.657 26.1964 110.697 26.1183 110.745 26.0489C110.809 25.9625 110.865 25.8761 110.913 25.7897C111.009 25.599 111.089 25.3913 111.153 25.1665C111.217 24.9413 111.297 24.7248 111.393 24.5171C111.585 24.0497 111.706 23.5998 111.754 23.1668C111.802 22.7339 111.842 22.2146 111.873 21.6088C111.89 21.2798 111.866 21.0376 111.802 20.8818C111.754 20.726 111.714 20.5095 111.681 20.2324C111.666 20.0421 111.657 19.8693 111.657 19.7131C111.657 19.5402 111.626 19.3931 111.561 19.2718C111.481 19.116 111.329 19.0122 111.105 18.9602C110.897 18.9083 110.729 18.8131 110.601 18.6744C110.473 18.4496 110.336 18.2332 110.192 18.0254C110.048 17.8177 109.872 17.6444 109.664 17.5061C109.584 17.5235 109.527 17.5235 109.496 17.5061C109.464 17.4886 109.431 17.4803 109.399 17.4803ZM126.239 19.8431C126.463 20.1547 126.519 20.475 126.407 20.8041C126.294 21.1157 126.11 21.3492 125.854 21.505C125.79 21.5394 125.726 21.5656 125.662 21.5827C125.598 21.5827 125.526 21.6001 125.446 21.635C125.286 21.7214 125.15 21.834 125.037 21.9724C124.941 22.0937 124.829 22.1714 124.701 22.2059C124.573 22.2233 124.421 22.2146 124.245 22.1801C124.084 22.1282 123.917 22.085 123.741 22.0505C123.372 22.0156 122.972 22.0069 122.539 22.0243C122.123 22.0418 121.73 22.0505 121.362 22.0505C121.042 22.0505 120.754 22.033 120.497 21.9981C120.241 21.9466 120.025 21.8511 119.849 21.7127C119.464 21.834 119.056 21.9379 118.624 22.0243C118.191 22.1107 117.759 22.1282 117.327 22.0762C117.054 22.0418 116.79 21.9724 116.534 21.8685C116.293 21.7646 116.054 21.7127 115.813 21.7127C115.781 21.505 115.789 21.3234 115.837 21.1672C115.901 20.9944 115.981 20.8386 116.077 20.7002C116.174 20.544 116.27 20.4056 116.366 20.2847C116.462 20.1634 116.55 20.0334 116.63 19.895C116.79 19.8256 116.95 19.7912 117.111 19.7912C117.287 19.7737 117.455 19.7824 117.615 19.8169C117.791 19.8344 117.967 19.8605 118.143 19.895C118.319 19.9295 118.503 19.9382 118.696 19.9208C118.792 19.9208 118.88 19.9038 118.96 19.8693C119.056 19.8169 119.152 19.7912 119.248 19.7912C119.409 19.7737 119.568 19.7737 119.729 19.7912C119.889 19.7912 120.057 19.7912 120.233 19.7912C120.393 19.7912 120.562 19.7824 120.738 19.7654C120.93 19.748 121.066 19.7567 121.146 19.7912C121.258 19.8086 121.354 19.8605 121.434 19.947C121.531 20.0334 121.634 20.077 121.747 20.077C121.826 20.077 121.899 20.0508 121.963 19.9989C122.043 19.9295 122.139 19.8776 122.251 19.8431C122.379 19.8086 122.531 19.7912 122.707 19.7912C122.9 19.7737 123.084 19.7654 123.26 19.7654C123.436 19.7654 123.604 19.7654 123.764 19.7654C123.925 19.7654 124.053 19.7567 124.149 19.7392C124.501 19.7047 124.845 19.7047 125.182 19.7392C125.518 19.7737 125.87 19.8086 126.239 19.8431ZM127.488 28.4121C127.6 28.135 127.696 27.8753 127.776 27.6331C127.856 27.3734 127.96 27.0876 128.088 26.776C128.152 26.6032 128.2 26.4212 128.232 26.2309C128.264 26.0406 128.32 25.8499 128.4 25.6596C128.481 25.5038 128.577 25.348 128.689 25.1922C128.817 25.0364 128.913 24.8632 128.977 24.6729C129.073 24.3788 129.081 24.0497 129.001 23.6862C128.921 23.3052 128.929 22.9246 129.025 22.5436C129.105 22.1801 129.193 21.8253 129.289 21.4788C129.402 21.1157 129.473 20.7953 129.506 20.5182C129.538 20.3279 129.553 20.1372 129.553 19.947C129.553 19.7392 129.569 19.5315 129.602 19.3238C129.634 19.0986 129.698 18.8821 129.794 18.6744C129.89 18.4496 129.946 18.2419 129.962 18.0512C129.994 17.6532 129.906 17.2984 129.698 16.9868C129.506 16.6577 129.305 16.381 129.097 16.1558C129.113 16.052 129.161 15.9738 129.241 15.9223C129.337 15.8529 129.41 15.8268 129.457 15.8442C129.649 15.8787 129.866 15.9481 130.106 16.052C130.346 16.1558 130.578 16.2252 130.802 16.2597C130.995 16.2942 131.203 16.2942 131.427 16.2597C131.667 16.2252 131.916 16.2252 132.172 16.2597C132.444 16.2942 132.773 16.3291 133.157 16.3636C133.541 16.398 133.918 16.4155 134.286 16.4155C134.702 16.4329 135.102 16.4242 135.487 16.3893C135.871 16.3548 136.247 16.3636 136.616 16.4155C136.888 16.45 137.136 16.5281 137.361 16.6494C137.585 16.7703 137.833 16.8135 138.105 16.779C138.329 17.0561 138.585 17.2726 138.874 17.428C139.178 17.5667 139.45 17.7483 139.691 17.9735C140.027 18.2676 140.315 18.6229 140.556 19.0383C140.795 19.4364 141.084 19.7824 141.42 20.077C141.42 20.2154 141.452 20.345 141.516 20.4663C141.58 20.5876 141.62 20.726 141.636 20.8818C141.636 20.9682 141.62 21.072 141.588 21.1934C141.556 21.2972 141.54 21.4011 141.54 21.505C141.556 21.6608 141.604 21.7904 141.684 21.8943C141.764 21.9811 141.797 22.1194 141.78 22.3097C141.764 22.9159 141.62 23.5129 141.348 24.1016C141.076 24.6904 140.803 25.2097 140.531 25.6596C140.355 25.6771 140.227 25.7548 140.147 25.8936C140.083 26.0319 139.995 26.1877 139.883 26.3605C139.723 26.6032 139.531 26.8109 139.306 26.9837C139.098 27.14 138.906 27.339 138.73 27.5812C138.377 27.7195 138.049 27.9015 137.745 28.1263C137.457 28.3515 137.128 28.5592 136.76 28.7495C136.632 28.8189 136.496 28.8882 136.352 28.9572C136.224 29.0096 136.095 29.0698 135.967 29.1392C135.807 29.1911 135.655 29.2518 135.511 29.3212C135.367 29.3901 135.23 29.4421 135.102 29.4765C135.006 29.5114 134.902 29.5202 134.79 29.5027C134.694 29.4853 134.598 29.494 134.502 29.5289C134.294 29.5804 134.094 29.676 133.901 29.8143C133.709 29.9356 133.517 30.0133 133.325 30.0482C133.101 30.0827 132.876 30.0653 132.652 29.9959C132.428 29.9269 132.212 29.8663 132.004 29.8143C131.731 29.8488 131.459 29.8663 131.187 29.8663C130.915 29.8488 130.634 29.8318 130.346 29.8143C130.058 29.7969 129.754 29.7969 129.433 29.8143C129.113 29.8318 128.769 29.875 128.4 29.9444C128.304 29.9614 128.2 29.9959 128.088 30.0482C127.992 30.0997 127.896 30.1346 127.8 30.1521C127.624 30.1866 127.424 30.2036 127.2 30.2036C126.991 30.2036 126.791 30.2036 126.599 30.2036C126.519 30.2036 126.423 30.1953 126.311 30.1779C126.198 30.1779 126.094 30.1691 125.998 30.1521C125.886 30.1346 125.79 30.0997 125.71 30.0482C125.63 30.0133 125.582 29.9614 125.566 29.892C125.55 29.7881 125.582 29.7017 125.662 29.6328C125.726 29.5459 125.814 29.4765 125.926 29.425C126.022 29.3556 126.127 29.3037 126.239 29.2688C126.351 29.2173 126.439 29.1737 126.503 29.1392C126.695 29.0179 126.863 28.8882 127.007 28.7495C127.135 28.5941 127.296 28.4815 127.488 28.4121ZM133.877 18.3628C133.749 18.5015 133.653 18.6661 133.589 18.8564C133.541 19.0466 133.493 19.2544 133.445 19.4796C133.413 19.6873 133.381 19.9038 133.349 20.1285C133.317 20.3537 133.269 20.5702 133.205 20.7779C133.141 20.9162 133.077 21.055 133.012 21.1934C132.949 21.3147 132.901 21.4443 132.869 21.5827C132.788 21.9117 132.74 22.232 132.724 22.5436C132.708 22.8552 132.66 23.1843 132.58 23.5304C132.548 23.7207 132.484 23.9114 132.388 24.1016C132.308 24.2749 132.252 24.4565 132.22 24.6472C132.188 24.8374 132.188 25.019 132.22 25.1922C132.252 25.3655 132.252 25.5471 132.22 25.7373C132.188 25.8761 132.14 26.0057 132.076 26.127C132.028 26.2484 131.988 26.378 131.955 26.5168C131.876 26.9837 131.955 27.3302 132.196 27.5554C132.436 27.7632 132.724 27.9102 133.061 27.9966C133.637 28.135 134.165 28.1005 134.646 27.8928C135.142 27.6676 135.535 27.4167 135.823 27.14C136.031 26.8799 136.247 26.6032 136.472 26.309C136.696 25.9974 136.872 25.6596 137 25.2961C137.048 25.1578 137.096 24.9758 137.144 24.751C137.193 24.5084 137.248 24.2749 137.312 24.0497C137.361 23.8594 137.417 23.6862 137.481 23.5304C137.561 23.3571 137.625 23.1843 137.673 23.011C137.849 22.5611 137.913 22.085 137.865 21.5827C137.833 21.0633 137.753 20.6566 137.625 20.3624C137.577 20.2586 137.497 20.146 137.385 20.0247C137.289 19.9038 137.193 19.7824 137.096 19.6615C136.984 19.5228 136.88 19.3844 136.784 19.2461C136.704 19.1073 136.632 19.0034 136.568 18.9345C136.344 18.7093 136.071 18.5535 135.751 18.4666C135.447 18.3628 135.167 18.1987 134.91 17.9735C134.638 17.9909 134.438 18.0429 134.31 18.1293C134.182 18.2157 134.037 18.2938 133.877 18.3628ZM154.44 17.8434C154.008 18.0686 153.575 18.1812 153.143 18.1812C152.71 18.1812 152.23 18.1638 151.702 18.1293C151.557 18.1293 151.397 18.138 151.221 18.155C151.061 18.1725 150.909 18.1899 150.765 18.2074C150.012 18.2938 149.379 18.6054 148.867 19.1422C148.354 19.6615 147.978 20.3192 147.738 21.1157C147.658 21.4098 147.594 21.6782 147.546 21.9204C147.498 22.1627 147.602 22.3014 147.858 22.3359C148.018 22.3704 148.178 22.3704 148.339 22.3359C148.498 22.3014 148.659 22.2582 148.819 22.2059C148.995 22.1369 149.163 22.0762 149.323 22.0243C149.483 21.9724 149.643 21.9466 149.804 21.9466C149.868 21.9466 149.924 21.9636 149.972 21.9981C150.036 22.033 150.1 22.0505 150.164 22.0505C150.436 22.085 150.725 22.0675 151.029 21.9981C151.333 21.9117 151.613 21.903 151.87 21.9724C151.918 21.9898 151.958 22.0243 151.99 22.0762C152.037 22.1107 152.102 22.1456 152.182 22.1801C152.39 22.2665 152.638 22.3272 152.926 22.3621C153.215 22.3791 153.447 22.431 153.623 22.5175C153.703 22.5524 153.783 22.6213 153.863 22.7252C153.943 22.812 153.983 22.8727 153.983 22.9072C153.983 23.0975 153.879 23.2188 153.671 23.2707C153.463 23.3226 153.287 23.3571 153.143 23.3746C153.014 23.392 152.886 23.392 152.758 23.3746C152.63 23.3571 152.502 23.3658 152.374 23.4007C152.15 23.4352 151.934 23.4872 151.725 23.5561C151.517 23.6085 151.293 23.6774 151.053 23.7639C150.781 23.8677 150.524 23.9978 150.284 24.1536C150.044 24.2919 149.78 24.3788 149.492 24.4132C149.283 24.4477 149.083 24.4477 148.891 24.4132C148.699 24.3788 148.49 24.3788 148.266 24.4132C148.186 24.4307 148.106 24.4564 148.026 24.4909C147.962 24.5258 147.89 24.5516 147.81 24.569C147.666 24.6035 147.554 24.6297 147.474 24.6472C147.41 24.6472 147.353 24.6642 147.305 24.6987C147.274 24.7336 147.233 24.7855 147.186 24.8549C147.153 24.9239 147.097 25.0277 147.017 25.1665C146.889 25.4781 146.809 25.8154 146.777 26.179C146.745 26.5251 146.713 26.8973 146.681 27.2953C146.857 27.486 147.025 27.6418 147.186 27.7632C147.345 27.867 147.594 27.9185 147.93 27.9185C148.106 27.9185 148.242 27.9015 148.339 27.867C148.45 27.8147 148.595 27.7802 148.771 27.7632C148.947 27.7632 149.123 27.7802 149.299 27.8147C149.475 27.8321 149.676 27.8321 149.9 27.8147C150.364 27.7802 150.756 27.7195 151.077 27.6331C151.397 27.5292 151.79 27.4948 152.254 27.5292C152.35 27.5292 152.518 27.538 152.758 27.5554C153.014 27.5725 153.271 27.5986 153.527 27.6331C153.783 27.6506 154.008 27.685 154.2 27.737C154.408 27.7889 154.512 27.8583 154.512 27.9447C154.512 28.0486 154.448 28.1612 154.32 28.2825C154.207 28.3864 154.071 28.4902 153.912 28.5941C153.767 28.6805 153.615 28.7582 153.455 28.8276C153.311 28.8795 153.215 28.914 153.167 28.9315C152.895 29.0179 152.63 29.044 152.374 29.0096C152.118 28.9572 151.838 28.9489 151.533 28.9834C151.309 29.0179 151.109 29.0698 150.933 29.1392C150.756 29.2086 150.58 29.2863 150.404 29.3727C150.228 29.4421 150.044 29.5202 149.852 29.6066C149.676 29.676 149.467 29.7192 149.227 29.7366C148.907 29.7711 148.634 29.8143 148.41 29.8663C148.186 29.9007 147.922 29.9527 147.618 30.0221C147.49 30.0565 147.37 30.0914 147.257 30.1259C147.145 30.1779 147.025 30.2211 146.897 30.256C146.433 30.3598 145.928 30.3769 145.384 30.3075C144.855 30.256 144.279 30.2643 143.654 30.3337C143.254 30.3856 142.894 30.4462 142.573 30.5152C142.269 30.602 141.957 30.6278 141.636 30.5933C141.524 30.5759 141.42 30.5588 141.324 30.5414C141.212 30.5414 141.116 30.4982 141.036 30.4113C141.068 30.273 141.14 30.1521 141.252 30.0482C141.364 29.9444 141.476 29.8488 141.588 29.7624C141.701 29.6585 141.805 29.5547 141.901 29.4508C142.013 29.3295 142.117 29.2173 142.213 29.1134C142.309 28.9747 142.389 28.8101 142.453 28.6199C142.517 28.4121 142.573 28.2044 142.621 27.9966C142.685 27.7889 142.749 27.5986 142.813 27.4254C142.894 27.2351 142.99 27.0706 143.101 26.9322C142.973 26.6206 142.973 26.2654 143.101 25.8674C143.246 25.4694 143.374 25.0539 143.486 24.621C143.518 24.5171 143.534 24.4132 143.534 24.3094C143.534 24.2055 143.55 24.1104 143.582 24.0239C143.614 23.8507 143.686 23.7036 143.798 23.5823C143.911 23.444 143.982 23.3052 144.015 23.1668C144.03 23.0804 144.03 22.9936 144.015 22.9072C144.015 22.8208 144.022 22.7339 144.038 22.6475C144.07 22.3878 144.127 22.1456 144.207 21.9204C144.303 21.6782 144.367 21.4618 144.399 21.2711C144.431 21.1327 144.431 20.9944 144.399 20.8556C144.383 20.7002 144.383 20.5527 144.399 20.4144C144.431 20.0683 144.495 19.7392 144.591 19.4276C144.703 19.116 144.767 18.8389 144.783 18.5967C144.799 18.4064 144.775 18.1987 144.711 17.9735C144.647 17.7483 144.583 17.5755 144.519 17.4542C144.471 17.3677 144.399 17.2809 144.303 17.1945C144.207 17.0906 144.111 16.9955 144.015 16.9086C143.919 16.8222 143.83 16.7445 143.75 16.6752C143.686 16.5887 143.654 16.5106 143.654 16.4417C143.67 16.251 143.742 16.1558 143.87 16.1558C143.999 16.1384 144.118 16.0777 144.231 15.9738C144.807 15.9913 145.352 16.0607 145.864 16.1816C146.393 16.3029 146.937 16.381 147.498 16.4155C147.706 16.45 147.922 16.45 148.146 16.4155C148.37 16.3636 148.586 16.3291 148.795 16.3116C149.131 16.2942 149.507 16.3461 149.924 16.4674C150.356 16.5887 150.781 16.6319 151.197 16.597C151.757 16.5626 152.286 16.5455 152.782 16.5455C153.279 16.5455 153.799 16.5281 154.344 16.4932C154.44 16.58 154.584 16.6232 154.776 16.6232C154.968 16.6058 155.161 16.5887 155.353 16.5713C155.561 16.5368 155.745 16.5281 155.905 16.5455C156.081 16.5626 156.201 16.6407 156.265 16.779C156.361 17.0212 156.346 17.229 156.218 17.4022C156.089 17.5755 155.913 17.6881 155.689 17.7396C155.625 17.7396 155.537 17.7483 155.425 17.7658C155.312 17.7832 155.193 17.8002 155.065 17.8177C154.936 17.8351 154.808 17.8434 154.68 17.8434C154.568 17.8434 154.488 17.8434 154.44 17.8434ZM161.983 26.309C162.223 26.1528 162.407 25.9451 162.535 25.6858C162.679 25.4087 162.831 25.149 162.991 24.9064C163.168 24.6816 163.344 24.4652 163.52 24.2574C163.696 24.0497 163.864 23.8245 164.024 23.5823C164.041 23.4784 164.048 23.4178 164.048 23.4007C164.064 23.3833 164.072 23.3746 164.072 23.3746C164.089 23.3571 164.097 23.3401 164.097 23.3226C164.112 23.3052 164.137 23.2533 164.169 23.1668C164.377 23.0285 164.577 22.8727 164.769 22.6994C164.977 22.5092 165.033 22.2059 164.937 21.7904C165.049 21.5482 165.154 21.3492 165.25 21.1934C165.346 21.0201 165.442 20.8643 165.538 20.726C165.65 20.5702 165.754 20.4144 165.85 20.2586C165.962 20.0853 166.082 19.8863 166.211 19.6615C166.435 19.6266 166.571 19.5053 166.619 19.2976C166.667 19.0728 166.731 18.8476 166.811 18.6229C166.891 18.4322 166.979 18.2506 167.075 18.0774C167.171 17.9041 167.259 17.7396 167.339 17.5842C167.452 17.4109 167.556 17.2464 167.652 17.0906C167.748 16.9348 167.852 16.7965 167.964 16.6752C168.012 16.4849 168.1 16.2771 168.228 16.052C168.356 15.8268 168.509 15.6278 168.685 15.4545C168.877 15.2817 169.085 15.1691 169.309 15.1171C169.549 15.0478 169.798 15.0739 170.054 15.1953C170.198 15.2642 170.326 15.403 170.438 15.6107C170.566 15.8185 170.638 16.0175 170.654 16.2078C170.654 16.5194 170.558 16.8222 170.366 17.1164C170.174 17.4109 170.038 17.6619 169.958 17.8696C169.974 18.0254 169.95 18.1638 169.886 18.2851C169.821 18.4064 169.742 18.519 169.645 18.6229C169.549 18.7267 169.453 18.8219 169.357 18.9083C169.261 18.9947 169.189 19.0898 169.141 19.1937C168.949 19.367 168.797 19.514 168.685 19.6354C168.588 19.7392 168.428 19.8776 168.204 20.0508C168.06 20.1892 167.948 20.3363 167.868 20.4925C167.788 20.6479 167.724 20.8211 167.676 21.0118C167.628 21.1846 167.58 21.3749 167.532 21.5827C167.483 21.7904 167.411 22.0069 167.315 22.232C167.171 22.5781 166.979 22.8897 166.739 23.1668C166.499 23.4265 166.29 23.7207 166.114 24.0497C165.906 24.3958 165.77 24.7336 165.706 25.0626C165.658 25.3742 165.53 25.7029 165.322 26.0489C165.257 26.1703 165.177 26.2916 165.081 26.4129C164.985 26.5168 164.897 26.6289 164.817 26.7502C164.513 27.1832 164.2 27.6157 163.88 28.0486C163.576 28.4815 163.312 28.9572 163.087 29.4765C162.991 29.494 162.903 29.5547 162.823 29.6585C162.759 29.7624 162.687 29.8575 162.607 29.9444C162.559 29.9788 162.495 30.0046 162.415 30.0221C162.335 30.0565 162.263 30.0914 162.199 30.1259C162.103 30.2123 162.015 30.2992 161.934 30.3856C161.854 30.472 161.726 30.5501 161.55 30.6191C161.422 30.654 161.27 30.6797 161.094 30.6972C160.934 30.7317 160.806 30.7404 160.709 30.7229C160.453 30.6714 160.221 30.4895 160.013 30.1779C159.805 29.8837 159.661 29.5891 159.581 29.295C159.324 29.0528 159.14 28.7757 159.028 28.4641C158.916 28.135 158.828 27.7544 158.763 27.3215C158.748 27.2351 158.74 27.157 158.74 27.0876C158.756 27.0186 158.763 26.9405 158.763 26.8541C158.748 26.6809 158.7 26.508 158.62 26.3348C158.539 26.1445 158.451 25.9538 158.355 25.7635C158.259 25.5732 158.171 25.3825 158.091 25.1922C158.011 24.9845 157.971 24.7855 157.971 24.5948C157.971 24.422 157.979 24.2487 157.995 24.0755C158.011 23.9026 158.003 23.7207 157.971 23.5304C157.939 23.3571 157.875 23.21 157.779 23.0891C157.699 22.9504 157.651 22.7601 157.635 22.5175C157.619 22.3791 157.595 22.1976 157.563 21.9724C157.547 21.7301 157.522 21.4875 157.491 21.2453C157.474 20.9856 157.459 20.7434 157.443 20.5182C157.426 20.276 157.411 20.094 157.394 19.9731C157.363 19.6266 157.282 19.2461 157.154 18.8306C157.026 18.3977 156.93 18.0341 156.866 17.7396C156.834 17.5667 156.818 17.3416 156.818 17.0649C156.818 16.7877 156.826 16.6232 156.842 16.5713C156.874 16.4329 156.97 16.3029 157.13 16.1816C157.306 16.0432 157.467 15.9738 157.61 15.9738C157.755 15.9738 157.875 16.0262 157.971 16.1301C158.067 16.2339 158.195 16.3116 158.355 16.3636C158.483 16.398 158.587 16.4242 158.667 16.4417C158.748 16.4587 158.876 16.4674 159.052 16.4674C159.212 16.45 159.372 16.4674 159.532 16.5194C159.709 16.5713 159.861 16.6145 159.989 16.6494C160.261 16.7358 160.461 16.9435 160.589 17.2726C160.718 17.6012 160.757 17.9648 160.709 18.3628C160.678 18.519 160.661 18.6918 160.661 18.8821C160.661 19.0728 160.638 19.2461 160.589 19.4015C160.557 19.5228 160.565 19.6354 160.613 19.7392C160.678 19.8256 160.701 19.9208 160.685 20.0247C160.685 20.1285 160.701 20.293 160.734 20.5182C160.766 20.726 160.806 20.9595 160.854 21.2195C160.902 21.4618 160.95 21.6953 160.998 21.9204C161.046 22.1456 161.086 22.3097 161.118 22.4136C161.182 22.6388 161.27 22.8552 161.382 23.063C161.494 23.2533 161.55 23.444 161.55 23.6342C161.55 23.7381 161.534 23.842 161.502 23.9458C161.47 24.0323 161.454 24.1191 161.454 24.2055C161.422 24.6384 161.454 25.0277 161.55 25.3742C161.662 25.7029 161.806 26.0145 161.983 26.309ZM181.464 17.8434C181.032 18.0686 180.599 18.1812 180.167 18.1812C179.734 18.1812 179.254 18.1638 178.726 18.1293C178.581 18.1293 178.421 18.138 178.245 18.155C178.085 18.1725 177.933 18.1899 177.789 18.2074C177.036 18.2938 176.403 18.6054 175.891 19.1422C175.379 19.6615 175.002 20.3192 174.762 21.1157C174.682 21.4098 174.618 21.6782 174.57 21.9204C174.522 22.1627 174.626 22.3014 174.882 22.3359C175.042 22.3704 175.202 22.3704 175.363 22.3359C175.523 22.3014 175.683 22.2582 175.843 22.2059C176.019 22.1369 176.187 22.0762 176.347 22.0243C176.508 21.9724 176.668 21.9466 176.828 21.9466C176.892 21.9466 176.948 21.9636 176.996 21.9981C177.06 22.033 177.124 22.0505 177.188 22.0505C177.46 22.085 177.749 22.0675 178.053 21.9981C178.357 21.9117 178.638 21.903 178.894 21.9724C178.942 21.9898 178.982 22.0243 179.014 22.0762C179.062 22.1107 179.126 22.1456 179.206 22.1801C179.414 22.2665 179.663 22.3272 179.951 22.3621C180.239 22.3791 180.471 22.431 180.647 22.5175C180.727 22.5524 180.808 22.6213 180.887 22.7252C180.967 22.812 181.008 22.8727 181.008 22.9072C181.008 23.0975 180.904 23.2188 180.695 23.2707C180.487 23.3226 180.311 23.3571 180.167 23.3746C180.039 23.392 179.91 23.392 179.783 23.3746C179.655 23.3571 179.526 23.3658 179.398 23.4007C179.174 23.4352 178.958 23.4872 178.749 23.5561C178.541 23.6085 178.317 23.6774 178.077 23.7639C177.805 23.8677 177.549 23.9978 177.308 24.1536C177.068 24.2919 176.804 24.3788 176.516 24.4132C176.307 24.4477 176.107 24.4477 175.915 24.4132C175.723 24.3788 175.515 24.3788 175.29 24.4132C175.21 24.4307 175.13 24.4564 175.05 24.4909C174.986 24.5258 174.914 24.5516 174.834 24.569C174.69 24.6035 174.578 24.6297 174.498 24.6472C174.434 24.6472 174.378 24.6642 174.329 24.6987C174.298 24.7336 174.258 24.7855 174.21 24.8549C174.178 24.9239 174.122 25.0277 174.041 25.1665C173.913 25.4781 173.833 25.8154 173.801 26.179C173.769 26.5251 173.737 26.8973 173.705 27.2953C173.881 27.486 174.049 27.6418 174.21 27.7632C174.37 27.867 174.618 27.9185 174.954 27.9185C175.13 27.9185 175.266 27.9015 175.363 27.867C175.475 27.8147 175.619 27.7802 175.795 27.7632C175.971 27.7632 176.147 27.7802 176.323 27.8147C176.499 27.8321 176.7 27.8321 176.924 27.8147C177.388 27.7802 177.781 27.7195 178.101 27.6331C178.421 27.5292 178.814 27.4948 179.278 27.5292C179.374 27.5292 179.542 27.538 179.783 27.5554C180.039 27.5725 180.295 27.5986 180.551 27.6331C180.808 27.6506 181.032 27.685 181.224 27.737C181.432 27.7889 181.536 27.8583 181.536 27.9447C181.536 28.0486 181.472 28.1612 181.344 28.2825C181.232 28.3864 181.096 28.4902 180.936 28.5941C180.791 28.6805 180.639 28.7582 180.479 28.8276C180.335 28.8795 180.239 28.914 180.191 28.9315C179.919 29.0179 179.655 29.044 179.398 29.0096C179.142 28.9572 178.862 28.9489 178.557 28.9834C178.333 29.0179 178.133 29.0698 177.957 29.1392C177.781 29.2086 177.604 29.2863 177.428 29.3727C177.252 29.4421 177.068 29.5202 176.876 29.6066C176.7 29.676 176.492 29.7192 176.251 29.7366C175.931 29.7711 175.659 29.8143 175.435 29.8663C175.21 29.9007 174.946 29.9527 174.642 30.0221C174.514 30.0565 174.394 30.0914 174.282 30.1259C174.17 30.1779 174.049 30.2211 173.921 30.256C173.457 30.3598 172.952 30.3769 172.408 30.3075C171.88 30.256 171.303 30.2643 170.678 30.3337C170.278 30.3856 169.918 30.4462 169.597 30.5152C169.293 30.602 168.981 30.6278 168.66 30.5933C168.549 30.5759 168.444 30.5588 168.348 30.5414C168.236 30.5414 168.14 30.4982 168.06 30.4113C168.092 30.273 168.164 30.1521 168.276 30.0482C168.388 29.9444 168.5 29.8488 168.613 29.7624C168.725 29.6585 168.829 29.5547 168.925 29.4508C169.037 29.3295 169.141 29.2173 169.237 29.1134C169.333 28.9747 169.413 28.8101 169.477 28.6199C169.541 28.4121 169.597 28.2044 169.645 27.9966C169.71 27.7889 169.773 27.5986 169.838 27.4254C169.918 27.2351 170.014 27.0706 170.126 26.9322C169.998 26.6206 169.998 26.2654 170.126 25.8674C170.27 25.4694 170.398 25.0539 170.51 24.621C170.542 24.5171 170.558 24.4132 170.558 24.3094C170.558 24.2055 170.574 24.1104 170.606 24.0239C170.638 23.8507 170.71 23.7036 170.823 23.5823C170.935 23.444 171.007 23.3052 171.039 23.1668C171.055 23.0804 171.055 22.9936 171.039 22.9072C171.039 22.8208 171.047 22.7339 171.063 22.6475C171.095 22.3878 171.151 22.1456 171.231 21.9204C171.327 21.6782 171.391 21.4618 171.423 21.2711C171.455 21.1327 171.455 20.9944 171.423 20.8556C171.407 20.7002 171.407 20.5527 171.423 20.4144C171.455 20.0683 171.519 19.7392 171.615 19.4276C171.727 19.116 171.791 18.8389 171.807 18.5967C171.824 18.4064 171.799 18.1987 171.735 17.9735C171.671 17.7483 171.607 17.5755 171.543 17.4542C171.495 17.3677 171.423 17.2809 171.327 17.1945C171.231 17.0906 171.135 16.9955 171.039 16.9086C170.943 16.8222 170.855 16.7445 170.774 16.6752C170.71 16.5887 170.678 16.5106 170.678 16.4417C170.694 16.251 170.767 16.1558 170.895 16.1558C171.023 16.1384 171.143 16.0777 171.255 15.9738C171.831 15.9913 172.376 16.0607 172.888 16.1816C173.417 16.3029 173.961 16.381 174.522 16.4155C174.73 16.45 174.946 16.45 175.17 16.4155C175.394 16.3636 175.611 16.3291 175.819 16.3116C176.155 16.2942 176.532 16.3461 176.948 16.4674C177.38 16.5887 177.805 16.6319 178.221 16.597C178.782 16.5626 179.31 16.5455 179.806 16.5455C180.303 16.5455 180.823 16.5281 181.368 16.4932C181.464 16.58 181.608 16.6232 181.8 16.6232C181.992 16.6058 182.185 16.5887 182.377 16.5713C182.585 16.5368 182.769 16.5281 182.93 16.5455C183.106 16.5626 183.225 16.6407 183.29 16.779C183.386 17.0212 183.37 17.229 183.242 17.4022C183.114 17.5755 182.937 17.6881 182.713 17.7396C182.649 17.7396 182.561 17.7483 182.449 17.7658C182.337 17.7832 182.217 17.8002 182.089 17.8177C181.961 17.8351 181.832 17.8434 181.704 17.8434C181.592 17.8434 181.512 17.8434 181.464 17.8434ZM188.022 29.7366C187.91 29.7192 187.742 29.7624 187.517 29.8663C187.309 29.9701 187.117 30.0565 186.941 30.1259C186.765 30.1779 186.573 30.2385 186.364 30.3075C186.156 30.3769 185.956 30.403 185.764 30.3856C185.636 30.3681 185.516 30.3249 185.404 30.256C185.291 30.2036 185.187 30.1866 185.091 30.2036C185.011 30.2036 184.939 30.2385 184.875 30.3075C184.811 30.3769 184.731 30.4288 184.635 30.4637C184.459 30.5327 184.251 30.5846 184.01 30.6191C183.77 30.6714 183.538 30.6885 183.314 30.6714C183.089 30.654 182.905 30.5846 182.761 30.4637C182.633 30.3598 182.593 30.1866 182.641 29.9444C182.673 29.7881 182.729 29.6328 182.809 29.4765C182.905 29.3037 182.993 29.1134 183.073 28.9057C183.202 28.5417 183.298 28.1612 183.362 27.7632C183.426 27.3477 183.514 27.0186 183.626 26.776C183.69 26.6377 183.786 26.508 183.914 26.3867C184.042 26.2654 184.114 26.1358 184.13 25.9974C184.146 25.8936 184.13 25.8067 184.083 25.7373C184.034 25.6684 184.01 25.5732 184.01 25.4519C184.01 25.3655 184.026 25.2787 184.058 25.1922C184.106 25.0884 184.138 24.9671 184.154 24.8287C184.171 24.6904 184.171 24.569 184.154 24.4652C184.138 24.3439 184.146 24.24 184.179 24.1536C184.211 24.0497 184.259 23.9546 184.322 23.8677C184.387 23.7639 184.451 23.6687 184.515 23.5823C184.595 23.4784 184.659 23.3658 184.707 23.2445C184.755 23.1236 184.779 22.9853 184.779 22.8291C184.779 22.7426 184.803 22.6043 184.851 22.4136C184.899 22.2059 184.915 22.0505 184.899 21.9466C184.851 21.5827 184.851 21.2798 184.899 21.0376C184.963 20.7953 185.035 20.5789 185.115 20.3886C185.211 20.1809 185.307 19.9731 185.404 19.7654C185.516 19.5577 185.596 19.3063 185.644 19.0122C185.708 18.6486 185.756 18.2676 185.788 17.8696C185.82 17.4716 185.876 17.1164 185.956 16.8048C186.052 16.4761 186.188 16.2165 186.364 16.0262C186.557 15.8355 186.845 15.7661 187.229 15.8185C187.389 16.0262 187.493 16.2252 187.542 16.4155C187.605 16.6058 187.693 16.8222 187.806 17.0649C187.854 17.2032 187.982 17.3241 188.19 17.428C188.398 17.5318 188.542 17.6444 188.622 17.7658C188.702 17.8696 188.791 17.9822 188.887 18.1035C188.999 18.2074 189.071 18.3196 189.103 18.4409C189.151 18.6661 189.159 18.9257 189.127 19.2199C189.111 19.514 189.095 19.7824 189.079 20.0247C189.063 20.1634 189.047 20.3105 189.031 20.4663C189.015 20.6046 188.991 20.726 188.959 20.8298C188.927 20.9511 188.887 21.055 188.838 21.1414C188.807 21.2278 188.783 21.3147 188.767 21.4011C188.735 21.5743 188.71 21.7301 188.695 21.8685C188.695 21.9898 188.679 22.1107 188.646 22.232C188.566 22.4917 188.446 22.7169 188.286 22.9072C188.142 23.0975 188.03 23.3226 187.95 23.5823C187.902 23.7036 187.862 23.842 187.83 23.9978C187.814 24.1536 187.79 24.3007 187.758 24.4394C187.662 24.82 187.557 25.2529 187.446 25.7373C187.333 26.2222 187.293 26.6896 187.325 27.14C187.453 27.1051 187.565 27.0793 187.662 27.0618C187.758 27.0444 187.846 27.0361 187.926 27.0361C188.006 27.0186 188.094 27.0186 188.19 27.0361C188.302 27.0531 188.438 27.0793 188.599 27.1138C188.838 27.1832 189.103 27.2696 189.391 27.3734C189.679 27.4773 189.976 27.5467 190.28 27.5812C190.504 27.5986 190.728 27.5986 190.952 27.5812C191.193 27.5637 191.425 27.5725 191.649 27.6069C191.873 27.6418 192.082 27.685 192.274 27.737C192.482 27.7715 192.674 27.7715 192.85 27.737C192.93 27.7025 192.986 27.6763 193.019 27.6593C193.066 27.6244 193.122 27.5986 193.187 27.5812C193.443 27.5292 193.739 27.538 194.076 27.6069C194.411 27.6593 194.724 27.7025 195.012 27.737C195.06 27.737 195.132 27.737 195.229 27.737C195.325 27.7195 195.421 27.7195 195.517 27.737C195.613 27.737 195.693 27.7632 195.757 27.8147C195.821 27.867 195.853 27.9447 195.853 28.0486C195.837 28.2044 195.725 28.3257 195.517 28.4121C195.325 28.4985 195.164 28.5592 195.036 28.5941C194.844 28.6456 194.66 28.6718 194.484 28.6718C194.323 28.6718 194.147 28.698 193.955 28.7495C193.779 28.8018 193.619 28.8708 193.475 28.9572C193.347 29.0266 193.211 29.0785 193.066 29.1134C193.019 29.1479 192.97 29.1649 192.922 29.1649C192.874 29.1479 192.818 29.1479 192.754 29.1649C192.658 29.1998 192.546 29.2605 192.418 29.3469C192.29 29.4163 192.186 29.4595 192.105 29.4765C191.817 29.5459 191.505 29.5289 191.169 29.425C190.849 29.3212 190.52 29.2863 190.184 29.3212C190.056 29.3382 189.928 29.3727 189.799 29.425C189.671 29.4595 189.543 29.494 189.415 29.5289C189.287 29.5634 189.159 29.5891 189.031 29.6066C188.903 29.624 188.791 29.6498 188.695 29.6843L188.022 29.7366ZM207.888 18.6486C208.048 18.9947 208.168 19.315 208.248 19.6092C208.328 19.9038 208.392 20.3018 208.44 20.8041C208.472 21.1502 208.504 21.4618 208.536 21.7389C208.585 21.9981 208.592 22.3272 208.56 22.7252C208.544 23.0023 208.504 23.2969 208.44 23.6085C208.376 23.9026 208.296 24.1793 208.2 24.4394C208.056 24.9064 207.92 25.3136 207.792 25.6596C207.664 26.0057 207.511 26.378 207.335 26.776C207.223 27.0012 207.111 27.1832 206.999 27.3215C206.887 27.4599 206.767 27.6069 206.639 27.7632C206.607 27.8147 206.574 27.8753 206.542 27.9447C206.526 28.0141 206.494 28.0748 206.446 28.1263C206.238 28.3864 205.95 28.6543 205.582 28.9315C205.229 29.2086 204.901 29.4076 204.597 29.5289C204.485 29.5634 204.364 29.5891 204.236 29.6066C204.124 29.6066 204.004 29.624 203.876 29.6585C203.716 29.7279 203.58 29.8318 203.468 29.9701C203.355 30.0914 203.211 30.1779 203.035 30.2298C202.939 30.2643 202.819 30.2904 202.675 30.3075C202.547 30.3424 202.419 30.3769 202.29 30.4113C201.97 30.4982 201.57 30.5846 201.09 30.6714C200.625 30.7578 200.193 30.7491 199.792 30.6453C199.728 30.6278 199.664 30.5933 199.6 30.5414C199.536 30.4895 199.464 30.4462 199.384 30.4113C199.304 30.3769 199.224 30.3511 199.144 30.3337C199.064 30.3162 198.992 30.2904 198.927 30.256C198.72 30.1691 198.519 30.0482 198.327 29.892C198.135 29.7366 197.935 29.6153 197.727 29.5289C197.502 29.3901 197.278 29.2688 197.054 29.1649C196.83 29.044 196.678 28.8363 196.598 28.5417C196.325 28.4553 196.133 28.2563 196.021 27.9447C195.909 27.6331 195.773 27.356 195.613 27.1138C195.564 27.0274 195.493 26.958 195.396 26.906C195.317 26.8367 195.26 26.759 195.229 26.6721C195.116 26.4819 195.028 26.179 194.964 25.7635C194.9 25.3306 194.86 24.9671 194.844 24.6729C194.828 24.3613 194.844 24.0672 194.892 23.79C194.956 23.4959 195.02 23.21 195.084 22.9329C195.164 22.6562 195.244 22.3878 195.325 22.1282C195.421 21.8685 195.501 21.6176 195.564 21.3749C195.629 21.0808 195.749 20.8473 195.925 20.674C196.101 20.5008 196.269 20.3105 196.429 20.1028C196.493 20.0334 196.541 19.9557 196.574 19.8693C196.606 19.7824 196.654 19.696 196.717 19.6092C196.846 19.4364 196.99 19.2893 197.15 19.168C197.31 19.0296 197.462 18.8908 197.606 18.7525C197.767 18.6141 197.935 18.4841 198.111 18.3628C198.287 18.2244 198.431 18.0861 198.543 17.9473C198.671 17.757 198.768 17.5667 198.831 17.3765C198.912 17.1858 199.032 17.0212 199.192 16.8829C199.368 16.7271 199.56 16.6145 199.768 16.5455C199.992 16.4761 200.249 16.398 200.537 16.3116C200.809 16.2422 201.074 16.1471 201.33 16.0262C201.602 15.8874 201.89 15.801 202.194 15.7661C202.483 15.7316 202.795 15.7146 203.131 15.7146C203.468 15.6971 203.796 15.7059 204.116 15.7404C204.453 15.7748 204.765 15.8355 205.053 15.9223C205.358 16.0087 205.622 16.1301 205.846 16.2854C205.958 16.3548 206.07 16.4587 206.182 16.597C206.31 16.7358 206.43 16.8654 206.542 16.9868C206.799 17.2639 207.015 17.5493 207.191 17.8434C207.383 18.1206 207.616 18.389 207.888 18.6486ZM202.651 17.4803C202.587 17.4803 202.491 17.5061 202.363 17.558C202.251 17.61 202.131 17.6706 202.002 17.7396C201.89 17.7919 201.786 17.8522 201.69 17.9216C201.594 17.9909 201.522 18.0429 201.474 18.0774C201.282 18.2676 201.106 18.5103 200.945 18.8044C200.802 19.0815 200.633 19.3325 200.441 19.5577C200.361 19.6441 200.273 19.7131 200.177 19.7654C200.097 19.7999 200.033 19.8518 199.984 19.9208C199.712 20.2498 199.512 20.6308 199.384 21.0633C199.272 21.4962 199.152 21.9117 199.024 22.3097C198.88 22.7252 198.743 23.193 198.615 23.7123C198.487 24.2317 198.447 24.7248 198.495 25.1922C198.511 25.2961 198.543 25.4345 198.592 25.6077C198.655 25.7635 198.711 25.9106 198.76 26.0489C198.824 26.2052 198.88 26.3605 198.927 26.5168C198.992 26.6551 199.056 26.7847 199.12 26.906C199.216 27.1138 199.336 27.339 199.48 27.5812C199.64 27.8064 199.816 28.0054 200.009 28.1786C200.217 28.334 200.441 28.4553 200.681 28.5417C200.938 28.6111 201.21 28.6024 201.498 28.516C201.674 28.4466 201.89 28.3427 202.147 28.2044C202.403 28.0486 202.635 27.9015 202.843 27.7632C203.148 27.5554 203.364 27.3477 203.492 27.14C203.62 26.9148 203.748 26.6289 203.876 26.2828C203.908 26.1964 203.948 26.1183 203.996 26.0489C204.06 25.9625 204.116 25.8761 204.165 25.7897C204.261 25.599 204.341 25.3913 204.404 25.1665C204.469 24.9413 204.549 24.7248 204.645 24.5171C204.837 24.0497 204.957 23.5998 205.005 23.1668C205.053 22.7339 205.093 22.2146 205.125 21.6088C205.141 21.2798 205.117 21.0376 205.053 20.8818C205.005 20.726 204.965 20.5095 204.933 20.2324C204.917 20.0421 204.909 19.8693 204.909 19.7131C204.909 19.5402 204.877 19.3931 204.813 19.2718C204.733 19.116 204.581 19.0122 204.357 18.9602C204.148 18.9083 203.98 18.8131 203.852 18.6744C203.724 18.4496 203.588 18.2332 203.444 18.0254C203.3 17.8177 203.123 17.6444 202.915 17.5061C202.835 17.5235 202.779 17.5235 202.747 17.5061C202.715 17.4886 202.683 17.4803 202.651 17.4803ZM213.845 25.9974C213.621 26.4993 213.436 27.0618 213.293 27.685C213.164 28.3083 213.036 28.8708 212.908 29.3727C212.844 29.6153 212.716 29.7969 212.524 29.9182C212.348 30.0221 212.147 30.0914 211.923 30.1259C211.699 30.1779 211.475 30.2123 211.251 30.2298C211.027 30.2472 210.842 30.2817 210.698 30.3337C210.554 30.3856 210.394 30.4637 210.218 30.5676C210.058 30.6885 209.897 30.7923 209.738 30.8792C209.577 30.983 209.425 31.0607 209.281 31.1127C209.153 31.1646 209.057 31.1559 208.993 31.0869C208.928 31.0175 208.92 30.853 208.969 30.5933C209.016 30.3511 209.097 30.0653 209.209 29.7366C209.321 29.4076 209.449 29.0698 209.593 28.7237C209.753 28.3602 209.905 28.0311 210.05 27.737C210.146 27.5292 210.21 27.2521 210.242 26.906C210.274 26.5425 210.298 26.2396 210.314 25.9974C210.314 25.9106 210.298 25.8329 210.266 25.7635C210.234 25.6771 210.226 25.5903 210.242 25.5038C210.258 25.4174 210.306 25.3048 210.386 25.1665C210.482 25.0277 210.562 24.8894 210.626 24.751C210.738 24.4394 210.802 24.0842 210.818 23.6862C210.85 23.2707 210.914 22.9246 211.01 22.6475C211.042 22.5611 211.083 22.483 211.13 22.4136C211.195 22.3272 211.243 22.2408 211.275 22.1543C211.307 22.0505 211.315 21.9204 211.299 21.7646C211.283 21.6088 211.275 21.4618 211.275 21.3234C211.275 21.0982 211.315 20.8473 211.395 20.5702C211.491 20.276 211.579 19.9989 211.659 19.7392C211.739 19.4621 211.795 19.2024 211.827 18.9602C211.875 18.7006 211.867 18.4754 211.803 18.2851C211.755 18.0254 211.731 17.8522 211.731 17.7658C211.731 17.6793 211.715 17.6187 211.683 17.5842C211.603 17.4974 211.571 17.4454 211.587 17.428C211.619 17.3935 211.587 17.3416 211.491 17.2726C211.411 17.1858 211.331 17.1164 211.251 17.0649C211.187 16.9955 211.098 16.9174 210.987 16.831C210.891 16.7616 210.786 16.7009 210.674 16.6494C210.578 16.58 210.522 16.4674 210.506 16.3116C210.65 16.1733 210.77 16.0777 210.866 16.0262C210.979 15.9738 211.083 15.9481 211.179 15.9481C211.275 15.9306 211.379 15.9394 211.491 15.9738C211.603 15.9913 211.739 16.0087 211.899 16.0262C212.172 16.0607 212.412 16.0694 212.62 16.052C212.844 16.0345 213.116 16.0262 213.436 16.0262C213.645 16.0262 213.877 16.052 214.133 16.1039C214.405 16.1384 214.646 16.1733 214.854 16.2078C215.062 16.2422 215.27 16.251 215.478 16.2339C215.703 16.199 215.903 16.199 216.079 16.2339C216.223 16.2684 216.351 16.3116 216.464 16.3636C216.575 16.398 216.711 16.4155 216.872 16.4155C217.32 16.4155 217.745 16.3636 218.145 16.2597C218.561 16.1558 218.954 16.1384 219.322 16.2078C219.45 16.2422 219.586 16.2854 219.73 16.3378C219.89 16.3893 220.043 16.4417 220.187 16.4932C220.331 16.5455 220.435 16.5887 220.499 16.6232C220.579 16.6407 220.683 16.6752 220.811 16.7271C220.939 16.779 221.068 16.8654 221.196 16.9868C221.34 17.0906 221.484 17.2119 221.628 17.3503C221.852 17.5235 222.077 17.7051 222.301 17.8958C222.541 18.0861 222.701 18.3196 222.781 18.5967C222.813 18.6831 222.853 18.8219 222.901 19.0122C222.965 19.2024 222.997 19.3412 222.997 19.4276C223.013 19.6528 222.957 19.8776 222.829 20.1028C222.957 20.3105 223.005 20.544 222.973 20.8041C222.941 21.0463 222.861 21.2972 222.733 21.5569C222.621 21.7991 222.477 22.033 222.301 22.2582C222.125 22.483 221.964 22.6737 221.82 22.8291C221.58 23.0717 221.316 23.2882 221.027 23.4784C220.755 23.6517 220.459 23.8245 220.139 23.9978C219.963 24.0842 219.794 24.1968 219.634 24.3355C219.474 24.4565 219.322 24.5516 219.178 24.621C219.098 24.6555 219.05 24.6642 219.034 24.6472C219.034 24.6297 218.986 24.6297 218.89 24.6472C218.569 24.7161 218.257 24.8374 217.953 25.0103C217.648 25.1835 217.328 25.3136 216.992 25.4C216.912 25.4345 216.824 25.4519 216.728 25.4519C216.632 25.4345 216.544 25.4345 216.464 25.4519C216.223 25.4864 215.983 25.5558 215.743 25.6596C215.518 25.7461 215.286 25.8067 215.046 25.8412C214.822 25.8761 214.614 25.8936 214.422 25.8936C214.245 25.8936 214.053 25.928 213.845 25.9974ZM215.022 20.3105C214.958 20.5527 214.902 20.7953 214.854 21.0376C214.822 21.2798 214.782 21.5224 214.734 21.7646C214.702 21.9204 214.646 22.102 214.566 22.3097C214.501 22.5175 214.446 22.7252 214.397 22.9329C214.35 23.1236 214.334 23.2969 214.35 23.4523C214.365 23.6085 214.446 23.7123 214.589 23.7639C214.67 23.7813 214.742 23.7726 214.806 23.7381C214.886 23.7036 214.974 23.6774 215.07 23.66C215.134 23.66 215.198 23.6774 215.262 23.7123C215.342 23.7294 215.422 23.7294 215.503 23.7123C216.095 23.66 216.64 23.5478 217.136 23.3746C217.648 23.2013 217.969 22.8465 218.097 22.3097C218.161 22.2752 218.217 22.2495 218.265 22.232C218.329 22.1976 218.401 22.1627 218.481 22.1282C218.721 21.8511 218.921 21.4705 219.082 20.9856C219.258 20.5008 219.362 20.0596 219.394 19.6615C219.394 19.5228 219.338 19.3757 219.226 19.2199C219.13 19.0466 219.066 18.917 219.034 18.8306C219.002 18.7612 218.93 18.6918 218.817 18.6229C218.705 18.536 218.577 18.4583 218.433 18.389C218.289 18.3025 218.137 18.2332 217.977 18.1812C217.833 18.1293 217.72 18.0948 217.64 18.0774C217.464 18.0429 217.32 18.0512 217.208 18.1035C217.096 18.138 216.96 18.1638 216.799 18.1812C216.575 18.1987 216.367 18.1987 216.175 18.1812C215.983 18.1638 215.815 18.2332 215.671 18.389C215.623 18.7006 215.518 19.0209 215.358 19.3499C215.214 19.6615 215.102 19.9814 215.022 20.3105Z" fill="url(#paint0_angular_1_11)"/>
<defs>
<radialGradient id="paint0_angular_1_11" cx="0" cy="0" r="1" gradientUnits="userSpaceOnUse" gradientTransform="translate(127.32 27.8928) rotate(168.229) scale(32.5858 159.549)">
<stop stop-color="#0A67BD"/>
</radialGradient>
</defs>
</svg>
