<svg width="64" height="64" viewBox="0 0 64 64" fill="none" xmlns="http://www.w3.org/2000/svg">
<path d="M63.2727 37.8473L56 19.8788C55.7769 19.326 55.36 18.8994 54.8072 18.6666C54.2545 18.4436 53.6436 18.4533 53.1006 18.6957L47.4375 21.2169C46.4775 21.6242 45.9636 22.6715 46.1672 23.6703L44.6642 24.5139C44.16 24.8048 43.549 24.9115 42.9575 24.8339L32.5139 23.2921C30.6909 23.0303 28.8194 23.6315 27.5006 24.9018L26.7345 25.6388H20.9357C20.6739 25.6388 20.4121 25.5418 20.2181 25.3673L19.7042 24.9309C20.063 24.0485 19.8206 23.0206 19.0448 22.4097L14.6618 18.9479C14.1963 18.5794 13.6145 18.4145 13.023 18.5018C12.4412 18.5794 11.9078 18.8994 11.5587 19.3648L0.998744 33.6776C0.300562 34.6182 0.465411 35.937 1.39632 36.6836L5.76965 40.1357C6.16723 40.446 6.63268 40.6012 7.11753 40.6012C7.2145 40.6012 7.32117 40.5915 7.41814 40.5818C7.99996 40.5042 8.52359 40.1939 8.87268 39.7091L8.91147 39.6606L9.54177 40.1357C9.91026 40.3976 10.1236 40.8436 10.1236 41.3091V43.9176L8.4945 46.0121C7.03996 47.903 7.36965 50.6279 9.25087 52.0824C10.0169 52.6836 10.9478 53.0036 11.9078 53.0036C12.0824 53.0036 12.2666 52.9939 12.4412 52.9745C12.6351 52.9454 12.8194 52.8969 13.0036 52.8485C13.0036 52.9066 12.9939 52.9551 12.9939 53.0133C12.9939 54.2545 13.5563 55.4182 14.526 56.2133C15.2824 56.8145 16.1939 57.1151 17.0957 57.1151C17.6581 57.1151 18.2206 56.9891 18.7442 56.766V56.8145C18.88 57.8327 19.4133 58.7345 20.189 59.3066L20.3636 59.4424C21.023 59.9272 21.8084 60.1891 22.6133 60.1891C22.7975 60.1891 22.9818 60.1794 23.1757 60.1503C23.5927 60.0921 23.9709 59.9466 24.3393 59.7624C24.543 60.8 25.1345 61.6921 26.0169 62.2545L26.143 62.3418C26.7733 62.7588 27.5006 62.9721 28.2375 62.9721C28.509 62.9721 28.7709 62.943 29.0424 62.8848C30.0606 62.6715 30.9236 62.0703 31.4957 61.1976L31.6606 60.9454C32.349 61.4691 33.1733 61.7406 34.0557 61.7406C35.0933 61.7406 36.1115 61.3139 36.8484 60.5866C37.6533 59.7818 38.08 58.6569 38.0024 57.5224C38.0024 57.4545 37.9927 57.3769 37.983 57.3091C39.1175 57.4739 40.3103 57.1151 41.1733 56.2521C41.949 55.4763 42.3466 54.3903 42.2594 53.2945C42.2497 53.1588 42.2303 53.023 42.2012 52.8873C43.4909 52.9648 44.7612 52.4509 45.6339 51.4133C46.3806 50.5309 46.7297 49.3673 46.5842 48.223C46.5745 48.1357 46.5648 48.0582 46.5454 47.9709C47.7187 48.097 48.9115 47.6897 49.7842 46.8363C50.7442 45.8763 51.103 44.5188 50.8412 43.2388C50.8897 43.2291 50.9381 43.2388 50.9866 43.2291L54.109 42.7927C54.5066 43.1515 55.04 43.3551 55.5733 43.3551C55.8739 43.3551 56.1745 43.2969 56.4557 43.1612L62.1381 40.6497C63.2048 40.1842 63.7091 38.943 63.2727 37.8473ZM7.18541 38.9333C7.03996 38.9527 6.9042 38.9139 6.79753 38.8266L2.44359 35.3842C2.23026 35.2097 2.18177 34.8994 2.34662 34.6763L12.8969 20.3345C13.0036 20.1891 13.149 20.1503 13.2363 20.1406H13.3042C13.3915 20.1406 13.5078 20.16 13.6145 20.2473L18.0072 23.7091C18.2206 23.8739 18.2593 24.1842 18.1042 24.3879L17.9684 24.5721C17.9587 24.5818 17.949 24.5915 17.9394 24.6012L11.869 32.8242C11.8594 32.8339 11.8594 32.8339 11.8497 32.8436L10.6957 34.4145L8.04844 38.0024C8.03874 38.0121 8.03874 38.0218 8.03874 38.0218L7.51511 38.7394C7.41814 38.8751 7.28238 38.9236 7.18541 38.9333ZM12.2472 51.3163C11.549 51.4036 10.8509 51.2097 10.2884 50.7733C9.1442 49.8812 8.93087 48.2036 9.83268 47.04L12.9551 43.0157C13.4787 42.337 14.2642 41.9879 15.0594 41.9879C15.6218 41.9879 16.1939 42.1721 16.6787 42.5406C17.3284 43.0545 17.7066 43.8206 17.7066 44.6448C17.7066 45.2363 17.5127 45.7988 17.1442 46.2836L14.0218 50.3079C13.5757 50.8703 12.9454 51.2291 12.2472 51.3163ZM15.583 54.9139C15.0012 54.4388 14.6715 53.7503 14.6715 53.0133C14.6715 52.48 14.8557 51.9563 15.2145 51.5006L18.3272 47.486C18.7248 46.9624 19.3066 46.6424 19.9563 46.5648C20.0533 46.5454 20.1503 46.5454 20.2375 46.5454C20.7903 46.5454 21.3333 46.7394 21.8375 47.1466C22.8848 47.9903 23.0497 49.5321 22.206 50.5794L19.0157 54.5551C18.1721 55.583 16.6303 55.7479 15.583 54.9139ZM22.9236 58.4921C22.3612 58.5697 21.8084 58.4339 21.4109 58.143L21.246 58.0073C20.7806 57.6679 20.4897 57.1636 20.4121 56.5915C20.3345 56.0097 20.4993 55.4376 20.8581 54.9818L23.2242 52.0533C23.6315 51.5394 24.2521 51.2679 24.8727 51.2679C25.309 51.2679 25.7551 51.4036 26.1236 51.6848C26.6569 52.0824 26.9672 52.703 26.9672 53.3721C26.9672 53.8085 26.8412 54.2157 26.5987 54.5648C26.5794 54.5842 26.5697 54.6133 26.5503 54.6424C26.5406 54.6521 26.5406 54.6618 26.5309 54.6618L26.4921 54.72L24.2909 57.6679C23.9806 58.1236 23.486 58.4145 22.9236 58.4921ZM31.1951 58.56L30.08 60.2957C29.76 60.7903 29.2654 61.1297 28.6836 61.2557C28.1115 61.3721 27.5297 61.2654 27.0545 60.9551L26.9284 60.8679C26.4145 60.5382 26.0751 60.0242 25.9684 59.4327C25.8618 58.8412 25.9878 58.2497 26.3466 57.7551C26.9284 56.9891 27.5878 56.1357 27.8497 55.8157C27.8981 55.7673 27.9466 55.7091 27.9951 55.6703C28.0048 55.6703 28.0048 55.6606 28.0048 55.6606C28.0145 55.6509 28.0339 55.6412 28.0436 55.6315C28.0921 55.5927 28.1309 55.5539 28.2084 55.5054C28.9357 55.0691 29.8472 55.0691 30.5551 55.5248C31.1757 55.9224 31.5539 56.6206 31.5539 57.3769C31.5442 57.8036 31.4278 58.2109 31.1951 58.56ZM48.6012 45.6533C47.806 46.4388 46.5163 46.5357 45.6242 45.886L40.0484 41.7648L37.8763 40.1551C37.5078 39.8836 36.9842 39.9612 36.703 40.3297C36.4315 40.6982 36.509 41.2218 36.8775 41.503L40.6787 44.3151L43.8981 46.7006C44.4606 47.1176 44.8194 47.7285 44.9066 48.4266C44.9939 49.1248 44.7903 49.8036 44.3345 50.3466C43.5006 51.3357 42.0266 51.52 40.9697 50.7733L34.2884 45.9927C33.9103 45.7212 33.3866 45.8085 33.1248 46.1866C32.8533 46.5648 32.9406 47.0885 33.3187 47.3503L39.709 51.9176C40.2036 52.2763 40.5139 52.8291 40.5721 53.4303C40.6206 54.0412 40.4072 54.6327 39.9709 55.0691C39.2436 55.806 38.0703 55.8739 37.246 55.2533L30.943 50.3466C30.5745 50.0654 30.0509 50.1236 29.7697 50.4921C29.4884 50.8509 29.5466 51.3842 29.9054 51.6654L35.4133 55.9709C35.9369 56.3782 36.2666 56.9891 36.3054 57.6485C36.3539 58.3176 36.1115 58.9479 35.6363 59.423C34.8606 60.1988 33.5515 60.286 32.6787 59.6557C32.6787 59.6557 32.6303 59.5976 32.5624 59.5297L32.5818 59.5006C32.989 58.88 33.2024 58.1527 33.2024 57.3866C33.2024 56.0582 32.543 54.846 31.4375 54.1285C30.5939 53.5854 29.5854 53.4206 28.6254 53.5951C28.6254 53.5273 28.6351 53.4594 28.6351 53.3915C28.6351 52.1794 28.0824 51.0739 27.1224 50.3563C26.2884 49.7357 25.2897 49.503 24.3393 49.6388C24.5333 48.2424 24.0194 46.7782 22.8072 45.7988C21.9442 45.0909 20.8484 44.7806 19.743 44.9066C19.5975 44.926 19.4618 44.9648 19.326 44.9939C19.3357 44.8776 19.3551 44.7709 19.3551 44.6545C19.3551 43.3066 18.7539 42.0654 17.6872 41.2315C16.0872 39.9903 13.886 40.0582 12.3539 41.2606C12.3539 41.2509 12.3539 41.2509 12.3636 41.2412C12.3442 41.2606 12.3248 41.28 12.3054 41.2897C12.2084 41.3673 12.1115 41.4642 12.0242 41.5515C11.9466 41.6291 11.8594 41.697 11.7818 41.7842V41.3188C11.7818 40.3103 11.3066 39.3697 10.5212 38.7976L9.88117 38.3224L11.103 36.6642L12.6448 34.5697L13.1297 33.92C13.1587 33.8909 13.1781 33.8618 13.2072 33.8327L18.7442 26.3176L19.103 26.6182C19.5975 27.0545 20.2472 27.2969 20.9163 27.2969H24.9697L22.6424 29.5273C22.0993 30.0509 21.7987 30.7588 21.7987 31.5151C21.7987 32.6012 22.4 33.5612 23.3794 34.017C25.7648 35.1612 28.5866 35.103 30.9236 33.8715L31.9321 33.3479C32.8824 32.8436 34.046 32.96 34.8897 33.6388L44.7321 41.5224C45.3042 41.9685 45.9054 42.3369 46.526 42.6085C46.7297 42.6957 46.9527 42.783 47.1466 42.8509C47.3212 42.9188 47.5054 42.977 47.6606 43.0157C47.8739 43.0836 48.0872 43.1321 48.2715 43.1612C48.5236 43.2097 48.766 43.2485 48.9697 43.2582C49.0666 43.2679 49.1539 43.2679 49.2509 43.2776C49.2121 43.2873 49.183 43.2969 49.1442 43.3066C49.4157 44.1115 49.2218 45.0327 48.6012 45.6533ZM50.7539 41.5806C50.4339 41.6194 50.0848 41.6388 49.6872 41.6291C49.5224 41.6291 49.3672 41.6194 49.1442 41.5903C48.9503 41.5806 48.7757 41.5418 48.5624 41.503C48.4266 41.4836 48.2909 41.4545 48.1163 41.3963C47.9806 41.3673 47.8545 41.3188 47.7284 41.2703C47.5539 41.2121 47.3697 41.1345 47.2048 41.0666C46.72 40.8533 46.2351 40.5624 45.7794 40.2036L36.4412 32.7176L35.9369 32.32C35.1418 31.68 34.1721 31.3503 33.1927 31.3503C32.4945 31.3503 31.7963 31.5151 31.166 31.8545L30.1575 32.3782C28.286 33.3673 26.0266 33.4157 24.1163 32.4945C23.6606 32.2812 23.4957 31.8448 23.4957 31.5054C23.4957 31.3018 23.5539 30.9915 23.8254 30.7297L28.6642 26.0945C29.6145 25.183 30.9624 24.7466 32.2715 24.9406L42.7248 26.4824C43.6848 26.6182 44.6739 26.4339 45.4884 25.9685L46.7684 25.2509L48.8242 30.3321L53.246 41.2315L50.7539 41.5806ZM61.4594 39.137L55.7672 41.6485C55.5442 41.7454 55.2727 41.6679 55.1078 41.3866L49.0569 26.4436L48.2715 24.5236L47.8254 23.4182C47.7187 23.166 47.8351 22.8751 48.0969 22.7588L53.7794 20.2376C53.9054 20.1794 54.0509 20.1794 54.1769 20.2279C54.303 20.2763 54.4 20.3733 54.4484 20.5091L61.7212 38.4873C61.8181 38.7297 61.7018 39.0206 61.4594 39.137Z" fill="#0C78ED"/>
<path d="M31.9999 20.9649C37.4981 20.9649 41.9684 16.4946 41.9684 10.9964C41.9684 5.49819 37.4981 1.01819 31.9999 1.01819C26.5017 1.01819 22.0217 5.48849 22.0217 10.9964C22.0314 16.4946 26.5017 20.9649 31.9999 20.9649ZM31.9999 2.69576C36.5769 2.69576 40.2908 6.4194 40.2908 10.9964C40.2908 15.5733 36.5672 19.2873 31.9999 19.2873C27.4229 19.2873 23.6993 15.5636 23.6993 10.9964C23.6993 6.4194 27.4229 2.69576 31.9999 2.69576Z" fill="#0C78ED"/>
<path d="M29.9639 14.0316C30.119 14.1868 30.3323 14.2741 30.5554 14.2741C30.7784 14.2741 30.9917 14.1868 31.1469 14.0316L36.0245 9.15406C36.3542 8.82436 36.3542 8.30072 36.0245 7.97103C35.6948 7.64133 35.1711 7.64133 34.8414 7.97103L30.5554 12.2571L29.1687 10.8704C28.839 10.5407 28.3154 10.5407 27.9857 10.8704C27.656 11.2001 27.656 11.7238 27.9857 12.0535L29.9639 14.0316Z" fill="#0C78ED"/>
</svg>
