<svg width="26" height="26" viewBox="0 0 26 26" fill="none" xmlns="http://www.w3.org/2000/svg">
<g clip-path="url(#clip0_1_30)">
<path d="M13 26C20.1797 26 26 20.1797 26 13C26 5.8203 20.1797 0 13 0C5.8203 0 0 5.8203 0 13C0 20.1797 5.8203 26 13 26Z" fill="#039BE5"/>
<path d="M5.94716 12.7183L18.4813 7.88556C19.0631 7.6754 19.5712 8.02748 19.3827 8.90715L19.3837 8.90606L17.2496 18.9605C17.0914 19.6733 16.6678 19.8466 16.0752 19.5108L12.8252 17.1156L11.2577 18.6257C11.0843 18.7991 10.9381 18.9453 10.6022 18.9453L10.833 15.6379L16.8563 10.1963C17.1185 9.96556 16.7978 9.83556 16.4522 10.0652L9.00866 14.7517L5.79983 13.7507C5.10324 13.5297 5.08808 13.0541 5.94716 12.7183Z" fill="white"/>
</g>
<defs>
<clipPath id="clip0_1_30">
<rect width="26" height="26" fill="white"/>
</clipPath>
</defs>
</svg>
