<svg width="52" height="52" viewBox="0 0 52 52" fill="none" xmlns="http://www.w3.org/2000/svg">
<g clip-path="url(#clip0_1_212)">
<path d="M26 52C40.3594 52 52 40.3594 52 26C52 11.6406 40.3594 0 26 0C11.6406 0 0 11.6406 0 26C0 40.3594 11.6406 52 26 52Z" fill="#039BE5"/>
<path d="M11.8963 25.4366L36.9646 15.7711C38.1281 15.3508 39.1443 16.055 38.7673 17.8143L38.7694 17.8121L34.5011 37.921C34.1848 39.3466 33.3376 39.6933 32.1524 39.0216L25.6524 34.2311L22.5173 37.2515C22.1706 37.5981 21.8781 37.8906 21.2064 37.8906L21.6679 31.2758L33.7146 20.3926C34.2389 19.9311 33.5976 19.6711 32.9064 20.1305L18.0193 29.5035L11.6016 27.5015C10.2084 27.0595 10.1781 26.1083 11.8963 25.4366Z" fill="white"/>
</g>
<defs>
<clipPath id="clip0_1_212">
<rect width="52" height="52" fill="white"/>
</clipPath>
</defs>
</svg>
