<svg width="72" height="72" viewBox="0 0 72 72" fill="none" xmlns="http://www.w3.org/2000/svg">
<g clip-path="url(#clip0_1_417)">
<path d="M66.0002 24.0022H65.1668L54.8614 6.00597C54.0645 4.61449 52.7783 3.61844 51.2344 3.20529C50.6598 3.05257 50.0763 2.9838 49.4989 3.00321C48.5306 3.03569 47.5794 3.31019 46.7168 3.81026L2.97372 29.2755C1.0615 30.3895 -0.00936022 32.4197 6.16508e-05 34.5017C0.00470228 35.5073 0.263593 36.5264 0.796983 37.4576L9.00006 51.7839V63.0004C9.00006 66.3093 11.6925 69.0002 15.0001 69.0002H66.0002C69.3078 69.0002 72.0002 66.3095 72.0002 63.0004V30.0019C72.0001 26.693 69.3078 24.0022 66.0002 24.0022ZM9.00006 30.0001V45.7481L3.39855 35.9649C2.57828 34.5308 3.06456 32.6924 4.48544 31.8662L9.08191 29.1903C9.04534 29.4577 9.00006 29.7228 9.00006 30.0001ZM48.2287 6.40296C48.9083 6.00457 49.6993 5.89755 50.4581 6.10272C51.2229 6.30776 51.8614 6.8029 52.26 7.49716L61.7114 24.0022H17.9972L48.2287 6.40296ZM69.0001 63C69.0001 64.6538 67.6553 66 66.0002 66H15.0001C13.3448 66 12.0002 64.6538 12.0002 63V30.0001C12.0002 28.3464 13.345 27.0002 15.0001 27.0002H66.0002C67.6555 27.0002 69.0001 28.3464 69.0001 30.0001V63Z" fill="#0C78ED"/>
<path d="M64.5 51.0001H46.5C45.6709 51.0001 45 51.671 45 52.5002C45 53.3293 45.6709 54.0002 46.5 54.0002H64.5C65.3292 54.0002 66.0001 53.3293 66.0001 52.5002C66.0001 51.671 65.3292 51.0001 64.5 51.0001Z" fill="#0C78ED"/>
<path d="M64.5001 42.0001H40.5C39.6709 42.0001 39 42.671 39 43.5002C39 44.3293 39.6709 45.0002 40.5 45.0002H64.5001C65.3292 45.0002 66.0001 44.3293 66.0001 43.5002C66.0001 42.671 65.3292 42.0001 64.5001 42.0001Z" fill="#0C78ED"/>
<path d="M27 48.0001C30.3077 48.0001 33.0001 45.3092 33.0001 42C33.0001 38.6909 30.3077 36 27 36C23.6924 36 21 38.6909 21 42C21 45.3092 23.6925 48.0001 27 48.0001ZM27 39.0001C28.6553 39.0001 30 40.3463 30 42C30 43.6538 28.6552 45 27 45C25.3448 45 24.0001 43.6538 24.0001 42C24.0001 40.3462 25.3449 39.0001 27 39.0001Z" fill="#0C78ED"/>
<path d="M35.962 51.7105C33.8643 50.7026 30.6094 49.5 27 49.5C23.3905 49.5 20.1356 50.7026 18.0381 51.7105C16.1631 52.6129 15 54.4132 15 56.4082V57.0938C15 58.6963 16.3448 60 18 60H36C37.6553 60 38.9999 58.6963 38.9999 57.0938V56.4082C39 54.4132 37.8369 52.6129 35.962 51.7105ZM36 57.0001L18 57.0938V56.4082C18 55.5761 18.5127 54.8115 19.3388 54.4146C21.1553 53.5416 23.956 52.5 27 52.5C30.0439 52.5 32.8448 53.5414 34.6611 54.4146C35.4872 54.8115 36 55.5761 36 56.4082V57.0001Z" fill="#0C78ED"/>
</g>
<defs>
<clipPath id="clip0_1_417">
<rect width="72" height="72" fill="white"/>
</clipPath>
</defs>
</svg>
