<svg width="26" height="26" viewBox="0 0 26 26" fill="none" xmlns="http://www.w3.org/2000/svg">
<path d="M13 26C20.1797 26 26 20.1797 26 13C26 5.8203 20.1797 0 13 0C5.8203 0 0 5.8203 0 13C0 20.1797 5.8203 26 13 26Z" fill="#29A71A"/>
<path d="M18.7314 7.2682C17.3789 5.90216 15.5827 5.06441 13.6669 4.90607C11.7511 4.74772 9.84177 5.2792 8.2833 6.40464C6.72484 7.53008 5.61985 9.17539 5.16764 11.0438C4.71543 12.9122 4.94578 14.8807 5.81713 16.5942L4.96179 20.7468C4.95291 20.7882 4.95266 20.8309 4.96105 20.8723C4.96944 20.9137 4.98629 20.953 5.01054 20.9876C5.04607 21.0402 5.09678 21.0806 5.15591 21.1036C5.21504 21.1266 5.27977 21.1309 5.34145 21.1161L9.41133 20.1515C11.12 21.0008 13.0746 21.2163 14.9273 20.7597C16.7801 20.3032 18.4107 19.2041 19.5291 17.6581C20.6475 16.1121 21.1812 14.2194 21.0351 12.3169C20.8891 10.4144 20.0727 8.62536 18.7314 7.2682ZM17.4625 17.3964C16.5267 18.3296 15.3216 18.9456 14.0171 19.1576C12.7126 19.3696 11.3745 19.167 10.1913 18.5782L9.62406 18.2975L7.12895 18.8884L7.13633 18.8574L7.65338 16.346L7.37565 15.798C6.77109 14.6106 6.55783 13.2624 6.7664 11.9465C6.97498 10.6305 7.5947 9.41436 8.53679 8.47217C9.72053 7.28879 11.3258 6.62401 12.9996 6.62401C14.6734 6.62401 16.2787 7.28879 17.4625 8.47217C17.4726 8.48373 17.4834 8.49459 17.495 8.50467C18.664 9.6911 19.3167 11.2916 19.3106 12.9572C19.3045 14.6228 18.6402 16.2185 17.4625 17.3964Z" fill="white"/>
<path d="M17.2413 15.5541C16.9355 16.0357 16.4524 16.6251 15.8452 16.7714C14.7816 17.0284 13.1492 16.7802 11.118 14.8864L11.0928 14.8642C9.30682 13.2082 8.84296 11.8299 8.95523 10.7367C9.01728 10.1163 9.53432 9.55489 9.97012 9.18853C10.039 9.12973 10.1207 9.08786 10.2087 9.06628C10.2967 9.0447 10.3885 9.044 10.4768 9.06424C10.565 9.08448 10.6474 9.1251 10.7172 9.18285C10.7869 9.2406 10.8422 9.31388 10.8786 9.39683L11.536 10.8741C11.5787 10.9699 11.5946 11.0755 11.5818 11.1796C11.5691 11.2837 11.5282 11.3824 11.4636 11.465L11.1313 11.8964C11.0599 11.9854 11.0169 12.0938 11.0077 12.2075C10.9985 12.3213 11.0235 12.4352 11.0795 12.5346C11.2657 12.861 11.7118 13.3411 12.2067 13.7858C12.7622 14.2881 13.3782 14.7475 13.7682 14.9041C13.8725 14.9467 13.9873 14.9571 14.0976 14.934C14.2079 14.9108 14.3088 14.8551 14.3872 14.7741L14.7727 14.3856C14.8471 14.3122 14.9396 14.2599 15.0409 14.2339C15.1421 14.208 15.2483 14.2093 15.3489 14.2378L16.9103 14.681C16.9965 14.7075 17.0754 14.7532 17.1412 14.8148C17.2069 14.8765 17.2577 14.9523 17.2896 15.0365C17.3215 15.1208 17.3338 15.2112 17.3254 15.3009C17.317 15.3906 17.2882 15.4772 17.2413 15.5541Z" fill="white"/>
</svg>
