<svg width="52" height="52" viewBox="0 0 52 52" fill="none" xmlns="http://www.w3.org/2000/svg">
<g clip-path="url(#clip0_1_215)">
<path d="M26 52C40.3594 52 52 40.3594 52 26C52 11.6406 40.3594 0 26 0C11.6406 0 0 11.6406 0 26C0 40.3594 11.6406 52 26 52Z" fill="#29A71A"/>
<path d="M37.4629 14.5364C34.7578 11.8043 31.1655 10.1288 27.3338 9.81214C23.5022 9.49545 19.6835 10.5584 16.5666 12.8093C13.4497 15.0602 11.2397 18.3508 10.3353 22.0876C9.43086 25.8244 9.89155 29.7614 11.6343 33.1884L9.92358 41.4937C9.90583 41.5763 9.90532 41.6618 9.9221 41.7446C9.93888 41.8275 9.97257 41.906 10.0211 41.9753C10.0921 42.0804 10.1936 42.1613 10.3118 42.2072C10.4301 42.2531 10.5595 42.2619 10.6829 42.2323L18.8227 40.303C22.2401 42.0016 26.1493 42.4326 29.8547 41.5195C33.5601 40.6063 36.8214 38.4082 39.0582 35.3162C41.295 32.2242 42.3624 28.4389 42.0702 24.6338C41.7781 20.8287 40.1455 17.2507 37.4629 14.5364ZM34.9249 34.7928C33.0533 36.6591 30.6432 37.8912 28.0342 38.3152C25.4253 38.7392 22.7491 38.3339 20.3827 37.1564L19.2481 36.595L14.2579 37.7768L14.2727 37.7148L15.3068 32.6921L14.7513 31.5959C13.5422 29.2213 13.1157 26.5249 13.5328 23.893C13.95 21.2611 15.1894 18.8287 17.0736 16.9443C19.4411 14.5776 22.6516 13.248 25.9993 13.248C29.3469 13.248 32.5574 14.5776 34.9249 16.9443C34.9451 16.9675 34.9668 16.9892 34.9899 17.0093C37.3281 19.3822 38.6334 22.5832 38.6212 25.9144C38.609 29.2457 37.2804 32.437 34.9249 34.7928Z" fill="white"/>
<path d="M34.4825 31.1082C33.8709 32.0714 32.9048 33.2502 31.6905 33.5427C29.5632 34.0568 26.2984 33.5605 22.2359 29.7727L22.1857 29.7284C18.6136 26.4164 17.6859 23.6598 17.9105 21.4734C18.0346 20.2325 19.0686 19.1098 19.9402 18.3771C20.078 18.2595 20.2414 18.1757 20.4174 18.1326C20.5933 18.0894 20.7769 18.088 20.9535 18.1285C21.1301 18.169 21.2947 18.2502 21.4343 18.3657C21.5739 18.4812 21.6845 18.6278 21.7573 18.7937L23.0721 21.7482C23.1575 21.9398 23.1892 22.151 23.1636 22.3592C23.1381 22.5674 23.0564 22.7647 22.9273 22.93L22.2625 23.7927C22.1199 23.9709 22.0338 24.1876 22.0154 24.4151C21.9969 24.6426 22.047 24.8703 22.1591 25.0691C22.5314 25.7221 23.4236 26.6823 24.4134 27.5716C25.5243 28.5761 26.7564 29.495 27.5364 29.8082C27.7451 29.8935 27.9746 29.9143 28.1952 29.8679C28.4158 29.8216 28.6175 29.7102 28.7743 29.5482L29.5455 28.7711C29.6943 28.6244 29.8793 28.5198 30.0817 28.4679C30.2841 28.416 30.4967 28.4187 30.6977 28.4757L33.8207 29.3621C33.993 29.4149 34.1509 29.5064 34.2823 29.6297C34.4138 29.7529 34.5153 29.9046 34.5792 30.0731C34.6431 30.2416 34.6676 30.4224 34.6508 30.6018C34.634 30.7812 34.5765 30.9544 34.4825 31.1082Z" fill="white"/>
</g>
<defs>
<clipPath id="clip0_1_215">
<rect width="52" height="52" fill="white"/>
</clipPath>
</defs>
</svg>
